<?xml version="1.0" encoding="UTF-8" standalone="no"?>
<svg
   xmlns:dc="http://purl.org/dc/elements/1.1/"
   xmlns:cc="http://creativecommons.org/ns#"
   xmlns:rdf="http://www.w3.org/1999/02/22-rdf-syntax-ns#"
   xmlns:svg="http://www.w3.org/2000/svg"
   xmlns="http://www.w3.org/2000/svg"
   xmlns:sodipodi="http://sodipodi.sourceforge.net/DTD/sodipodi-0.dtd"
   xmlns:inkscape="http://www.inkscape.org/namespaces/inkscape"
   version="1.1"
   x="0px"
   y="0px"
   viewBox="0 0 100 125"
   style="enable-background:new 0 0 100 100;"
   xml:space="preserve"
   id="svg2"
   inkscape:version="0.48.4 r9939"
   width="100%"
   height="100%"
   sodipodi:docname="noun_300167_cc.svg"><metadata
     id="metadata14"><rdf:RDF><cc:Work
         rdf:about=""><dc:format>image/svg+xml</dc:format><dc:type
           rdf:resource="http://purl.org/dc/dcmitype/StillImage" /></cc:Work></rdf:RDF></metadata><defs
     id="defs12" /><sodipodi:namedview
     pagecolor="#ffffff"
     bordercolor="#666666"
     borderopacity="1"
     objecttolerance="10"
     gridtolerance="10"
     guidetolerance="10"
     inkscape:pageopacity="0"
     inkscape:pageshadow="2"
     inkscape:window-width="640"
     inkscape:window-height="480"
     id="namedview10"
     showgrid="false"
     inkscape:zoom="1.888"
     inkscape:cx="50"
     inkscape:cy="62.5"
     inkscape:window-x="75"
     inkscape:window-y="34"
     inkscape:window-maximized="0"
     inkscape:current-layer="svg2" /><path
     d="m 93.950317,34.511268 c -1.01414,-1.061716 -2.253643,-1.887497 -3.380466,-2.713276 -2.366325,-1.887497 -4.73265,-3.657025 -7.098976,-5.544521 -4.16924,-3.185152 -8.225798,-6.960145 -13.071131,-8.96561 -4.281923,-1.887496 -9.014574,-2.477339 -13.52186,-1.887496 -2.02828,0.235936 -4.16924,0.825779 -6.197519,1.297653 -2.929737,0.589843 -5.859473,1.297654 -8.676528,1.887497 -1.915596,0.471875 -4.507285,0.589843 -5.972154,2.241403 -0.338047,0.471873 -0.676093,0.943747 -0.901458,1.533591 -0.112681,0.353905 -0.112681,1.651559 -0.338046,1.887496 0,0.117969 -0.225364,0 -0.338046,0.117969 -0.450729,0.353905 -1.464868,0.353905 -2.02828,0.471873 -2.591689,0.589843 -5.070697,1.179686 -7.662387,1.887497 -4.958015,1.179686 -9.91603,2.359371 -14.8740461,3.539056 -2.479008,0.589843 -4.16924,2.595308 -3.7185109,5.308584 0.1126815,0.825781 0.3380464,1.533592 0.4507278,2.359372 0.9014576,4.364836 11.4935822,55.681151 12.2823572,58.748332 0.450729,1.769528 1.690232,3.421092 2.817054,4.836702 3.718512,4.60079 9.014573,7.43203 14.536,9.08359 8.676526,2.5953 18.705239,2.5953 27.494448,0 6.648248,-2.00547 14.310636,-6.72421 16.338914,-14.03826 2.59169,-9.201546 12.395039,-46.361636 14.986728,-55.799119 0.788775,-2.47734 0.563411,-4.600774 -1.126821,-6.252333 0,0 0.901457,0.82578 0,0 z m -1.802915,4.482804 c -2.253643,8.611704 -12.169674,46.007731 -14.986728,56.153026 -2.59169,9.201542 -14.197953,12.622632 -22.198387,13.330442 -2.817054,0.23594 -5.746791,0.23594 -8.563845,0.11797 -1.126822,-0.11797 -1.352185,0.23594 -1.57755,-0.58984 -0.450729,-1.06172 -3.493147,-53.911624 -3.493147,-54.029593 1.915596,0 4.056558,-0.943748 5.746791,-1.533591 3.943875,-1.179685 7.887751,-2.359371 11.831627,-3.539056 9.127256,-2.713277 18.141829,-5.426553 27.269084,-8.257798 1.464869,-0.471874 2.929737,-0.82578 4.394604,-1.297654 0.338048,-0.235937 1.577551,-0.707811 1.577551,-0.353906 z M 38.172644,23.894099 c 0,-1.415622 1.915597,-1.53359 2.817054,-1.651559 1.915597,-0.471875 3.831194,-0.82578 5.859473,-1.297654 3.380465,-0.707811 6.76093,-1.65156 10.141395,-2.123434 6.310201,-0.82578 12.507721,1.061717 17.6911,4.954679 2.817054,2.123434 5.634109,4.364836 8.451163,6.606238 2.704372,2.123434 5.408743,4.128899 8.113116,6.252333 -6.648248,2.005465 -13.296496,4.01093 -19.944744,6.016395 -9.014573,2.713277 -18.029147,5.426553 -27.04372,8.13983 -0.676093,0.235937 -1.464868,0.471874 -2.140961,0.707811 -1.915597,0.471874 -2.817054,-0.943749 -3.943876,-2.241402 -2.704371,-3.185151 -5.746791,-6.370302 -8.113116,-9.79139 -0.450729,-0.589842 -1.014139,-2.005465 -0.450729,-2.713276 0.225365,-0.353905 0.788775,-0.117968 1.239504,0 1.239504,0.117969 2.479008,0.471874 3.718512,0.235938 1.126821,-0.117969 2.140961,-0.471875 3.1551,-0.707812 4.958016,-1.179685 10.028713,-2.359371 14.986729,-3.421088 3.042418,-0.707811 9.014573,-0.943748 9.803348,-4.836709 1.01414,-5.190617 -5.74679,-6.488271 -9.239938,-5.780459 -1.014139,0.235937 -2.14096,0.471874 -3.1551,0.707811 -0.901458,0.235937 -2.253643,0.235937 -2.817054,1.061717 -1.014139,1.297654 0.450728,2.477339 1.352186,3.18515 -2.253644,0.471875 -4.619969,0.589843 -6.873612,0.117969 -1.01414,-0.235937 -2.591691,-0.471874 -3.380466,-1.297654 -0.338046,-0.707811 -0.225364,-1.297654 -0.225364,-2.123434 z m 10.817488,5.426553 c 0.901458,-0.235937 2.366326,-0.235937 2.817054,-1.297653 0.563412,-1.297655 -0.676092,-2.123434 -1.464867,-2.949215 2.366325,-0.471873 4.958014,-1.415622 7.32434,-0.70781 1.352186,0.353905 3.267783,1.179685 2.817054,2.949213 -0.225364,0.82578 -0.788775,1.297654 -1.57755,1.533591 -3.380465,1.061717 -6.986294,1.651559 -10.479442,2.47734 -4.281922,0.943747 -8.451163,2.005465 -12.733085,2.949213 -2.479007,0.589843 -4.845333,0 -7.324341,-0.353906 -4.169239,-0.589842 -8.33848,-1.061717 -12.620402,-1.65156 3.60583,-0.825779 7.32434,-1.769528 10.93017,-2.595307 2.253644,-0.589843 4.507287,-1.061717 6.873612,-1.651559 0.563411,-0.117969 1.239504,-0.235938 1.802915,-0.471875 0.788775,-0.235937 1.014139,-0.353906 1.802914,0.117969 3.60583,2.123434 7.77507,2.477339 11.831628,1.651559 z m -21.634976,6.842175 c -0.901457,3.185151 1.464868,5.308585 3.155101,7.432019 1.464868,1.769528 2.817054,3.421087 4.281922,5.190615 -7.098976,-4.364836 -14.310635,-8.611703 -21.409611,-12.976539 -1.01414,-0.589842 -2.028279,-1.297654 -3.155102,-1.887497 5.746791,0.707812 11.493582,1.533591 17.12769,2.241402 z m 11.718946,17.81325 c 1.014139,15.807784 3.380464,51.906153 3.493147,54.147553 C 35.242908,107.06192 27.01711,103.75881 22.960552,96.798657 21.721048,94.557255 10.790878,40.409695 10.002102,36.516733 c 8.451163,5.072647 16.902326,10.145294 25.353488,15.33591 1.239504,0.707812 2.479008,1.415623 3.718512,2.123434 z"
     id="path4"
     style="fill:#008000"
     inkscape:connector-curvature="0" /></svg>