<?xml version="1.0" encoding="UTF-8" standalone="no"?>
<svg
   xmlns:dc="http://purl.org/dc/elements/1.1/"
   xmlns:cc="http://creativecommons.org/ns#"
   xmlns:rdf="http://www.w3.org/1999/02/22-rdf-syntax-ns#"
   xmlns:svg="http://www.w3.org/2000/svg"
   xmlns="http://www.w3.org/2000/svg"
   xmlns:sodipodi="http://sodipodi.sourceforge.net/DTD/sodipodi-0.dtd"
   xmlns:inkscape="http://www.inkscape.org/namespaces/inkscape"
   version="1.1"
   x="0px"
   y="0px"
   viewBox="0 0 100 125"
   enable-background="new 0 0 100 100"
   xml:space="preserve"
   id="svg2"
   inkscape:version="0.48.4 r9939"
   width="100%"
   height="100%"
   sodipodi:docname="choose_localization.svg"><metadata
     id="metadata14"><rdf:RDF><cc:Work
         rdf:about=""><dc:format>image/svg+xml</dc:format><dc:type
           rdf:resource="http://purl.org/dc/dcmitype/StillImage" /></cc:Work></rdf:RDF></metadata><defs
     id="defs12" /><sodipodi:namedview
     pagecolor="#ffffff"
     bordercolor="#666666"
     borderopacity="1"
     objecttolerance="10"
     gridtolerance="10"
     guidetolerance="10"
     inkscape:pageopacity="0"
     inkscape:pageshadow="2"
     inkscape:window-width="640"
     inkscape:window-height="480"
     id="namedview10"
     showgrid="false"
     inkscape:zoom="1.888"
     inkscape:cx="50"
     inkscape:cy="62.5"
     inkscape:window-x="75"
     inkscape:window-y="34"
     inkscape:window-maximized="0"
     inkscape:current-layer="svg2" /><path
     d="m 69.334841,38.036138 c -4.628143,0 -8.382612,-3.68225 -8.382612,-8.225704 0,-4.544796 3.754469,-8.224363 8.382612,-8.224363 4.630876,0 8.385346,3.68091 8.385346,8.224363 0,4.543454 -3.75447,8.225704 -8.385346,8.225704 m 0,21.803751 c 0,0 17.418769,-21.319492 17.418769,-30.757856 0,-9.438366 -7.797429,-17.088592 -17.418769,-17.088592 -9.618606,0 -17.416036,7.650226 -17.416036,17.088592 0,9.439705 17.416036,30.757856 17.416036,30.757856 M 28.809539,100.9778 10.701675,93.657567 V 42.7741 l 18.107864,7.316209 V 100.9778 z M 97.029864,99.91672 V 35.5585 l -6.553231,-3.423352 c -0.499046,1.814967 -1.289317,3.786882 -2.272369,5.823187 l 2.476089,1.774723 V 90.615183 L 72.572489,83.300315 v -23.06336 c -0.649444,0.826327 -1.129349,1.419242 -1.36725,1.710334 l -1.870398,2.285813 -1.866297,-2.285813 C 67.247049,61.673636 66.809529,61.137061 66.224346,60.393903 V 85.859782 L 35.156315,98.41431 V 47.529502 L 51.563319,42.004114 C 50.529678,40.057687 49.630028,38.139428 48.951872,36.321779 L 28.809539,43.352262 4.3507966,33.473904 v 64.358221 l 24.4587424,9.883725 43.76295,-17.681511 v 0.0027 l 24.457375,9.879715 z"
     id="path4"
     style="fill:#008000"
     inkscape:connector-curvature="0" /></svg>