<?xml version="1.0" encoding="UTF-8" standalone="no"?>
<svg
   xmlns:dc="http://purl.org/dc/elements/1.1/"
   xmlns:cc="http://creativecommons.org/ns#"
   xmlns:rdf="http://www.w3.org/1999/02/22-rdf-syntax-ns#"
   xmlns:svg="http://www.w3.org/2000/svg"
   xmlns="http://www.w3.org/2000/svg"
   xmlns:sodipodi="http://sodipodi.sourceforge.net/DTD/sodipodi-0.dtd"
   xmlns:inkscape="http://www.inkscape.org/namespaces/inkscape"
   version="1.1"
   x="0px"
   y="0px"
   viewBox="0 0 100 125"
   enable-background="new 0 0 100 100"
   xml:space="preserve"
   id="svg2"
   inkscape:version="0.48.4 r9939"
   width="100%"
   height="100%"
   sodipodi:docname="community.svg"><metadata
     id="metadata14"><rdf:RDF><cc:Work
         rdf:about=""><dc:format>image/svg+xml</dc:format><dc:type
           rdf:resource="http://purl.org/dc/dcmitype/StillImage" /></cc:Work></rdf:RDF></metadata><defs
     id="defs12" /><sodipodi:namedview
     pagecolor="#ffffff"
     bordercolor="#666666"
     borderopacity="1"
     objecttolerance="10"
     gridtolerance="10"
     guidetolerance="10"
     inkscape:pageopacity="0"
     inkscape:pageshadow="2"
     inkscape:window-width="640"
     inkscape:window-height="480"
     id="namedview10"
     showgrid="false"
     inkscape:zoom="1.888"
     inkscape:cx="50"
     inkscape:cy="62.5"
     inkscape:window-x="75"
     inkscape:window-y="34"
     inkscape:window-maximized="0"
     inkscape:current-layer="svg2" /><path
     d="m 59.065048,77.60949 c -0.265686,0 -0.489787,0.201385 -0.673456,0.476964 l -0.02541,-0.04064 c -0.02657,0.03886 -2.715775,3.951726 -7.1227,3.951726 -4.406926,0 -7.096131,-3.912862 -7.121545,-3.951726 l -0.02541,0.04064 c -0.183669,-0.273812 -0.40777,-0.476964 -0.673456,-0.476964 -5.232863,0 -9.347533,2.582666 -12.231961,7.677336 -6.091145,10.759929 -4.471615,28.764394 -4.39884,29.525764 0.07046,0.75078 0.492098,1.309 0.988815,1.309 h 46.925957 c 0.496717,0 0.91835,-0.55822 0.988815,-1.309 0.07278,-0.76137 1.69346,-18.765835 -4.39884,-29.525764 C 68.412591,80.19039 64.297921,77.60949 59.065058,77.60949 z m -7.820416,7.444155 c 2.207506,0 4.014172,-0.824969 5.407293,-1.785962 L 51.244632,100.39772 45.837341,83.267683 c 1.393119,0.960993 3.199786,1.785962 5.407291,1.785962 z M 73.809476,113.06373 H 28.679789 c -0.239117,-4.222 -0.579889,-17.654691 4.029189,-25.784259 2.373848,-4.18844 5.766545,-6.405434 10.09261,-6.599752 l 7.543178,23.897611 c 0.33384,1.05638 1.465894,1.05638 1.799734,0 l 7.543177,-23.897611 c 4.326065,0.192551 7.719918,2.411312 10.09261,6.599752 4.610234,8.129568 4.268307,21.560489 4.029189,25.784259 z M 51.244632,72.449459 c 7.306371,0 13.250811,-9.090559 13.250811,-20.263856 0,-11.173298 -5.94444,-20.265623 -13.250811,-20.265623 -7.30637,0 -13.250809,9.092325 -13.250809,20.265623 0,11.173297 5.943284,20.263856 13.250809,20.263856 z m 0,-37.471617 c 6.204351,0 11.252389,7.719733 11.252389,17.207761 0,9.488028 -5.046883,17.205994 -11.252389,17.205994 -6.204349,0 -11.251232,-7.717966 -11.251232,-17.205994 -0.0011,-9.488028 5.045728,-17.207761 11.251232,-17.207761 z m 41.995746,31.089147 c -2.0943,-3.699112 -5.074606,-5.575166 -8.857747,-5.575166 -0.01501,0 -0.02657,0.01767 -0.04158,0.01767 -0.147861,0.0089 -0.28879,0.07773 -0.422789,0.185486 -0.04274,0.03533 -0.07855,0.07243 -0.117825,0.11659 -0.03812,0.0424 -0.08201,0.06359 -0.116672,0.114825 -0.01733,0.02473 -1.842475,2.663926 -4.825092,2.663926 -2.980305,0 -4.805454,-2.639195 -4.819317,-2.660393 -0.03581,-0.05476 -0.08201,-0.07773 -0.121291,-0.120124 -0.03812,-0.0424 -0.07162,-0.07773 -0.113205,-0.111291 -0.144394,-0.118357 -0.296876,-0.197851 -0.456287,-0.201385 -0.0046,0 -0.0069,-0.0053 -0.01155,-0.0053 -0.0023,0 -0.0034,0 -0.0046,0 -0.0046,0 -0.0081,0 -0.01155,0.0018 -5.716874,0.0089 -9.624771,4.359794 -11.29975,12.584754 -0.164032,0.805538 0.130533,1.662304 0.657284,1.913152 0.524442,0.24908 1.085849,-0.197852 1.251036,-1.005156 1.348068,-6.622718 4.302961,-10.123979 8.786127,-10.417222 l 5.242104,16.608907 c 0.166342,0.528192 0.516355,0.863833 0.899868,0.863833 0.383512,0 0.733525,-0.335641 0.899867,-0.863833 l 5.243259,-16.608907 c 2.877497,0.187252 5.13583,1.697634 6.720706,4.490517 3.047305,5.373782 2.954892,14.158731 2.796636,17.463908 H 76.906453 c -0.552165,0 -0.999211,0.683646 -0.999211,1.528048 0,0.844401 0.447046,1.528047 0.999211,1.528047 h 18.520638 c 0.496717,0 0.91835,-0.558224 0.988815,-1.310765 0.05083,-0.544091 1.212915,-13.452119 -3.175528,-21.201883 z m -14.380554,9.92966 -3.226355,-10.222904 c 0.902179,0.494629 1.973009,0.872666 3.226355,0.872666 1.254501,0 2.325332,-0.378037 3.22751,-0.872666 l -3.22751,10.222904 z m 0,-18.250013 c 5.320655,0 9.64903,-6.619184 9.64903,-14.755818 0,-8.136634 -4.328375,-14.755818 -9.64903,-14.755818 -5.320655,0 -9.649029,6.619184 -9.649029,14.755818 0,8.136634 4.329529,14.755818 9.649029,14.755818 z m 0,-26.455541 c 4.218635,0 7.650607,5.248359 7.650607,11.699723 0,6.451365 -3.431972,11.699723 -7.650607,11.699723 -4.218634,0 -7.650607,-5.248358 -7.650607,-11.699723 0.0011,-6.451364 3.433128,-11.699723 7.650607,-11.699723 z M 25.582813,85.523542 H 7.9666633 C 7.8060964,82.225431 7.7090628,73.45638 10.758678,68.068466 c 1.586031,-2.799948 3.846674,-4.312097 6.726481,-4.501116 l 5.24326,16.608907 c 0.33384,1.056385 1.465894,1.056385 1.799734,0 L 29.770258,63.56735 c 4.483166,0.293244 7.438058,3.794505 8.786127,10.417222 0.165187,0.805538 0.721973,1.257769 1.251035,1.005156 0.526751,-0.250848 0.821317,-1.107614 0.657284,-1.913151 -1.677288,-8.233793 -5.589806,-12.58652 -11.31592,-12.58652 -0.01501,0 -0.02657,0.01767 -0.04043,0.01767 -0.147861,0.0089 -0.28879,0.07773 -0.422789,0.185486 -0.04274,0.03533 -0.07855,0.07066 -0.117825,0.116591 -0.03812,0.04239 -0.08201,0.06359 -0.116672,0.114825 -0.01733,0.02473 -1.842475,2.663925 -4.823936,2.663925 -2.977996,0 -4.801989,-2.632128 -4.825092,-2.663925 -0.03466,-0.05123 -0.07971,-0.0742 -0.117826,-0.116591 -0.03812,-0.04239 -0.07278,-0.07773 -0.114361,-0.113058 -0.143239,-0.118358 -0.29341,-0.194318 -0.451667,-0.199618 -0.0057,0 -0.0093,-0.007 -0.01501,-0.007 -0.0023,0 -0.0046,0 -0.0069,0 -0.0034,0 -0.0069,0 -0.01043,0 -3.775054,0.0053 -6.749584,1.881353 -8.8404194,5.573399 -4.3872873,7.749764 -3.225199,20.657793 -3.1743721,21.20365 0.070464,0.750776 0.4920971,1.308999 0.9888145,1.308999 h 18.520638 c 0.552165,0 0.999211,-0.683647 0.999211,-1.528048 0.0034,-0.840868 -0.44358,-1.522748 -0.9969,-1.522748 z M 23.628287,66.646411 c 1.2545,0 2.325331,-0.378037 3.226354,-0.872666 l -3.226354,10.222904 -3.22751,-10.222904 c 0.902177,0.494629 1.973009,0.872666 3.22751,0.872666 z m 0,-8.899775 c 5.320654,0 9.649028,-6.619184 9.649028,-14.755818 0,-8.136634 -4.328374,-14.755818 -9.649028,-14.755818 -5.320655,0 -9.64903,6.619184 -9.64903,14.755818 0,8.136634 4.328375,14.755818 9.64903,14.755818 z m 0,-26.455541 c 4.218634,0 7.650607,5.248359 7.650607,11.699723 0,6.451365 -3.431973,11.699723 -7.650607,11.699723 -4.218636,0 -7.650607,-5.248358 -7.650607,-11.699723 0,-6.451364 3.431971,-11.699723 7.650607,-11.699723 z"
     id="path4"
     style="fill:#ffffff"
     inkscape:connector-curvature="0" /></svg>