<?xml version="1.0" encoding="UTF-8" standalone="no"?>
<svg
   xmlns:dc="http://purl.org/dc/elements/1.1/"
   xmlns:cc="http://creativecommons.org/ns#"
   xmlns:rdf="http://www.w3.org/1999/02/22-rdf-syntax-ns#"
   xmlns:svg="http://www.w3.org/2000/svg"
   xmlns="http://www.w3.org/2000/svg"
   xmlns:sodipodi="http://sodipodi.sourceforge.net/DTD/sodipodi-0.dtd"
   xmlns:inkscape="http://www.inkscape.org/namespaces/inkscape"
   version="1.1"
   x="0px"
   y="0px"
   viewBox="0 0 100 125"
   style="enable-background:new 0 0 100 100;"
   xml:space="preserve"
   id="svg2"
   inkscape:version="0.48.4 r9939"
   width="100%"
   height="100%"
   sodipodi:docname="foodbox_black.svg"><metadata
     id="metadata14"><rdf:RDF><cc:Work
         rdf:about=""><dc:format>image/svg+xml</dc:format><dc:type
           rdf:resource="http://purl.org/dc/dcmitype/StillImage" /><dc:title></dc:title></cc:Work></rdf:RDF></metadata><defs
     id="defs12" /><sodipodi:namedview
     pagecolor="#ffffff"
     bordercolor="#666666"
     borderopacity="1"
     objecttolerance="10"
     gridtolerance="10"
     guidetolerance="10"
     inkscape:pageopacity="0"
     inkscape:pageshadow="2"
     inkscape:window-width="640"
     inkscape:window-height="480"
     id="namedview10"
     showgrid="false"
     inkscape:zoom="1.888"
     inkscape:cx="50"
     inkscape:cy="62.5"
     inkscape:window-x="75"
     inkscape:window-y="34"
     inkscape:window-maximized="0"
     inkscape:current-layer="svg2" /><path
     d="m 43.025176,17.546427 c -0.377361,-0.391748 -0.838581,-0.69644 -1.25787,-1.001132 -0.88051,-0.696439 -1.76102,-1.349351 -2.64153,-2.04579 -1.551373,-1.175241 -3.060819,-2.56812 -4.863766,-3.308086 -1.593303,-0.696439 -3.354323,-0.914076 -5.031483,-0.696439 -0.754722,0.08706 -1.551374,0.304692 -2.306097,0.478803 -1.090155,0.217636 -2.180309,0.478801 -3.228534,0.696437 -0.712794,0.174111 -1.677162,0.217638 -2.22224,0.827022 -0.125783,0.174111 -0.251574,0.348221 -0.335431,0.565857 -0.04192,0.130585 -0.04192,0.609385 -0.125783,0.696439 0,0.04353 -0.08386,0 -0.125783,0.04353 -0.167717,0.130585 -0.545078,0.130585 -0.754722,0.174111 -0.964368,0.217636 -1.886807,0.435274 -2.851175,0.696439 -1.844877,0.435274 -3.689754,0.870549 -5.534631,1.305823 -0.922438,0.217636 -1.551373,0.957603 -1.383658,1.958734 0.04192,0.304693 0.125783,0.565857 0.167716,0.87055 0.335433,1.610515 4.276761,20.544953 4.570265,21.676667 0.167715,0.652911 0.628935,1.262295 1.048225,1.784624 1.383657,1.697571 3.354321,2.742229 5.408844,3.351614 3.228535,0.957603 6.960219,0.957603 10.230682,0 2.473814,-0.739967 5.324987,-2.481065 6.079709,-5.179766 0.964368,-3.395141 4.612194,-17.106286 5.57656,-20.588481 0.293504,-0.914077 0.209646,-1.69757 -0.41929,-2.306954 0,0 0.335433,0.304692 0,0 z m -0.670864,1.654042 c -0.83858,3.177504 -4.528335,16.975702 -5.576561,20.719064 -0.964368,3.395139 -5.283057,4.657435 -8.260018,4.9186 -1.048226,0.08706 -2.138381,0.08706 -3.186606,0.04353 -0.419291,-0.04353 -0.503148,0.08706 -0.587006,-0.217637 -0.167716,-0.391747 -1.299799,-19.892042 -1.299799,-19.935569 0.712792,0 1.509444,-0.348219 2.138379,-0.565857 1.467516,-0.435274 2.935032,-0.870549 4.402548,-1.305823 3.39625,-1.001131 6.750573,-2.002263 10.146824,-3.046921 0.545078,-0.174111 1.090155,-0.304693 1.635233,-0.478803 0.125782,-0.08706 0.587006,-0.261164 0.587006,-0.130585 z M 22.270308,13.628956 c 0,-0.522329 0.712794,-0.565857 1.048227,-0.609384 0.712792,-0.174109 1.425586,-0.304692 2.180308,-0.478801 1.257872,-0.261165 2.515742,-0.609386 3.773613,-0.783495 2.348025,-0.304692 4.654122,0.391747 6.582857,1.828153 1.048225,0.783493 2.096451,1.610515 3.144676,2.437537 1.006297,0.783494 2.012594,1.523461 3.018891,2.306954 -2.473813,0.739966 -4.947625,1.479934 -7.421439,2.2199 -3.354321,1.001131 -6.708643,2.002262 -10.062966,3.003394 -0.251574,0.08706 -0.545077,0.174109 -0.796651,0.261164 -0.712793,0.17411 -1.048226,-0.34822 -1.467516,-0.827021 -1.006296,-1.175241 -2.138379,-2.350483 -3.01889,-3.612778 -0.167716,-0.217637 -0.377361,-0.739967 -0.167716,-1.001131 0.08386,-0.130585 0.293503,-0.04353 0.46122,0 0.46122,0.04353 0.922438,0.17411 1.383657,0.08706 0.41929,-0.04353 0.796653,-0.174109 1.174014,-0.261165 1.844877,-0.435274 3.731682,-0.870548 5.57656,-1.262296 1.132083,-0.261163 3.354321,-0.348219 3.647825,-1.784624 0.377361,-1.915209 -2.138381,-2.39401 -3.43818,-2.132845 -0.377361,0.08706 -0.796652,0.174109 -1.174013,0.261165 -0.335433,0.08706 -0.838581,0.08706 -1.048225,0.391747 -0.377361,0.478802 0.167715,0.914076 0.503148,1.175241 -0.838581,0.174109 -1.71909,0.217636 -2.557671,0.04353 -0.377361,-0.08706 -0.964368,-0.174109 -1.25787,-0.478801 -0.125783,-0.261165 -0.08386,-0.478803 -0.08386,-0.783495 z m 4.025187,2.002262 c 0.335431,-0.08706 0.880509,-0.08706 1.048225,-0.478801 0.209646,-0.478802 -0.251574,-0.783495 -0.545077,-1.088187 0.88051,-0.174109 1.844877,-0.522328 2.725387,-0.261165 0.503148,0.130586 1.215942,0.435276 1.048226,1.088187 -0.08386,0.304692 -0.293504,0.478801 -0.587007,0.565857 -1.25787,0.391747 -2.599599,0.609384 -3.899399,0.914075 -1.593303,0.348221 -3.144678,0.739968 -4.737981,1.088187 -0.922438,0.217638 -1.802947,0 -2.725386,-0.130585 -1.551373,-0.217637 -3.102748,-0.391748 -4.696051,-0.609384 1.341729,-0.304692 2.725386,-0.652912 4.067115,-0.957604 0.838581,-0.217637 1.677162,-0.391748 2.557671,-0.609384 0.209646,-0.04353 0.46122,-0.08706 0.670864,-0.17411 0.293504,-0.08706 0.377363,-0.130585 0.670865,0.04353 1.341729,0.783493 2.893102,0.914076 4.402548,0.609384 z m -8.050373,2.524592 c -0.335433,1.175241 0.545078,1.958736 1.174013,2.742229 0.545077,0.652912 1.048225,1.262296 1.593303,1.915208 -2.641529,-1.610516 -5.324987,-3.177504 -7.966515,-4.788019 -0.377361,-0.217637 -0.754722,-0.478801 -1.174014,-0.696439 2.138382,0.261165 4.276761,0.565856 6.373213,0.827021 z m 4.360619,6.572644 c 0.377361,5.832678 1.25787,19.152075 1.299799,19.979097 -2.725387,-0.391748 -5.786206,-1.610515 -7.29565,-4.178634 -0.46122,-0.827022 -4.528335,-20.806119 -4.821838,-22.242524 3.144676,1.87168 6.289354,3.74336 9.43403,5.658568 0.46122,0.261163 0.922439,0.522328 1.383659,0.783493 z"
     id="path4"
     inkscape:connector-curvature="0"
     style="fill:#aa4400"
     inkscape:export-xdpi="92"
     inkscape:export-ydpi="92"
     inkscape:export-filename="/home/emmanuel/code/emmanuelrdl/laboxduchef/app/assets/images/foodbox_brown.png" /></svg>