<?xml version="1.0" encoding="UTF-8" standalone="no"?>
<svg
   xmlns:dc="http://purl.org/dc/elements/1.1/"
   xmlns:cc="http://creativecommons.org/ns#"
   xmlns:rdf="http://www.w3.org/1999/02/22-rdf-syntax-ns#"
   xmlns:svg="http://www.w3.org/2000/svg"
   xmlns="http://www.w3.org/2000/svg"
   xmlns:sodipodi="http://sodipodi.sourceforge.net/DTD/sodipodi-0.dtd"
   xmlns:inkscape="http://www.inkscape.org/namespaces/inkscape"
   version="1.1"
   x="0px"
   y="0px"
   viewBox="0 0 100 125"
   style="enable-background:new 0 0 100 100;"
   xml:space="preserve"
   id="svg2"
   inkscape:version="0.48.4 r9939"
   width="100%"
   height="100%"
   sodipodi:docname="foodbox_white.svg"><metadata
     id="metadata14"><rdf:RDF><cc:Work
         rdf:about=""><dc:format>image/svg+xml</dc:format><dc:type
           rdf:resource="http://purl.org/dc/dcmitype/StillImage" /><dc:title></dc:title></cc:Work></rdf:RDF></metadata><defs
     id="defs12" /><sodipodi:namedview
     pagecolor="#ffffff"
     bordercolor="#666666"
     borderopacity="1"
     objecttolerance="10"
     gridtolerance="10"
     guidetolerance="10"
     inkscape:pageopacity="0"
     inkscape:pageshadow="2"
     inkscape:window-width="640"
     inkscape:window-height="480"
     id="namedview10"
     showgrid="false"
     inkscape:zoom="1.888"
     inkscape:cx="50"
     inkscape:cy="62.5"
     inkscape:window-x="75"
     inkscape:window-y="34"
     inkscape:window-maximized="0"
     inkscape:current-layer="svg2" /><path
     d="m 39.902777,16.494884 c -0.341317,-0.333991 -0.758483,-0.593762 -1.137724,-0.853533 -0.796407,-0.593762 -1.592814,-1.150413 -2.38922,-1.744175 -1.403193,-1.001973 -2.768461,-2.189496 -4.399199,-2.820368 -1.441117,-0.593762 -3.03393,-0.779312 -4.550897,-0.593762 -0.682634,0.07422 -1.403192,0.259771 -2.085826,0.408211 -0.986027,0.185551 -1.972055,0.408212 -2.920158,0.593762 -0.644711,0.148441 -1.516966,0.185551 -2.00998,0.705092 -0.113771,0.14844 -0.227544,0.296881 -0.303392,0.482432 -0.03793,0.11133 -0.03793,0.519541 -0.113773,0.593762 0,0.03711 -0.07585,0 -0.113773,0.03711 -0.151696,0.11133 -0.493013,0.11133 -0.682633,0.14844 -0.872255,0.185551 -1.706586,0.371101 -2.578841,0.593762 -1.668662,0.371101 -3.337324,0.742202 -5.005986,1.113303 -0.83433,0.185551 -1.403192,0.816423 -1.251496,1.669955 0.03793,0.259771 0.113772,0.482432 0.151696,0.742202 0.303393,1.373074 3.868261,17.515972 4.133731,18.480834 0.151696,0.556652 0.568862,1.076194 0.948103,1.521515 1.251496,1.447294 3.03393,2.337937 4.892213,2.857479 2.920158,0.816422 6.295406,0.816422 9.253488,0 2.237524,-0.630873 4.816364,-2.115276 5.498999,-4.416104 0.872255,-2.894588 4.171654,-14.584272 5.043909,-17.553081 0.26547,-0.779312 0.189621,-1.447294 -0.379241,-1.966836 0,0 0.303393,0.259771 0,0 z m -0.606787,1.410184 c -0.758482,2.709038 -4.095805,14.472942 -5.043908,17.664412 -0.872256,2.894589 -4.778441,3.970782 -7.471054,4.193442 -0.948104,0.07422 -1.934131,0.07422 -2.882234,0.03711 -0.379241,-0.03711 -0.45509,0.07422 -0.530938,-0.18555 -0.151697,-0.333991 -1.175648,-16.95932 -1.175648,-16.99643 0.64471,0 1.365268,-0.296881 1.93413,-0.482431 1.327345,-0.371101 2.65469,-0.742202 3.982034,-1.113304 3.071855,-0.853532 6.105785,-1.707064 9.17764,-2.597707 0.493013,-0.148441 0.986027,-0.259771 1.479041,-0.408211 0.113772,-0.07422 0.530937,-0.222661 0.530937,-0.11133 z M 21.130332,13.154974 c 0,-0.445321 0.64471,-0.482431 0.948104,-0.519542 0.64471,-0.14844 1.28942,-0.25977 1.972054,-0.408211 1.137724,-0.222661 2.275448,-0.519541 3.413172,-0.667982 2.123751,-0.25977 4.209578,0.333991 5.954089,1.558625 0.948103,0.667982 1.896206,1.373074 2.844309,2.078166 0.910179,0.667982 1.820359,1.298854 2.730538,1.966836 -2.237524,0.630872 -4.475047,1.261743 -6.712572,1.892615 -3.03393,0.853533 -6.06786,1.707066 -9.10179,2.560598 -0.227546,0.07422 -0.493015,0.14844 -0.720559,0.222661 -0.64471,0.14844 -0.948104,-0.296881 -1.327345,-0.705093 -0.910179,-1.001973 -1.93413,-2.003945 -2.730537,-3.080138 -0.151697,-0.185551 -0.341317,-0.630873 -0.151697,-0.853533 0.07585,-0.111331 0.265469,-0.03711 0.417166,0 0.417165,0.03711 0.834331,0.14844 1.251496,0.07422 0.379242,-0.03711 0.720559,-0.148441 1.061876,-0.22266 1.668662,-0.371102 3.375248,-0.742203 5.043909,-1.076193 1.023952,-0.222662 3.03393,-0.296881 3.299399,-1.521515 0.341318,-1.632845 -1.93413,-2.041056 -3.109778,-1.818396 -0.341317,0.07422 -0.720559,0.148441 -1.061876,0.222661 -0.303393,0.07422 -0.758483,0.07422 -0.948104,0.333991 -0.341316,0.408211 0.151698,0.779312 0.45509,1.001973 -0.758482,0.148441 -1.55489,0.185551 -2.313372,0.03711 -0.341317,-0.07422 -0.872254,-0.148441 -1.137723,-0.408212 -0.113773,-0.22266 -0.07585,-0.408211 -0.07585,-0.667981 z m 3.640717,1.707065 c 0.303393,-0.07422 0.796406,-0.07422 0.948103,-0.408211 0.18962,-0.408211 -0.227545,-0.667982 -0.493014,-0.927753 0.796407,-0.148441 1.668662,-0.445322 2.465068,-0.22266 0.45509,0.11133 1.0998,0.3711 0.948104,0.927752 -0.07584,0.259771 -0.265469,0.408212 -0.530938,0.482431 -1.137724,0.333991 -2.351296,0.519542 -3.526944,0.779313 -1.441117,0.29688 -2.844309,0.630872 -4.285426,0.927753 -0.834332,0.18555 -1.630738,0 -2.465069,-0.111331 -1.403193,-0.18555 -2.806386,-0.33399 -4.247503,-0.519542 1.213572,-0.25977 2.465069,-0.556651 3.67864,-0.816422 0.758483,-0.18555 1.516966,-0.33399 2.313373,-0.519541 0.189621,-0.03711 0.417165,-0.07422 0.606786,-0.14844 0.265469,-0.07422 0.341317,-0.111331 0.606786,0.03711 1.213572,0.667982 2.616765,0.779312 3.982034,0.519541 z m -7.281433,2.152387 c -0.303394,1.001972 0.493013,1.669954 1.061875,2.337936 0.493014,0.556652 0.948104,1.076193 1.441117,1.632845 -2.38922,-1.373074 -4.816364,-2.709038 -7.205585,-4.082112 -0.341317,-0.18555 -0.682634,-0.408211 -1.061875,-0.593762 1.93413,0.222661 3.868261,0.482432 5.764468,0.705093 z m 3.944109,5.603626 c 0.341317,4.972754 1.137724,16.328448 1.175648,17.033539 -2.465069,-0.33399 -5.23353,-1.373073 -6.598799,-3.562569 C 15.593409,35.383929 11.914768,18.35039 11.6493,17.125755 c 2.844309,1.595735 5.688619,3.19147 8.532929,4.824314 0.417165,0.222661 0.834331,0.445322 1.251496,0.667983 z"
     id="path4"
     style="fill:#ffffff"
     inkscape:connector-curvature="0"
     inkscape:export-filename="/home/emmanuel/code/emmanuelrdl/laboxduchef/app/assets/images/foodbox_white.png"
     inkscape:export-xdpi="92"
     inkscape:export-ydpi="92" /></svg>