<?xml version="1.0" encoding="UTF-8" standalone="no"?>
<svg
   xmlns:dc="http://purl.org/dc/elements/1.1/"
   xmlns:cc="http://creativecommons.org/ns#"
   xmlns:rdf="http://www.w3.org/1999/02/22-rdf-syntax-ns#"
   xmlns:svg="http://www.w3.org/2000/svg"
   xmlns="http://www.w3.org/2000/svg"
   xmlns:sodipodi="http://sodipodi.sourceforge.net/DTD/sodipodi-0.dtd"
   xmlns:inkscape="http://www.inkscape.org/namespaces/inkscape"
   version="1.1"
   x="0px"
   y="0px"
   viewBox="0 0 100 125"
   style="enable-background:new 0 0 100 100;"
   xml:space="preserve"
   id="svg2"
   inkscape:version="0.48.4 r9939"
   width="100%"
   height="100%"
   sodipodi:docname="lbc_logo.svg"
   inkscape:export-filename="/home/emmanuel/code/emmanuelrdl/laboxduchef/app/assets/images/lbc_logo.png"
   inkscape:export-xdpi="92"
   inkscape:export-ydpi="92"><metadata
     id="metadata14"><rdf:RDF><cc:Work
         rdf:about=""><dc:format>image/svg+xml</dc:format><dc:type
           rdf:resource="http://purl.org/dc/dcmitype/StillImage" /><dc:title></dc:title></cc:Work></rdf:RDF></metadata><defs
     id="defs12" /><sodipodi:namedview
     pagecolor="#ffffff"
     bordercolor="#666666"
     borderopacity="1"
     objecttolerance="10"
     gridtolerance="10"
     guidetolerance="10"
     inkscape:pageopacity="0"
     inkscape:pageshadow="2"
     inkscape:window-width="1301"
     inkscape:window-height="744"
     id="namedview10"
     showgrid="false"
     inkscape:zoom="5.7232703"
     inkscape:cx="31.598091"
     inkscape:cy="72.04705"
     inkscape:window-x="65"
     inkscape:window-y="24"
     inkscape:window-maximized="1"
     inkscape:current-layer="svg2" /><g
     id="g2998"
     transform="matrix(1.0155489,0,0,0.97872826,6.0489593,10.267518)"><g
       id="g2992"><g
         id="g2987"><g
           id="g3002"
           transform="translate(-8.3943476,1.9889213)"
           style="fill:#d38d5f"><g
             id="g2999"><path
               style="fill:#d38d5f"
               sodipodi:nodetypes="ccccccccccccccccsccccccccscccccccccccccc"
               inkscape:connector-curvature="0"
               id="path4"
               d="m 12.649053,25.334424 24.2,-12.5 9.6,6.4 3,2 -28.4,14.6 z m 0,24.2 8.4,-10.5 28.4,14.7 -12.6,8.3 z m 38.1,42.1 -21.4,-11.3 -1.8,-10.9 -1.8,-10.4 10.7,5.5 c 0.2,0.1 0.4,0.1 0.6,0.1 0.2,0 0.5,-0.1 0.7,-0.2 l 13,-8.6 z m 25.7,-22.2 -1.9,10.9 -21.3,11.3 0,-35.8 13.1,8.6 c 0.2,0.1 0.4,0.2 0.7,0.2 0.2,0 0.4,0 0.6,-0.1 l 10.7,-5.5 z m 14.9,-19.9 -24.3,12.5 -12.6,-8.3 28.4,-14.7 z m -8.4,-13.7 -28.5,-14.6 3,-2 9.6,-6.4 24.2,12.5 z" /><path
               id="path4-4"
               d="M 68.028519,24.550902 52.287438,48.611975 36.54636,24.550902 h 0.07154 c -1.860309,-3.208144 -2.933564,-7.057915 -2.933564,-11.228499 0,-11.5493175 8.299842,-20.8529325 18.603093,-20.8529325 10.303253,0 18.603095,9.303615 18.603095,20.8529325 0,4.170584 -1.073255,8.020355 -2.933563,11.228499 h 0.07154 z M 52.287438,5.3020435 c -3.935269,0 -7.155036,3.6091611 -7.155036,8.0203595 0,4.411195 3.219767,8.020355 7.155036,8.020355 3.935272,0 7.155039,-3.60916 7.155039,-8.020355 0,-4.4111984 -3.219767,-8.0203595 -7.155039,-8.0203595 z"
               clip-rule="evenodd"
               inkscape:connector-curvature="0"
               style="fill:#ff8080;fill-rule:evenodd" /></g></g></g></g></g><flowRoot
     xml:space="preserve"
     id="flowRoot2992"
     style="fill:black;stroke:none;stroke-opacity:1;stroke-width:1px;stroke-linejoin:miter;stroke-linecap:butt;fill-opacity:1;font-family:Tlwg Typo;font-style:normal;font-weight:500;font-size:11px;line-height:125%;letter-spacing:0px;word-spacing:0px;-inkscape-font-specification:Tlwg Typo Medium;font-stretch:normal;font-variant:normal"><flowRegion
       id="flowRegion2994"><rect
         id="rect2996"
         width="11.881319"
         height="51.369232"
         x="-48.748352"
         y="17.369228"
         style="-inkscape-font-specification:Tlwg Typo Medium;font-family:Tlwg Typo;font-weight:500;font-style:normal;font-stretch:normal;font-variant:normal" /></flowRegion><flowPara
       id="flowPara2998"></flowPara></flowRoot></svg>