<?xml version="1.0" encoding="UTF-8" standalone="no"?>
<svg
   xmlns:sketch="http://www.bohemiancoding.com/sketch/ns"
   xmlns:dc="http://purl.org/dc/elements/1.1/"
   xmlns:cc="http://creativecommons.org/ns#"
   xmlns:rdf="http://www.w3.org/1999/02/22-rdf-syntax-ns#"
   xmlns:svg="http://www.w3.org/2000/svg"
   xmlns="http://www.w3.org/2000/svg"
   xmlns:sodipodi="http://sodipodi.sourceforge.net/DTD/sodipodi-0.dtd"
   xmlns:inkscape="http://www.inkscape.org/namespaces/inkscape"
   viewBox="0 0 100 125"
   version="1.1"
   x="0px"
   y="0px"
   id="svg2"
   inkscape:version="0.48.4 r9939"
   width="100%"
   height="100%"
   sodipodi:docname="leaf.svg">
  <metadata
     id="metadata20">
    <rdf:RDF>
      <cc:Work
         rdf:about="">
        <dc:format>image/svg+xml</dc:format>
        <dc:type
           rdf:resource="http://purl.org/dc/dcmitype/StillImage" />
      </cc:Work>
    </rdf:RDF>
  </metadata>
  <defs
     id="defs18" />
  <sodipodi:namedview
     pagecolor="#ffffff"
     bordercolor="#666666"
     borderopacity="1"
     objecttolerance="10"
     gridtolerance="10"
     guidetolerance="10"
     inkscape:pageopacity="0"
     inkscape:pageshadow="2"
     inkscape:window-width="1301"
     inkscape:window-height="744"
     id="namedview16"
     showgrid="false"
     inkscape:zoom="1.888"
     inkscape:cx="143.22034"
     inkscape:cy="62.5"
     inkscape:window-x="65"
     inkscape:window-y="24"
     inkscape:window-maximized="1"
     inkscape:current-layer="g8" />
  <title
     id="title4">leaf</title>
  <desc
     id="desc6">Created with Sketch.</desc>
  <g
     stroke="none"
     stroke-width="1"
     fill="none"
     fill-rule="evenodd"
     sketch:type="MSPage"
     id="g8">
    <path
       d="M77.8613824,44.6494848 C74.4694978,27.7002165 60.552844,12.9182653 45.1174081,5.32387506 L45.0787414,5.30448482 C44.5281132,5.03485067 43.8875106,4.93094823 43.2357542,5.04692384 C41.6281132,5.33338726 40.5610619,6.8472897 40.8518055,8.42924091 C42.5226517,17.5221677 37.0219465,27.1287531 32.4187542,34.6093629 C27.3578824,42.8337531 21.4400235,51.7598507 23.8470235,61.8230214 C25.2806645,67.8175336 29.4514593,72.8242409 34.6707158,76.0858263 L34.7045491,76.1066799 L35.4830876,76.566558 C35.5046517,76.5793629 35.5291901,76.5928995 35.5514978,76.6057043 C35.5355106,76.596558 30.0946645,81.618997 29.5280491,82.0503385 C27.3734978,83.6897287 24.6883952,84.7744848 22.6665747,86.5104604 C20.3528952,88.4970458 20.4279978,92.1577775 23.0186645,93.9288751 C26.0911773,96.0292409 28.8580747,93.9468019 30.7092414,91.4937531 C33.8813952,87.2893629 37.1412927,83.1394848 40.0818183,78.7730214 C40.6231517,78.421436 44.0455235,79.9126555 44.704344,80.1025336 C47.2102414,80.8247287 49.8377158,81.0786312 52.4466004,81.0478995 C58.5436645,80.9769238 64.551126,79.0155824 69.236485,75.1243629 C78.1971132,67.6828995 80.024485,55.4578995 77.8613824,44.6494848 L77.8613824,44.6494848 Z M73.1581773,58.9122897 C72.571485,62.1559482 71.407767,65.2799726 69.4714593,67.9978995 C63.5272029,76.3393629 52.4666773,78.4144848 42.9966901,75.4536312 C42.7977799,75.3918019 42.6003568,75.3248507 42.4033055,75.2582653 C42.8702799,74.5221677 43.3372542,73.7736312 43.8023696,73.0060702 C44.9642286,71.1204604 46.0245876,69.0892409 47.0570619,67.0122897 C47.0589209,67.0086312 47.0607799,67.0053385 47.062267,67.0016799 L64.8656645,61.6046068 C65.4419465,61.4300946 65.8286132,60.8710702 65.7561132,60.2608263 C65.6746901,59.5730214 65.0418952,59.0805824 64.3429209,59.1607043 L49.6994081,60.8363141 C49.7373311,60.7397287 49.7741388,60.6424116 49.8124337,60.5458263 L50.382767,58.8749726 C51.3204337,56.0988751 51.3747158,52.1209482 53.8698311,50.259119 C57.3349593,47.6732653 60.7952542,45.081558 64.2369593,42.4678995 L65.0593696,41.8258263 L65.4757799,41.493997 L65.6943952,41.3154604 L65.8211773,41.2093629 L65.912267,41.1307043 L66.0044722,41.0454604 L66.0561517,40.9913141 L66.0806901,40.9635092 C66.0911004,40.9521677 66.1375747,40.8947287 66.160626,40.8588751 C66.1885106,40.8171677 66.2141645,40.7736312 66.2361004,40.7293629 C66.178844,40.7644848 66.4338952,40.6221677 66.2907542,39.9069238 C65.9944337,39.249119 65.5453055,39.231558 65.6996004,39.2655824 L65.3884081,39.2125336 C65.0720106,39.1587531 64.7526388,39.2509482 64.5135747,39.4496068 C64.5176645,39.444119 64.5109722,39.4466799 64.5024209,39.4499726 L64.4191388,39.4902165 L64.2098183,39.5930214 L63.7599465,39.8085092 L62.8364081,40.2405824 L60.967767,41.0959482 L57.2085491,42.7898507 L53.3359337,44.5126555 C53.3504337,44.3150946 53.3649337,44.1175336 53.3723696,43.9207043 C53.4062029,43.3916799 53.4396645,42.8685092 53.4723824,42.351558 C53.5129081,41.8349726 53.4928311,41.3227775 53.505844,40.8182653 C53.5586388,35.2642409 52.8689593,29.716436 51.473985,24.3336312 C51.2215363,23.3600946 50.7463824,22.2105824 49.7336132,22.081436 C48.8357286,21.9672897 48.0553311,22.8186312 47.9114465,23.6977775 C47.7671901,24.5772897 48.0761517,25.4593629 48.3557414,26.3066799 C50.2979978,32.1947287 50.991767,38.4786312 50.3797927,44.6399726 C50.4221773,44.2155824 46.5785619,41.9150946 46.0416901,41.5668019 C44.9463824,40.8566799 42.3233696,38.7844848 41.1908824,40.4213141 C40.5636645,41.3278995 41.3641388,42.5085092 42.123344,43.3119238 C44.249267,45.5611921 46.3759337,47.8104604 48.5026004,50.0593629 C48.7658311,50.3374116 49.036126,50.6271677 49.1610491,50.9871677 C49.6793311,52.4798507 45.786267,59.9959482 46.2361388,60.3482653 C43.0491132,57.8535092 39.8606004,55.3609482 36.669485,52.8709482 C35.5332799,51.984119 33.5289337,52.0433873 34.0167286,53.976558 C34.1784593,54.6168019 34.6298183,55.1418019 35.0677927,55.641558 C37.9332158,58.9119238 40.7990106,62.1819238 43.6644337,65.4519238 C42.1118183,68.2627775 40.2970876,70.9335092 38.2511004,73.4198507 C33.2080747,70.4944848 28.9956388,65.7007043 28.1103952,60.006558 C27.5240747,56.236436 28.4223311,52.3631434 29.9649081,48.864119 C31.507485,45.3654604 33.6743055,42.1744848 35.7637927,38.9626555 C40.9440106,30.9998507 45.8234465,22.4769238 46.9124337,13.0832653 C46.875626,13.389119 51.2828824,16.0046068 51.8398311,16.4147287 C53.4039722,17.5668019 54.924985,18.7759482 56.3917158,20.0461921 C59.3132799,22.576436 62.0270106,25.3492409 64.407985,28.3818019 C69.1532029,34.4260702 72.4967542,41.5357043 73.3864593,49.1670458 C73.4782927,49.9543629 73.544844,50.7446068 73.5861132,51.5359482 C73.713267,53.9809482 73.5980106,56.4800946 73.1581773,58.9122897 L73.1581773,58.9122897 Z M64.650767,41.154119 C64.696126,41.1811921 64.7411132,41.2086312 64.7916773,41.2294848 L64.7953952,41.2309482 C64.8809081,41.2496068 64.7939081,41.2510702 64.650767,41.154119 L64.650767,41.154119 Z M35.244767,55.0459482 C35.2161388,55.0430214 35.1875106,55.0408263 35.1585106,55.0360702 C35.1309978,55.0316799 35.1038568,55.0243629 35.0767158,55.0181434 C35.132485,55.0313141 35.188626,55.038997 35.244767,55.0459482 L35.244767,55.0459482 Z M35.0265235,55.0068019 C35.0216901,55.0057043 35.0168568,55.0049726 35.0123952,55.0038751 C34.9700106,54.9928995 34.900485,54.9680214 34.9038311,54.969119 C34.8554978,54.9511921 34.8079081,54.9303385 34.7621773,54.9069238 C34.8484337,54.9497287 34.9369209,54.9819238 35.0265235,55.0068019 L35.0265235,55.0068019 Z"
       fill="#000000"
       sketch:type="MSShapeGroup"
       id="path10"
       style="fill:#008000" />
  </g>
</svg>
