<?xml version="1.0" encoding="UTF-8" standalone="no"?>
<!-- Generator: Adobe Illustrator 16.0.0, SVG Export Plug-In . SVG Version: 6.00 Build 0)  -->

<svg
   xmlns:dc="http://purl.org/dc/elements/1.1/"
   xmlns:cc="http://creativecommons.org/ns#"
   xmlns:rdf="http://www.w3.org/1999/02/22-rdf-syntax-ns#"
   xmlns:svg="http://www.w3.org/2000/svg"
   xmlns="http://www.w3.org/2000/svg"
   xmlns:sodipodi="http://sodipodi.sourceforge.net/DTD/sodipodi-0.dtd"
   xmlns:inkscape="http://www.inkscape.org/namespaces/inkscape"
   version="1.1"
   id="Layer_1"
   x="0px"
   y="0px"
   width="841.89px"
   height="1190.55px"
   viewBox="0 0 841.89 1190.55"
   enable-background="new 0 0 841.89 1190.55"
   xml:space="preserve"
   inkscape:version="0.48.4 r9939"
   sodipodi:docname="logo-black.svg"
   inkscape:export-filename="/home/emmanuel/code/emmanuelrdl/laboxduchef/app/assets/images/logo-black.png"
   inkscape:export-xdpi="92"
   inkscape:export-ydpi="92"><metadata
     id="metadata225"><rdf:RDF><cc:Work
         rdf:about=""><dc:format>image/svg+xml</dc:format><dc:type
           rdf:resource="http://purl.org/dc/dcmitype/StillImage" /><dc:title></dc:title></cc:Work></rdf:RDF></metadata><defs
     id="defs223" /><sodipodi:namedview
     pagecolor="#ffffff"
     bordercolor="#666666"
     borderopacity="1"
     objecttolerance="10"
     gridtolerance="10"
     guidetolerance="10"
     inkscape:pageopacity="0"
     inkscape:pageshadow="2"
     inkscape:window-width="640"
     inkscape:window-height="480"
     id="namedview221"
     showgrid="false"
     inkscape:zoom="0.1982277"
     inkscape:cx="420.94501"
     inkscape:cy="595.275"
     inkscape:window-x="75"
     inkscape:window-y="34"
     inkscape:window-maximized="0"
     inkscape:current-layer="Layer_1" /><g
     id="g3"
     transform="matrix(1.9496595,0,0,3.3557415,-390.92822,-999.89556)"><g
       id="g5"><path
         d="m 432.374,465.75 c 0,0 -0.25,0.207 -0.808,0.48 -0.279,0.131 -0.625,0.294 -1.057,0.433 -0.219,0.068 -0.445,0.134 -0.725,0.188 -0.239,0.039 -0.527,0.08 -0.837,0.086 -1.249,0.083 -2.713,-0.567 -4.042,-1.379 -0.727,-0.437 -1.427,-0.943 -2.12,-1.549 -0.718,-0.601 -1.363,-1.278 -2.049,-1.946 -1.397,-1.343 -2.782,-2.957 -4.323,-4.527 -0.374,-0.387 -0.785,-0.835 -1.145,-1.188 -0.395,-0.394 -0.794,-0.792 -1.198,-1.194 -0.474,-0.473 -0.672,-0.63 -1.212,-1.042 -0.253,-0.207 -0.429,-0.286 -0.631,-0.422 -0.2,-0.124 -0.44,-0.234 -0.66,-0.349 -0.899,-0.397 -1.915,-0.602 -2.805,-0.469 l -0.462,0.066 -0.299,0.089 c -0.179,0.028 -0.427,0.152 -0.647,0.228 -0.443,0.208 -0.879,0.46 -1.274,0.794 -0.792,0.643 -1.478,1.533 -2.061,2.556 -0.536,0.942 -0.979,2.086 -1.331,3.208 -0.693,2.279 -0.966,4.734 -1.002,7.176 -0.016,0.556 -0.004,1.257 -0.003,1.844 0.005,0.596 0.026,1.189 0.067,1.779 0.083,1.129 0.248,2.405 0.461,3.467 0.479,2.239 1.153,4.366 2.16,6.229 0.99,1.869 2.123,3.479 3.41,4.877 1.258,1.352 2.559,2.502 3.803,3.409 0.604,0.434 1.244,0.864 1.783,1.197 0.592,0.363 1.127,0.604 1.626,0.821 1.028,0.404 1.885,0.629 2.472,0.759 0.59,0.128 0.911,0.163 0.911,0.163 0,0 -0.323,0.017 -0.931,-0.015 -0.604,-0.042 -1.503,-0.103 -2.623,-0.381 -0.564,-0.158 -1.197,-0.354 -1.808,-0.626 -0.668,-0.285 -1.303,-0.589 -2.028,-0.987 -1.406,-0.766 -2.921,-1.797 -4.412,-3.156 -1.459,-1.313 -2.946,-3.012 -4.135,-4.995 -1.217,-1.964 -2.184,-4.261 -2.78,-6.723 -0.308,-1.294 -0.501,-2.449 -0.661,-3.792 -0.07,-0.647 -0.121,-1.3 -0.153,-1.96 -0.033,-0.668 -0.054,-1.229 -0.045,-1.939 0.007,-2.617 0.255,-5.339 1.024,-8.002 0.393,-1.339 0.918,-2.598 1.658,-3.88 0.193,-0.335 0.387,-0.648 0.566,-0.888 l 0.274,-0.393 c 0.15,-0.204 0.241,-0.303 0.365,-0.458 0.225,-0.29 0.471,-0.564 0.742,-0.821 0.252,-0.271 0.542,-0.51 0.836,-0.744 0.583,-0.472 1.247,-0.858 1.946,-1.168 0.371,-0.131 0.691,-0.284 1.129,-0.373 0.202,-0.048 0.426,-0.098 0.61,-0.128 l 0.464,-0.048 c 1.589,-0.158 3.052,0.244 4.325,0.865 0.31,0.173 0.61,0.33 0.912,0.531 0.29,0.203 0.63,0.426 0.828,0.605 0.396,0.312 1.081,0.936 1.403,1.309 0.443,0.465 0.779,0.876 1.167,1.31 0.419,0.474 0.738,0.877 1.105,1.31 1.446,1.694 2.702,3.329 3.947,4.802 0.632,0.743 1.206,1.46 1.785,2.05 0.579,0.607 1.179,1.159 1.744,1.61 1.229,0.97 2.307,1.594 3.347,1.719 1.062,0.117 1.91,-0.042 2.508,-0.153 0.589,-0.125 0.889,-0.265 0.889,-0.265 z"
         id="path7"
         inkscape:connector-curvature="0"
         style="fill:#12100b" /></g></g><g
     id="g9"
     transform="matrix(1.9496595,0,0,3.3557415,-390.92822,-999.89556)"><g
       id="g11"><path
         d="m 440.395,491.937 c 0,0 0.182,-0.185 0.522,-0.531 0.323,-0.358 0.877,-0.83 1.439,-1.524 0.552,-0.707 1.247,-1.497 1.892,-2.559 0.336,-0.514 0.71,-1.045 1.006,-1.672 0.302,-0.62 0.705,-1.216 0.989,-1.915 0.287,-0.696 0.63,-1.397 0.903,-2.156 0.244,-0.772 0.562,-1.541 0.801,-2.361 0.202,-0.833 0.469,-1.668 0.635,-2.547 0.125,-0.888 0.387,-1.767 0.458,-2.691 0.092,-0.92 0.24,-1.85 0.226,-2.798 0.012,-0.472 0.023,-0.947 0.035,-1.425 -0.024,-0.474 -0.049,-0.951 -0.073,-1.429 -0.002,-0.964 -0.206,-1.901 -0.334,-2.853 -0.05,-0.481 -0.229,-0.925 -0.334,-1.39 -0.142,-0.452 -0.2,-0.94 -0.407,-1.363 l -0.507,-1.317 c -0.144,-0.454 -0.432,-0.821 -0.637,-1.237 -0.393,-0.854 -1.023,-1.515 -1.561,-2.243 l -0.052,-0.067 -0.025,-0.034 -0.014,-0.017 c 0.127,0.125 0.025,0.025 0.049,0.049 l -0.137,-0.131 -0.275,-0.261 -0.547,-0.521 c -0.178,-0.167 -0.359,-0.372 -0.534,-0.508 l -0.516,-0.388 c -0.641,-0.552 -1.45,-0.986 -2.21,-1.444 -1.599,-0.781 -3.256,-1.34 -4.895,-1.675 -1.646,-0.262 -3.244,-0.39 -4.727,-0.321 -1.474,0.097 -2.842,0.27 -4.012,0.595 -0.294,0.08 -0.579,0.157 -0.854,0.231 -0.268,0.097 -0.524,0.191 -0.771,0.281 -0.512,0.156 -0.934,0.39 -1.334,0.578 -0.412,0.175 -0.719,0.416 -1.019,0.591 -0.147,0.093 -0.283,0.179 -0.408,0.258 -0.11,0.096 -0.211,0.183 -0.301,0.261 -0.365,0.318 -0.561,0.487 -0.561,0.487 0,0 0.154,-0.209 0.443,-0.601 0.074,-0.099 0.156,-0.21 0.247,-0.333 0.107,-0.106 0.224,-0.223 0.35,-0.349 0.258,-0.247 0.54,-0.565 0.927,-0.818 0.375,-0.27 0.782,-0.6 1.278,-0.858 0.245,-0.139 0.501,-0.283 0.766,-0.433 0.277,-0.123 0.564,-0.25 0.861,-0.38 1.189,-0.538 2.611,-0.948 4.201,-1.223 1.592,-0.271 3.357,-0.346 5.226,-0.184 1.86,0.215 3.823,0.666 5.733,1.516 0.924,0.486 1.876,0.933 2.792,1.631 l 0.694,0.49 c 0.225,0.165 0.385,0.332 0.581,0.499 l 0.557,0.511 0.278,0.256 0.141,0.128 0.082,0.082 0.018,0.021 0.033,0.041 0.066,0.081 c 0.698,0.876 1.48,1.72 1.982,2.73 0.262,0.496 0.609,0.961 0.795,1.488 l 0.626,1.557 c 0.229,0.516 0.297,1.067 0.451,1.599 0.116,0.539 0.304,1.068 0.355,1.611 0.135,1.082 0.335,2.158 0.325,3.229 0.016,0.534 0.03,1.067 0.045,1.597 -0.039,0.526 -0.078,1.049 -0.116,1.569 -0.042,1.044 -0.249,2.051 -0.403,3.046 -0.141,0.998 -0.44,1.945 -0.674,2.881 -0.26,0.929 -0.619,1.807 -0.912,2.673 -0.337,0.853 -0.724,1.659 -1.082,2.439 -0.385,0.769 -0.835,1.475 -1.224,2.167 -0.858,1.342 -1.703,2.534 -2.599,3.468 -0.81,0.995 -1.724,1.703 -2.406,2.309 -0.333,0.32 -0.683,0.521 -0.978,0.715 -0.295,0.192 -0.546,0.355 -0.75,0.487 -0.403,0.263 -0.619,0.405 -0.619,0.405 z"
         id="path13"
         inkscape:connector-curvature="0"
         style="fill:#12100b" /></g></g><path
     stroke-miterlimit="10"
     d="m 474.02262,651.73671 c 0,0 -3.03758,3.65775 -4.36528,4.69132 -2.53262,1.96981 -10.34687,9.10077 -29.05775,9.10077 -18.69137,0 -25.81739,-5.87254 -28.17451,-8.00009 -0.8988,-0.80538 -3.86424,-4.15776 -5.11201,-5.44636 l 0.14239,73.81624 c 0,10.41622 17.54303,17.67469 33.28459,17.67469 15.74155,0 33.28263,-7.25847 33.28263,-17.67469 v -66.36986 -7.79202 z m -3.77845,73.54441 c 0,2.83897 -10.78941,11.77867 -29.50615,11.77867 -18.71477,0 -29.50419,-8.9397 -29.50419,-11.78537 l -0.12679,-64.14164 c 6.01471,5.9363 18.21958,9.66118 29.49055,9.66118 11.37626,0 23.68837,-3.792 29.64652,-9.82226 v 64.30942 z"
     id="path15"
     inkscape:connector-curvature="0"
     style="stroke:#12100b;stroke-width:0.63946033;stroke-miterlimit:10" /><g
     id="g17"
     transform="matrix(1.9496595,0,0,3.3557415,-390.92822,-999.89556)"><path
       d="m 416.362,504.166 c 0,0 0.335,0.789 0.571,1.972 0.266,1.184 0.425,2.761 0.429,4.339 -0.001,1.578 -0.159,3.155 -0.426,4.339 -0.237,1.183 -0.574,1.972 -0.574,1.972 0,0 -0.337,-0.789 -0.574,-1.972 -0.267,-1.184 -0.425,-2.761 -0.426,-4.339 0.004,-1.578 0.163,-3.155 0.429,-4.339 0.236,-1.183 0.571,-1.972 0.571,-1.972 z"
       id="path19"
       inkscape:connector-curvature="0"
       style="fill:#12100b" /></g><g
     id="g21"
     transform="matrix(1.9496595,0,0,3.3557415,-390.92822,-999.89556)"><path
       d="m 426.533,505.864 c 0,0 0.334,0.789 0.571,1.972 0.266,1.183 0.425,2.761 0.429,4.339 -0.002,1.578 -0.158,3.156 -0.426,4.339 -0.238,1.183 -0.574,1.972 -0.574,1.972 0,0 -0.336,-0.789 -0.574,-1.972 -0.268,-1.183 -0.424,-2.761 -0.426,-4.339 0.004,-1.578 0.163,-3.156 0.429,-4.339 0.237,-1.183 0.571,-1.972 0.571,-1.972 z"
       id="path23"
       inkscape:connector-curvature="0"
       style="fill:#12100b" /></g><g
     id="g25"
     transform="matrix(1.9496595,0,0,3.3557415,-390.92822,-999.89556)"><path
       d="m 436.521,504.166 c 0,0 0.334,0.789 0.571,1.972 0.266,1.184 0.425,2.761 0.429,4.339 -0.002,1.578 -0.158,3.155 -0.426,4.339 -0.238,1.183 -0.574,1.972 -0.574,1.972 0,0 -0.336,-0.789 -0.574,-1.972 -0.268,-1.184 -0.424,-2.761 -0.426,-4.339 0.004,-1.578 0.163,-3.155 0.429,-4.339 0.238,-1.183 0.571,-1.972 0.571,-1.972 z"
       id="path27"
       inkscape:connector-curvature="0"
       style="fill:#12100b" /></g><g
     id="g29"
     transform="matrix(1.9496595,0,0,3.3557415,-390.92822,-999.89556)"><path
       d="m 427.306,424.309 c 0,0 0.335,0.789 0.571,1.972 0.266,1.183 0.425,2.761 0.429,4.338 -10e-4,1.578 -0.159,3.155 -0.426,4.338 -0.237,1.183 -0.574,1.972 -0.574,1.972 0,0 -0.337,-0.789 -0.574,-1.972 -0.267,-1.183 -0.425,-2.761 -0.426,-4.338 0.004,-1.578 0.163,-3.155 0.429,-4.338 0.236,-1.183 0.571,-1.972 0.571,-1.972 z"
       id="path31"
       inkscape:connector-curvature="0"
       style="fill:#12100b" /></g><g
     id="g33"
     transform="matrix(1.9496595,0,0,3.3557415,-390.92822,-999.89556)"><path
       d="m 395.497,436.45 c 0,0 0.756,0.265 1.706,0.853 0.969,0.567 2.127,1.464 3.176,2.472 1.046,1.012 1.983,2.136 2.582,3.086 0.621,0.929 0.91,1.677 0.91,1.677 0,0 -0.757,-0.264 -1.707,-0.851 -0.971,-0.566 -2.127,-1.464 -3.175,-2.474 -1.044,-1.014 -1.98,-2.139 -2.581,-3.088 -0.62,-0.929 -0.911,-1.675 -0.911,-1.675 z"
       id="path35"
       inkscape:connector-curvature="0"
       style="fill:#12100b" /></g><g
     id="g37"
     transform="matrix(1.9496595,0,0,3.3557415,-390.92822,-999.89556)"><path
       d="m 458.235,435.913 c 0,0 -0.21,0.785 -0.73,1.793 -0.497,1.027 -1.312,2.273 -2.247,3.42 -0.939,1.145 -1.999,2.19 -2.909,2.879 -0.887,0.708 -1.616,1.067 -1.616,1.067 0,0 0.209,-0.786 0.729,-1.795 0.496,-1.028 1.312,-2.273 2.25,-3.418 0.939,-1.143 2.001,-2.188 2.91,-2.878 0.886,-0.708 1.613,-1.068 1.613,-1.068 z"
       id="path39"
       inkscape:connector-curvature="0"
       style="fill:#12100b" /></g><g
     id="g41"
     transform="matrix(1.9496595,0,0,3.3557415,-390.92822,-999.89556)"><g
       id="g43"><path
         stroke-miterlimit="10"
         d="m 214.477,572.521 v -0.481 -34.499 h 0.473 0.472 v 34.065 h 12.046 v 0.434 0.481 h -12.991 z"
         id="path45"
         inkscape:connector-curvature="0"
         style="stroke:#000000;stroke-miterlimit:10" /><path
         stroke-miterlimit="10"
         d="M 227.938,573.022 H 214.01 v -35.983 h 1.879 v 34.064 h 12.049 v 1.919 z m -12.996,-1.002 h 0.011 l -0.011,-33.979 v 33.979 z"
         id="path47"
         inkscape:connector-curvature="0"
         style="fill:#010202;stroke:#000000;stroke-miterlimit:10" /></g><g
       id="g49"><path
         stroke-miterlimit="10"
         d="m 253.445,572.521 h -0.992 l -2.021,-10.539 h -7.818 l -2.112,10.539 h -0.987 l 6.605,-34.98 h 0.765 l 6.56,34.98 z m -3.277,-11.549 -3.648,-20.786 -3.774,20.786 h 7.422 z m -3.826,-23.431 h 0.045 0.09 0.043 0.047 0.092 -0.317 z"
         id="path51"
         inkscape:connector-curvature="0"
         style="stroke:#000000;stroke-miterlimit:10" /><path
         stroke-miterlimit="10"
         d="m 254.017,573.022 h -1.944 l -2.021,-10.54 h -7.064 l -2.107,10.54 h -1.94 l 6.797,-35.983 h 1.533 l 0.07,0.403 6.676,35.58 z m -1.185,-1.002 h 0.045 l -4.521,-24.076 2.371,13.528 h -8.551 l 2.57,-14.144 -4.668,24.691 h 0.045 l 2.107,-10.539 h 8.583 l 2.019,10.54 z m -9.52,-11.549 h 6.291 l -3.09,-17.615 -3.201,17.615 z"
         id="path53"
         inkscape:connector-curvature="0"
         style="fill:#010202;stroke:#000000;stroke-miterlimit:10" /></g><g
       id="g55"><path
         stroke-miterlimit="10"
         d="m 301.939,540.041 c 1.107,1.765 1.644,3.739 1.617,5.92 0,1.025 -0.109,1.979 -0.335,2.863 -0.227,0.883 -0.526,1.666 -0.901,2.356 -0.374,0.69 -0.804,1.259 -1.281,1.71 -0.479,0.447 -0.988,0.768 -1.531,0.959 0.635,0.098 1.314,0.37 2.051,0.819 0.73,0.449 1.309,0.994 1.729,1.636 0.6,0.932 1.049,1.965 1.346,3.104 0.303,1.139 0.451,2.335 0.451,3.585 0,2.085 -0.277,3.751 -0.828,5.003 -0.561,1.25 -1.247,2.213 -2.07,2.888 -0.826,0.675 -1.729,1.124 -2.697,1.348 -0.974,0.225 -1.91,0.337 -2.811,0.337 h -4.625 -0.541 V 537.49 h 5.663 c 1.288,0 2.278,0.227 2.968,0.674 0.688,0.451 1.286,1.074 1.795,1.877 z m -9.482,13.377 h 5.075 c 0.749,0 1.44,-0.203 2.07,-0.603 0.626,-0.403 1.171,-0.95 1.617,-1.642 0.448,-0.692 0.791,-1.49 1.033,-2.391 0.242,-0.899 0.362,-1.85 0.362,-2.849 0,-0.995 -0.131,-1.946 -0.386,-2.847 -0.254,-0.899 -0.606,-1.689 -1.054,-2.363 -0.45,-0.678 -0.977,-1.217 -1.573,-1.617 -0.601,-0.404 -1.263,-0.605 -1.983,-0.605 h -5.162 v 14.917 z m 4.221,18.141 c 1.471,0 2.688,-0.234 3.664,-0.698 0.975,-0.466 1.746,-1.091 2.318,-1.877 0.568,-0.786 0.962,-1.7 1.188,-2.743 0.227,-1.042 0.32,-2.124 0.291,-3.247 -0.059,-2.951 -0.682,-5.116 -1.863,-6.495 -1.186,-1.38 -3.045,-2.069 -5.598,-2.069 h -4.221 v 17.13 h 4.221 z"
         id="path57"
         inkscape:connector-curvature="0"
         style="stroke:#000000;stroke-miterlimit:10" /><path
         stroke-miterlimit="10"
         d="m 296.678,573.069 h -5.635 V 536.99 h 6.132 c 1.385,0 2.437,0.244 3.208,0.746 0.75,0.488 1.399,1.17 1.944,2.024 1.155,1.842 1.728,3.929 1.695,6.206 0,1.069 -0.116,2.077 -0.352,2.988 -0.233,0.919 -0.553,1.754 -0.95,2.478 -0.39,0.726 -0.853,1.346 -1.375,1.831 -0.174,0.168 -0.357,0.319 -0.546,0.454 0.316,0.135 0.649,0.308 0.988,0.517 0.791,0.482 1.423,1.084 1.883,1.781 0.626,0.981 1.103,2.076 1.413,3.26 0.311,1.174 0.469,2.426 0.469,3.718 0,2.146 -0.297,3.903 -0.875,5.217 -0.588,1.321 -1.334,2.354 -2.205,3.072 -0.881,0.718 -1.854,1.201 -2.887,1.439 -0.997,0.231 -1.972,0.348 -2.907,0.348 z m -4.699,-1.002 h 4.699 c 0.31,0 0.621,-0.015 0.941,-0.042 -0.303,0.021 -0.613,0.034 -0.941,0.034 h -4.691 v -18.134 h 4.691 c 0.352,0 0.688,0.015 1.016,0.041 l 0.166,-0.06 c -0.107,0.008 -0.217,0.013 -0.327,0.013 h -5.546 v -15.921 h 5.578 c -0.125,-0.005 -0.258,-0.007 -0.39,-0.007 h -5.196 v 34.076 z m 10.383,-2.005 c -0.513,0.499 -1.123,0.92 -1.827,1.259 -0.403,0.188 -0.843,0.343 -1.32,0.461 0.058,-0.014 0.116,-0.026 0.174,-0.039 0.898,-0.207 1.744,-0.629 2.512,-1.257 0.159,-0.129 0.314,-0.271 0.461,-0.424 z m -9.44,0.996 h 3.756 c 1.395,0 2.561,-0.221 3.477,-0.655 0.897,-0.431 1.617,-1.01 2.135,-1.728 0.529,-0.729 0.896,-1.583 1.104,-2.548 0.217,-0.986 0.31,-2.034 0.278,-3.121 -0.056,-2.816 -0.64,-4.889 -1.741,-6.169 -1.088,-1.265 -2.854,-1.908 -5.252,-1.908 h -3.756 v 16.129 z m 11.511,-10.337 c 0.103,0.701 0.161,1.453 0.177,2.262 0.004,0.109 0.004,0.222 0.004,0.333 0,-0.108 0,-0.216 0,-0.322 -10e-4,-0.779 -0.059,-1.537 -0.181,-2.273 z m -11.511,-7.803 h 4.61 c 0.659,0 1.276,-0.18 1.828,-0.533 0.574,-0.367 1.067,-0.87 1.476,-1.496 0.413,-0.643 0.739,-1.395 0.965,-2.244 0.229,-0.842 0.343,-1.754 0.343,-2.71 0,-0.938 -0.122,-1.849 -0.361,-2.702 -0.239,-0.848 -0.575,-1.593 -0.989,-2.218 -0.412,-0.623 -0.894,-1.12 -1.443,-1.483 -0.525,-0.357 -1.09,-0.529 -1.73,-0.529 h -4.697 v 13.915 z m 5.537,-14.832 c 0.494,0.104 0.959,0.305 1.389,0.595 0.652,0.435 1.224,1.025 1.707,1.753 0.475,0.712 0.85,1.557 1.121,2.51 0.271,0.949 0.403,1.953 0.403,2.991 0,1.05 -0.129,2.055 -0.378,2.989 -0.062,0.23 -0.133,0.457 -0.206,0.676 0.104,-0.289 0.193,-0.592 0.271,-0.906 0.216,-0.831 0.319,-1.748 0.319,-2.732 0.032,-2.077 -0.487,-3.971 -1.534,-5.639 -0.468,-0.734 -1.023,-1.317 -1.652,-1.73 -0.372,-0.239 -0.848,-0.409 -1.44,-0.507 z"
         id="path59"
         inkscape:connector-curvature="0"
         style="fill:#010202;stroke:#000000;stroke-miterlimit:10" /></g><g
       id="g61"><path
         stroke-miterlimit="10"
         d="m 331.372,564.965 c 0,0.098 0,0.355 0,0.771 0,0.416 -0.058,0.92 -0.174,1.516 -0.122,0.594 -0.31,1.227 -0.562,1.899 -0.259,0.673 -0.637,1.3 -1.15,1.877 -0.6,0.644 -1.445,1.131 -2.537,1.466 -1.092,0.337 -2.15,0.505 -3.167,0.505 -1.024,0 -2.07,-0.168 -3.146,-0.505 -1.081,-0.335 -1.908,-0.822 -2.477,-1.466 -0.506,-0.577 -0.891,-1.219 -1.145,-1.924 -0.254,-0.707 -0.424,-1.372 -0.518,-1.997 -0.088,-0.627 -0.133,-1.164 -0.133,-1.611 0,-0.449 0,-0.724 0,-0.818 v -19.729 c 0,-1.283 0.172,-2.43 0.518,-3.44 0.345,-1.011 0.887,-1.868 1.64,-2.575 0.298,-0.287 0.665,-0.543 1.101,-0.77 0.433,-0.223 0.892,-0.408 1.369,-0.552 0.484,-0.145 0.959,-0.255 1.437,-0.337 0.484,-0.08 0.933,-0.121 1.354,-0.121 0.387,0 0.829,0.033 1.323,0.097 0.49,0.063 0.991,0.167 1.482,0.312 0.497,0.146 0.959,0.321 1.395,0.529 0.437,0.208 0.805,0.457 1.104,0.745 1.527,1.445 2.286,3.482 2.286,6.111 v 20.017 z m -0.942,-20.016 c 0,-1.122 -0.143,-2.084 -0.423,-2.887 -0.284,-0.801 -0.649,-1.475 -1.102,-2.021 -0.299,-0.32 -0.668,-0.601 -1.097,-0.84 -0.436,-0.24 -0.889,-0.441 -1.354,-0.604 -0.465,-0.159 -0.936,-0.271 -1.418,-0.335 -0.478,-0.064 -0.896,-0.098 -1.255,-0.098 -0.692,0 -1.415,0.09 -2.183,0.265 -0.762,0.179 -1.46,0.515 -2.09,1.012 -0.632,0.497 -1.146,1.187 -1.547,2.068 -0.406,0.883 -0.606,2.03 -0.606,3.44 v 19.775 c -0.031,0.802 0,1.492 0.084,2.069 0.094,0.579 0.246,1.187 0.452,1.829 0.207,0.642 0.543,1.219 0.985,1.732 0.483,0.545 1.204,0.954 2.162,1.227 0.956,0.273 1.873,0.409 2.742,0.409 0.448,0 0.916,-0.032 1.394,-0.098 0.479,-0.064 0.95,-0.167 1.412,-0.312 0.469,-0.143 0.895,-0.321 1.284,-0.528 0.385,-0.209 0.702,-0.458 0.94,-0.747 0.452,-0.512 0.781,-1.074 0.991,-1.684 0.212,-0.61 0.361,-1.178 0.448,-1.71 0.09,-0.528 0.136,-1.159 0.136,-1.899 l 0.045,-20.063 z"
         id="path63"
         inkscape:connector-curvature="0"
         style="stroke:#000000;stroke-miterlimit:10" /><path
         stroke-miterlimit="10"
         d="m 323.782,573.502 c -1.06,0 -2.163,-0.177 -3.277,-0.524 -1.159,-0.362 -2.063,-0.903 -2.68,-1.603 -0.549,-0.617 -0.966,-1.321 -1.243,-2.089 -0.266,-0.739 -0.449,-1.444 -0.543,-2.101 -0.097,-0.678 -0.145,-1.23 -0.145,-1.689 v -20.547 c 0,-1.34 0.184,-2.557 0.549,-3.613 0.371,-1.085 0.968,-2.02 1.766,-2.777 0.336,-0.317 0.74,-0.602 1.211,-0.846 0.465,-0.239 0.959,-0.436 1.453,-0.584 0.484,-0.146 0.984,-0.264 1.488,-0.348 0.965,-0.16 1.697,-0.168 2.799,-0.029 0.523,0.068 1.043,0.179 1.553,0.328 0.514,0.15 1.008,0.336 1.463,0.555 0.482,0.232 0.893,0.514 1.221,0.829 1.624,1.534 2.447,3.717 2.447,6.485 v 20.787 c 0,0.453 -0.062,1.002 -0.189,1.62 -0.123,0.617 -0.323,1.282 -0.582,1.98 -0.281,0.739 -0.701,1.423 -1.246,2.038 -0.662,0.708 -1.582,1.243 -2.748,1.603 -1.134,0.348 -2.241,0.525 -3.297,0.525 z m -2.341,-1.3 c 1.146,0.286 2.221,0.368 3.342,0.241 -1.098,0.111 -2.183,0.035 -3.342,-0.241 z m 2.341,-33.536 c -0.656,0 -1.337,0.082 -2.079,0.252 -0.701,0.163 -1.344,0.475 -1.915,0.927 -0.565,0.446 -1.04,1.079 -1.408,1.884 -0.371,0.808 -0.555,1.891 -0.555,3.221 v 19.775 c -0.032,0.768 -0.004,1.43 0.077,1.988 0.087,0.543 0.232,1.133 0.433,1.746 0.184,0.564 0.485,1.089 0.888,1.556 0.417,0.471 1.066,0.837 1.934,1.084 1.389,0.395 2.635,0.474 3.959,0.298 0.459,-0.062 0.91,-0.16 1.343,-0.297 0.434,-0.133 0.837,-0.301 1.205,-0.495 0.333,-0.179 0.601,-0.39 0.8,-0.631 0.414,-0.471 0.714,-0.979 0.902,-1.522 0.199,-0.58 0.341,-1.125 0.426,-1.627 0.084,-0.49 0.129,-1.098 0.129,-1.811 l 0.045,-20.066 c 0,-1.051 -0.133,-1.963 -0.396,-2.709 -0.263,-0.739 -0.602,-1.369 -1.015,-1.866 -0.241,-0.255 -0.571,-0.509 -0.962,-0.728 -0.404,-0.223 -0.833,-0.415 -1.281,-0.572 -0.443,-0.148 -0.886,-0.257 -1.327,-0.314 -0.461,-0.06 -0.861,-0.093 -1.203,-0.093 z m -3.875,-0.092 c -0.025,0.013 -0.056,0.029 -0.083,0.041 -0.389,0.202 -0.725,0.437 -0.992,0.693 -0.684,0.647 -1.194,1.444 -1.507,2.371 -0.33,0.949 -0.494,2.047 -0.494,3.27 v 20.547 c 0,0.409 0.048,0.912 0.132,1.537 0.087,0.584 0.252,1.222 0.49,1.895 0.233,0.64 0.588,1.235 1.05,1.758 0.242,0.272 0.546,0.518 0.901,0.733 -0.336,-0.208 -0.627,-0.452 -0.861,-0.719 -0.498,-0.572 -0.866,-1.216 -1.092,-1.911 -0.217,-0.668 -0.372,-1.311 -0.469,-1.91 -0.098,-0.631 -0.129,-1.363 -0.098,-2.175 v -19.755 c 0,-1.485 0.221,-2.717 0.659,-3.661 0.433,-0.951 1.001,-1.707 1.688,-2.251 0.214,-0.173 0.443,-0.326 0.676,-0.463 z m 9.515,1.352 c 0.417,0.56 0.76,1.21 1.024,1.959 0.3,0.86 0.455,1.891 0.455,3.064 l -0.046,20.066 c 0,0.783 -0.045,1.433 -0.145,1.989 -0.09,0.554 -0.249,1.159 -0.469,1.793 -0.232,0.669 -0.594,1.291 -1.088,1.852 -0.09,0.111 -0.193,0.219 -0.307,0.317 0.113,-0.094 0.217,-0.189 0.307,-0.292 0.459,-0.514 0.814,-1.095 1.046,-1.711 0.242,-0.644 0.427,-1.257 0.539,-1.82 0.113,-0.55 0.169,-1.021 0.169,-1.407 v -20.787 c 0.001,-2.094 -0.491,-3.745 -1.485,-5.023 z m -5.64,-2.262 c 0.37,0 0.801,0.031 1.313,0.1 0.497,0.065 1.005,0.188 1.502,0.355 0.493,0.174 0.976,0.389 1.423,0.637 0.433,0.241 0.808,0.521 1.12,0.832 -0.115,-0.129 -0.238,-0.256 -0.367,-0.374 -0.262,-0.253 -0.592,-0.476 -0.981,-0.666 -0.413,-0.194 -0.859,-0.364 -1.323,-0.5 -0.469,-0.138 -0.939,-0.237 -1.422,-0.301 -0.748,-0.093 -1.284,-0.118 -1.895,-0.063 0.213,-0.012 0.422,-0.02 0.63,-0.02 z"
         id="path65"
         inkscape:connector-curvature="0"
         style="fill:#010202;stroke:#000000;stroke-miterlimit:10" /></g><g
       id="g67"><path
         stroke-miterlimit="10"
         d="m 350.119,558.133 -0.854,-2.406 -0.858,2.406 -5.118,14.389 h -1.039 l 5.263,-14.726 1.21,-3.415 -5.931,-16.65 h 0.991 l 5.438,15.734 5.524,-15.734 h 0.988 l -5.978,16.65 1.215,3.415 5.309,14.677 h -1.04 l -5.12,-14.34 z"
         id="path69"
         inkscape:connector-curvature="0"
         style="stroke:#000000;stroke-miterlimit:10" /><path
         stroke-miterlimit="10"
         d="m 343.609,573.022 h -2.035 l 6.648,-18.642 -6.111,-17.15 h 1.996 l 5.117,14.801 5.197,-14.801 h 1.992 l -6.154,17.15 1.15,3.237 5.551,15.354 h -2.042 l -0.118,-0.322 -5.535,-15.512 -5.656,15.885 z m -0.674,-1.002 h 0.028 l 6.177,-17.347 -0.013,-0.026 -6.192,17.373 z m 12.63,-0.049 h 0.025 l -2.687,-7.434 2.662,7.434 z"
         id="path71"
         inkscape:connector-curvature="0"
         style="fill:#010202;stroke:#000000;stroke-miterlimit:10" /></g><g
       id="g73"><path
         stroke-miterlimit="10"
         d="m 395.555,537.541 h 6.743 c 0.813,0 1.591,0.151 2.341,0.455 0.745,0.305 1.406,0.746 1.975,1.324 1.44,1.443 2.156,3.449 2.156,6.014 v 19.391 c 0,2.632 -0.716,4.638 -2.156,6.015 -0.568,0.577 -1.229,1.019 -1.975,1.322 -0.75,0.307 -1.527,0.46 -2.341,0.46 h -3.64 -3.104 v -0.481 -34.5 z m 12.273,7.793 c 0,-1.155 -0.158,-2.166 -0.475,-3.031 -0.313,-0.867 -0.734,-1.572 -1.257,-2.117 -0.525,-0.545 -1.116,-0.954 -1.772,-1.225 -0.661,-0.273 -1.336,-0.411 -2.026,-0.411 h -3.64 -2.154 v 32.958 h 2.154 3.64 c 0.69,0 1.365,-0.126 2.026,-0.383 0.656,-0.255 1.247,-0.667 1.772,-1.228 0.522,-0.561 0.943,-1.268 1.257,-2.116 0.316,-0.85 0.475,-1.869 0.475,-3.057 v -19.39 z"
         id="path75"
         inkscape:connector-curvature="0"
         style="stroke:#000000;stroke-miterlimit:10" /><path
         stroke-miterlimit="10"
         d="m 402.298,573.022 h -7.21 v -35.983 h 7.21 c 0.862,0 1.704,0.164 2.505,0.489 0.814,0.331 1.53,0.81 2.131,1.43 1.527,1.528 2.307,3.674 2.307,6.376 v 19.391 c 0,2.771 -0.782,4.921 -2.316,6.389 -0.597,0.611 -1.314,1.091 -2.121,1.417 -0.798,0.327 -1.642,0.491 -2.506,0.491 z m -6.277,-1.002 h 6.277 c 0.633,0 1.246,-0.101 1.837,-0.301 -0.598,0.192 -1.217,0.292 -1.837,0.292 h -6.265 v -33.962 h 6.265 c 0.741,0 1.481,0.148 2.194,0.443 0.718,0.295 1.363,0.744 1.932,1.332 0.574,0.6 1.033,1.371 1.369,2.296 0.332,0.921 0.5,2.003 0.5,3.214 v 19.391 c 0,1.245 -0.168,2.336 -0.5,3.24 -0.297,0.797 -0.686,1.487 -1.159,2.052 1.123,-1.271 1.669,-3.008 1.669,-5.292 v -19.391 c 0,-2.412 -0.678,-4.312 -2.008,-5.648 -0.521,-0.529 -1.134,-0.938 -1.828,-1.222 -0.688,-0.28 -1.421,-0.423 -2.169,-0.423 h -6.277 v 33.979 z m 0.95,-1.011 h 5.327 c 0.633,0 1.262,-0.122 1.865,-0.355 0.592,-0.229 1.131,-0.603 1.603,-1.109 0.478,-0.511 0.864,-1.167 1.156,-1.947 0.292,-0.786 0.436,-1.753 0.436,-2.872 v -19.391 c 0,-1.087 -0.144,-2.047 -0.436,-2.849 -0.292,-0.792 -0.679,-1.444 -1.15,-1.942 -0.478,-0.494 -1.021,-0.869 -1.617,-1.115 -0.607,-0.248 -1.228,-0.376 -1.856,-0.376 h -5.327 v 31.956 z"
         id="path77"
         inkscape:connector-curvature="0"
         style="fill:#010202;stroke:#000000;stroke-miterlimit:10" /></g><g
       id="g79"><path
         stroke-miterlimit="10"
         d="m 434.564,571.606 v 0.434 0.481 h -12.676 v -0.481 -33.972 -0.527 h 12.495 v 0.527 0.386 H 422.83 v 22.196 h 9.038 v 0.482 0.434 h -9.038 v 10.04 h 11.734 z"
         id="path81"
         inkscape:connector-curvature="0"
         style="stroke:#000000;stroke-miterlimit:10" /><path
         stroke-miterlimit="10"
         d="m 435.033,573.022 h -13.609 v -35.983 h 13.432 v 1.915 h -11.553 v 21.196 h 9.034 v 1.916 h -9.034 v 9.037 h 11.73 v 1.919 z m -12.672,-1.002 h 0.006 l -0.006,-33.979 v 33.979 z"
         id="path83"
         inkscape:connector-curvature="0"
         style="fill:#010202;stroke:#000000;stroke-miterlimit:10" /></g><g
       id="g85"><path
         stroke-miterlimit="10"
         d="m 449.036,571.27 c -0.747,-0.705 -1.308,-1.651 -1.683,-2.838 -0.377,-1.187 -0.562,-2.457 -0.562,-3.802 h 0.946 c 0,1.54 0.199,2.79 0.606,3.751 0.401,0.965 0.907,1.708 1.521,2.239 0.617,0.529 1.285,0.884 2.002,1.058 0.721,0.178 1.395,0.265 2.025,0.265 0.777,0 1.549,-0.121 2.314,-0.36 0.762,-0.242 1.452,-0.626 2.066,-1.156 0.617,-0.528 1.107,-1.227 1.484,-2.094 0.371,-0.863 0.56,-1.924 0.56,-3.176 0,-1.441 -0.191,-2.701 -0.578,-3.774 -0.392,-1.075 -0.911,-2.03 -1.55,-2.864 -0.649,-0.832 -1.376,-1.579 -2.183,-2.237 -0.812,-0.655 -1.637,-1.307 -2.474,-1.946 -0.807,-0.61 -1.578,-1.211 -2.314,-1.808 -0.736,-0.593 -1.402,-1.257 -2.002,-1.997 -1.313,-1.697 -1.973,-3.59 -1.973,-5.678 0,-0.095 0,-0.343 0,-0.745 0,-0.399 0.045,-0.874 0.148,-1.419 0.096,-0.544 0.262,-1.139 0.494,-1.779 0.227,-0.641 0.594,-1.234 1.107,-1.78 1.166,-1.347 2.803,-2.021 4.898,-2.021 2.127,0 3.731,0.674 4.808,2.021 0.451,0.578 0.771,1.209 0.968,1.901 0.19,0.689 0.319,1.347 0.385,1.971 0.057,0.627 0.076,1.156 0.064,1.589 -0.014,0.433 -0.022,0.665 -0.022,0.698 h -0.943 c 0.032,-0.771 0.017,-1.445 -0.042,-2.021 -0.064,-0.578 -0.178,-1.179 -0.34,-1.804 -0.168,-0.627 -0.441,-1.179 -0.832,-1.661 -0.452,-0.546 -1.004,-0.963 -1.659,-1.251 -0.662,-0.288 -1.456,-0.433 -2.386,-0.433 -1.828,0 -3.221,0.562 -4.182,1.684 -0.417,0.482 -0.733,1.01 -0.943,1.588 -0.209,0.578 -0.357,1.115 -0.448,1.611 -0.091,0.498 -0.133,1.102 -0.133,1.806 0,1.058 0.165,1.997 0.494,2.813 0.333,0.818 0.769,1.572 1.308,2.263 0.539,0.691 1.162,1.323 1.873,1.899 0.707,0.578 1.438,1.155 2.188,1.733 0.868,0.642 1.724,1.315 2.567,2.021 0.842,0.706 1.611,1.509 2.299,2.406 1.565,2.054 2.348,4.459 2.348,7.215 0,2.603 -0.808,4.622 -2.425,6.065 -1.321,1.153 -2.968,1.732 -4.946,1.732 -0.688,0 -1.477,-0.106 -2.36,-0.313 -0.883,-0.209 -1.713,-0.667 -2.493,-1.372 z"
         id="path87"
         inkscape:connector-curvature="0"
         style="stroke:#000000;stroke-miterlimit:10" /><path
         stroke-miterlimit="10"
         d="m 453.893,573.455 c -0.715,0 -1.537,-0.109 -2.461,-0.326 -0.953,-0.222 -1.859,-0.719 -2.695,-1.475 -0.814,-0.768 -1.428,-1.795 -1.824,-3.062 -0.389,-1.233 -0.588,-2.568 -0.588,-3.962 v -0.503 h 1.879 v 0.503 c 0,1.463 0.19,2.655 0.568,3.545 0.367,0.884 0.836,1.575 1.389,2.055 0.561,0.479 1.168,0.801 1.811,0.957 1.527,0.375 2.797,0.327 4.104,-0.087 0.704,-0.221 1.344,-0.578 1.904,-1.062 0.553,-0.479 1.012,-1.122 1.356,-1.916 0.339,-0.793 0.514,-1.791 0.514,-2.965 0,-1.373 -0.185,-2.584 -0.548,-3.596 -0.372,-1.021 -0.869,-1.936 -1.477,-2.723 -0.617,-0.799 -1.32,-1.522 -2.098,-2.158 -0.809,-0.652 -1.631,-1.3 -2.467,-1.939 -0.809,-0.608 -1.583,-1.215 -2.326,-1.812 -0.748,-0.607 -1.452,-1.305 -2.072,-2.068 -1.389,-1.794 -2.088,-3.811 -2.088,-6.008 v -0.745 c 0,-0.444 0.054,-0.956 0.16,-1.517 0.104,-0.567 0.275,-1.193 0.518,-1.863 0.248,-0.699 0.654,-1.359 1.214,-1.952 1.243,-1.434 3.002,-2.169 5.228,-2.169 2.26,0 3.996,0.738 5.165,2.195 0.494,0.636 0.846,1.332 1.06,2.083 0.2,0.718 0.335,1.409 0.396,2.063 0.062,0.648 0.088,1.206 0.071,1.658 -0.017,0.412 -0.021,0.641 -0.021,0.684 l -0.002,0.494 -1.898,0.005 0.016,-0.521 c 0.033,-0.744 0.017,-1.398 -0.039,-1.947 -0.057,-0.539 -0.168,-1.121 -0.318,-1.726 -0.155,-0.56 -0.395,-1.042 -0.739,-1.464 -0.397,-0.484 -0.898,-0.859 -1.483,-1.115 -0.598,-0.264 -1.343,-0.396 -2.207,-0.396 -1.703,0 -2.961,0.497 -3.836,1.521 -0.379,0.436 -0.662,0.916 -0.856,1.434 -0.192,0.549 -0.339,1.062 -0.419,1.52 -0.084,0.46 -0.129,1.033 -0.129,1.712 0,0.984 0.154,1.866 0.458,2.615 0.31,0.77 0.729,1.489 1.239,2.14 0.518,0.66 1.117,1.273 1.793,1.821 0.709,0.575 1.434,1.149 2.182,1.725 0.865,0.642 1.737,1.325 2.583,2.032 0.866,0.729 1.663,1.564 2.373,2.483 1.624,2.136 2.45,4.671 2.45,7.534 0,2.743 -0.877,4.914 -2.595,6.45 -1.404,1.226 -3.17,1.848 -5.245,1.848 z m -6.078,-5.116 c 0.351,1.068 0.865,1.927 1.534,2.555 0.71,0.646 1.481,1.07 2.283,1.258 0.854,0.2 1.613,0.301 2.26,0.301 1.679,0 3.121,-0.446 4.291,-1.327 -0.56,0.414 -1.179,0.729 -1.844,0.937 -1.457,0.46 -2.896,0.521 -4.579,0.104 -0.78,-0.191 -1.514,-0.579 -2.183,-1.156 -0.674,-0.58 -1.23,-1.396 -1.666,-2.422 -0.03,-0.083 -0.059,-0.166 -0.096,-0.25 z m 12.925,-4.38 c 0.032,0.387 0.047,0.785 0.047,1.197 0,0.756 -0.066,1.454 -0.199,2.087 0.136,-0.64 0.207,-1.335 0.207,-2.087 0,-0.404 -0.02,-0.805 -0.055,-1.197 z m -6.847,-26.351 c -1.954,0 -3.484,0.627 -4.553,1.86 -0.479,0.506 -0.818,1.047 -1.014,1.617 -0.227,0.611 -0.382,1.185 -0.473,1.697 -0.096,0.502 -0.145,0.945 -0.145,1.323 v 0.745 c 0,1.957 0.629,3.76 1.873,5.359 0.567,0.702 1.217,1.35 1.918,1.918 0.297,0.236 0.594,0.478 0.904,0.717 -0.281,-0.223 -0.557,-0.443 -0.828,-0.666 -0.726,-0.592 -1.384,-1.258 -1.943,-1.975 -0.568,-0.721 -1.036,-1.525 -1.385,-2.386 -0.352,-0.878 -0.529,-1.891 -0.529,-3.014 0,-0.753 0.045,-1.374 0.139,-1.902 0.101,-0.52 0.252,-1.075 0.475,-1.694 0.232,-0.637 0.584,-1.221 1.033,-1.748 1.05,-1.224 2.573,-1.845 4.527,-1.845 0.987,0 1.852,0.158 2.559,0.47 0.722,0.315 1.34,0.782 1.838,1.383 0.434,0.533 0.742,1.156 0.934,1.854 0.168,0.658 0.287,1.292 0.352,1.884 0.045,0.467 0.064,0.996 0.058,1.579 h 0.007 c 0.008,-0.064 0.008,-0.138 0.01,-0.216 0.016,-0.406 -0.01,-0.92 -0.062,-1.521 -0.062,-0.588 -0.187,-1.219 -0.368,-1.875 -0.174,-0.621 -0.471,-1.203 -0.874,-1.725 -0.996,-1.234 -2.45,-1.839 -4.453,-1.839 z"
         id="path89"
         inkscape:connector-curvature="0"
         style="fill:#010202;stroke:#000000;stroke-miterlimit:10" /></g><g
       id="g91"><path
         stroke-miterlimit="10"
         d="m 513.223,564.533 c 0,0.032 0,0.283 0,0.746 0,0.465 -0.052,1.031 -0.155,1.707 -0.106,0.674 -0.287,1.38 -0.542,2.118 -0.252,0.737 -0.637,1.396 -1.146,1.971 -1.166,1.316 -2.789,1.975 -4.856,1.975 -2.063,0 -3.638,-0.658 -4.714,-1.975 -0.545,-0.607 -0.938,-1.266 -1.194,-1.971 -0.252,-0.707 -0.423,-1.372 -0.517,-1.997 -0.091,-0.627 -0.126,-1.164 -0.113,-1.611 0.017,-0.449 0.022,-0.724 0.022,-0.818 v -19.775 c 0,-2.566 0.72,-4.571 2.157,-6.016 0.571,-0.543 1.236,-0.978 2.002,-1.299 0.766,-0.32 1.551,-0.48 2.356,-0.48 1.618,0 3.091,0.576 4.407,1.73 0.75,0.674 1.328,1.598 1.73,2.768 0.407,1.172 0.607,2.445 0.607,3.825 h -0.988 c 0,-1.252 -0.171,-2.343 -0.517,-3.272 -0.349,-0.931 -0.794,-1.69 -1.353,-2.285 -0.557,-0.592 -1.172,-1.035 -1.863,-1.323 -0.688,-0.288 -1.362,-0.433 -2.024,-0.433 -0.684,0 -1.368,0.137 -2.044,0.41 -0.674,0.271 -1.271,0.68 -1.798,1.225 -0.522,0.547 -0.942,1.252 -1.259,2.118 -0.312,0.866 -0.473,1.877 -0.473,3.032 v 19.822 0.048 c 0,0.803 0.039,1.486 0.114,2.045 0.077,0.562 0.229,1.163 0.452,1.806 0.223,0.642 0.564,1.219 1.01,1.732 0.959,1.122 2.289,1.685 3.997,1.685 1.77,0 3.147,-0.562 4.14,-1.685 0.445,-0.514 0.788,-1.1 1.011,-1.756 0.226,-0.656 0.384,-1.292 0.468,-1.901 0.097,-0.608 0.139,-1.331 0.139,-2.165 h 0.944 z"
         id="path93"
         inkscape:connector-curvature="0"
         style="stroke:#000000;stroke-miterlimit:10" /><path
         stroke-miterlimit="10"
         d="m 506.522,573.551 c -2.194,0 -3.9,-0.722 -5.065,-2.144 -0.564,-0.636 -1.002,-1.354 -1.279,-2.121 -0.261,-0.739 -0.445,-1.444 -0.539,-2.101 -0.096,-0.647 -0.135,-1.223 -0.122,-1.708 0.013,-0.439 0.022,-0.707 0.022,-0.8 v -19.775 c 0,-2.699 0.775,-4.846 2.305,-6.381 0.623,-0.593 1.344,-1.062 2.15,-1.4 0.817,-0.342 1.666,-0.516 2.528,-0.516 1.724,0 3.307,0.623 4.704,1.845 0.814,0.733 1.443,1.733 1.87,2.979 0.419,1.221 0.64,2.564 0.64,4.001 v 0.501 h -1.928 v -0.501 c 0,-1.184 -0.158,-2.22 -0.48,-3.089 -0.324,-0.865 -0.743,-1.578 -1.244,-2.113 -0.51,-0.543 -1.084,-0.952 -1.708,-1.213 -1.281,-0.539 -2.519,-0.506 -3.732,-0.021 -0.606,0.245 -1.159,0.622 -1.638,1.117 -0.474,0.496 -0.861,1.147 -1.146,1.94 -0.294,0.803 -0.442,1.762 -0.442,2.85 v 19.822 c 0,0.807 0.039,1.471 0.11,2.024 0.064,0.513 0.206,1.067 0.427,1.7 0.193,0.57 0.502,1.097 0.91,1.565 0.881,1.026 2.075,1.524 3.657,1.524 1.65,0 2.89,-0.5 3.802,-1.527 0.406,-0.464 0.709,-0.999 0.91,-1.582 0.216,-0.625 0.363,-1.233 0.445,-1.809 0.086,-0.573 0.129,-1.277 0.129,-2.088 v -0.502 h 1.879 v 1.248 c 0,0.496 -0.052,1.1 -0.162,1.791 -0.109,0.701 -0.294,1.443 -0.561,2.207 -0.275,0.795 -0.691,1.515 -1.246,2.144 -1.255,1.415 -2.995,2.133 -5.196,2.133 z m -3.657,-34.627 c -0.137,0.105 -0.266,0.22 -0.391,0.338 -1.324,1.33 -1.996,3.23 -1.996,5.641 v 19.775 c 0,0.097 -0.01,0.377 -0.025,0.832 -0.016,0.424 0.025,0.937 0.106,1.519 0.087,0.589 0.251,1.227 0.493,1.899 0.23,0.64 0.598,1.249 1.092,1.805 1.008,1.227 2.438,1.816 4.378,1.816 1.931,0 3.446,-0.612 4.515,-1.816 0.467,-0.53 0.82,-1.135 1.049,-1.802 0.245,-0.703 0.416,-1.387 0.52,-2.028 0.098,-0.635 0.148,-1.182 0.148,-1.623 l -0.013,-0.245 c -0.013,0.66 -0.058,1.235 -0.136,1.744 -0.09,0.636 -0.254,1.308 -0.493,1.996 -0.243,0.708 -0.61,1.357 -1.104,1.922 -1.085,1.225 -2.594,1.843 -4.485,1.843 -1.831,0 -3.294,-0.618 -4.343,-1.845 -0.486,-0.562 -0.865,-1.202 -1.104,-1.896 -0.242,-0.698 -0.4,-1.327 -0.478,-1.911 -0.074,-0.598 -0.116,-1.312 -0.116,-2.114 v -19.87 c 0,-1.213 0.168,-2.295 0.504,-3.215 0.338,-0.924 0.793,-1.695 1.371,-2.294 0.159,-0.169 0.332,-0.327 0.508,-0.471 z m 9.873,6.004 h 0.052 c -0.046,-1.127 -0.236,-2.184 -0.569,-3.149 -0.373,-1.083 -0.909,-1.942 -1.591,-2.557 -1.221,-1.068 -2.603,-1.613 -4.107,-1.613 -0.632,0 -1.269,0.11 -1.879,0.327 1.324,-0.456 2.698,-0.438 4.079,0.148 0.741,0.309 1.42,0.793 2.02,1.436 0.595,0.631 1.082,1.457 1.453,2.453 0.323,0.855 0.497,1.849 0.542,2.955 z"
         id="path95"
         inkscape:connector-curvature="0"
         style="fill:#010202;stroke:#000000;stroke-miterlimit:10" /></g><g
       id="g97"><path
         stroke-miterlimit="10"
         d="m 527.287,560.65 h 12.317 v -23.637 h 0.448 0.498 v 31.454 h -0.498 -0.448 v -6.901 h -12.317 v 6.901 h -0.45 -0.493"
         id="path99"
         inkscape:connector-curvature="0"
         style="stroke:#000000;stroke-miterlimit:10" /><path
         stroke-miterlimit="10"
         d="m 541.014,572.978 h -1.879 v -10.911 h -11.377 v 10.911 h -1.879 v -35.964 h 1.879 v 23.137 h 11.377 v -23.137 h 1.879 v 35.964 z m -0.942,-1.003 h 0.01 l -0.01,-33.957 v 33.957 z m -13.258,0 h 0.007 l -0.007,-33.957 v 33.957 z"
         id="path101"
         inkscape:connector-curvature="0"
         style="fill:#010202;stroke:#000000;stroke-miterlimit:10" /></g><g
       id="g103"><path
         stroke-miterlimit="10"
         d="m 566.838,571.606 v 0.434 0.481 h -12.676 v -0.481 -33.972 -0.527 h 12.495 v 0.527 0.386 h -11.553 v 22.196 h 9.034 v 0.482 0.434 h -9.034 v 10.04 h 11.734 z"
         id="path105"
         inkscape:connector-curvature="0"
         style="stroke:#000000;stroke-miterlimit:10" /><path
         stroke-miterlimit="10"
         d="m 567.303,573.022 h -13.606 v -35.983 h 13.43 v 1.915 h -11.549 v 21.196 h 9.033 v 1.916 h -9.033 v 9.037 h 11.726 v 1.919 z m -12.672,-30.97 v 29.968"
         id="path107"
         inkscape:connector-curvature="0"
         style="fill:#010202;stroke:#000000;stroke-miterlimit:10" /></g><g
       id="g109"><path
         stroke-miterlimit="10"
         d="m 592.681,537.541 v 0.527 0.386 h -11.865 v 22.149 h 9.305 v 0.505 0.507 l -9.261,-0.049 -0.044,10.955 h -0.495 -0.447 v -34.453 -0.527 h 12.807 z"
         id="path111"
         inkscape:connector-curvature="0"
         style="stroke:#000000;stroke-miterlimit:10" /><path
         stroke-miterlimit="10"
         d="m 581.283,573.022 h -1.882 v -35.983 h 13.75 v 1.915 h -11.868 v 21.149 h 9.305 v 2.014 l -9.26,-0.05 -0.045,10.955 z m -0.942,-1.002 h 0.006 l 0.046,-14.924 h -0.046 l -0.006,-19.055 v 33.979 z"
         id="path113"
         inkscape:connector-curvature="0"
         style="fill:#010202;stroke:#000000;stroke-miterlimit:10" /></g><g
       id="g115"><path
         stroke-miterlimit="10"
         d="m 606.884,571.27 c -0.75,-0.705 -1.307,-1.651 -1.686,-2.838 -0.374,-1.187 -0.559,-2.457 -0.559,-3.802 h 0.943 c 0,1.54 0.2,2.79 0.606,3.751 0.404,0.965 0.907,1.708 1.524,2.239 0.613,0.529 1.285,0.884 2.001,1.058 0.721,0.178 1.393,0.265 2.024,0.265 0.777,0 1.551,-0.121 2.312,-0.36 0.764,-0.242 1.453,-0.626 2.068,-1.156 0.615,-0.528 1.107,-1.227 1.482,-2.094 0.371,-0.863 0.562,-1.924 0.562,-3.176 0,-1.441 -0.195,-2.701 -0.584,-3.774 -0.389,-1.075 -0.906,-2.03 -1.551,-2.864 -0.643,-0.832 -1.371,-1.579 -2.176,-2.237 -0.814,-0.655 -1.641,-1.307 -2.476,-1.946 -0.809,-0.61 -1.579,-1.211 -2.315,-1.808 -0.736,-0.593 -1.402,-1.257 -2.003,-1.997 -1.313,-1.697 -1.973,-3.59 -1.973,-5.678 0,-0.095 0,-0.343 0,-0.745 0,-0.399 0.05,-0.874 0.15,-1.419 0.099,-0.544 0.264,-1.139 0.493,-1.779 0.226,-0.641 0.594,-1.234 1.107,-1.78 1.168,-1.347 2.806,-2.021 4.9,-2.021 2.125,0 3.729,0.674 4.807,2.021 0.451,0.578 0.773,1.209 0.965,1.901 0.195,0.689 0.324,1.347 0.385,1.971 0.059,0.627 0.078,1.156 0.068,1.589 -0.016,0.433 -0.023,0.665 -0.023,0.698 h -0.943 c 0.027,-0.771 0.014,-1.445 -0.045,-2.021 -0.059,-0.578 -0.176,-1.179 -0.334,-1.804 -0.168,-0.627 -0.443,-1.179 -0.836,-1.661 -0.449,-0.546 -1.002,-0.963 -1.66,-1.251 -0.662,-0.288 -1.455,-0.433 -2.383,-0.433 -1.83,0 -3.219,0.562 -4.184,1.684 -0.414,0.482 -0.733,1.01 -0.943,1.588 -0.207,0.578 -0.355,1.115 -0.445,1.611 -0.091,0.498 -0.133,1.102 -0.133,1.806 0,1.058 0.161,1.997 0.491,2.813 0.333,0.818 0.769,1.572 1.308,2.263 0.542,0.69 1.166,1.323 1.872,1.899 0.711,0.578 1.437,1.155 2.188,1.733 0.869,0.642 1.727,1.315 2.57,2.021 0.84,0.706 1.607,1.509 2.299,2.406 1.566,2.054 2.346,4.459 2.346,7.215 0,2.603 -0.809,4.622 -2.428,6.065 -1.314,1.153 -2.965,1.732 -4.941,1.732 -0.691,0 -1.478,-0.106 -2.363,-0.313 -0.88,-0.209 -1.71,-0.667 -2.487,-1.372 z"
         id="path117"
         inkscape:connector-curvature="0"
         style="stroke:#000000;stroke-miterlimit:10" /><path
         stroke-miterlimit="10"
         d="m 611.739,573.455 c -0.713,0 -1.539,-0.109 -2.46,-0.326 -0.955,-0.222 -1.86,-0.719 -2.7,-1.475 -0.812,-0.768 -1.423,-1.795 -1.824,-3.062 -0.387,-1.233 -0.587,-2.568 -0.587,-3.962 v -0.503 h 1.88 v 0.503 c 0,1.463 0.192,2.655 0.567,3.545 0.368,0.884 0.84,1.575 1.392,2.055 0.56,0.479 1.166,0.801 1.81,0.957 1.526,0.375 2.794,0.327 4.103,-0.087 0.705,-0.221 1.342,-0.578 1.908,-1.062 0.551,-0.479 1.01,-1.122 1.354,-1.916 0.34,-0.793 0.512,-1.791 0.512,-2.965 0,-1.373 -0.184,-2.584 -0.549,-3.596 -0.371,-1.021 -0.869,-1.936 -1.475,-2.723 -0.613,-0.799 -1.316,-1.522 -2.1,-2.158 -0.807,-0.652 -1.627,-1.3 -2.466,-1.939 -0.808,-0.608 -1.582,-1.215 -2.321,-1.812 -0.753,-0.607 -1.454,-1.305 -2.076,-2.068 -1.385,-1.794 -2.086,-3.811 -2.086,-6.008 v -0.745 c 0,-0.444 0.055,-0.956 0.158,-1.517 0.104,-0.567 0.275,-1.193 0.52,-1.863 0.246,-0.699 0.653,-1.359 1.214,-1.952 1.24,-1.434 3.003,-2.169 5.228,-2.169 2.256,0 3.996,0.738 5.162,2.195 0.494,0.636 0.846,1.332 1.062,2.083 0.201,0.718 0.334,1.409 0.395,2.063 0.064,0.648 0.088,1.206 0.07,1.658 -0.008,0.412 -0.02,0.641 -0.02,0.684 l -0.004,0.494 -1.895,0.005 0.02,-0.521 c 0.029,-0.744 0.012,-1.398 -0.041,-1.947 -0.059,-0.539 -0.168,-1.121 -0.324,-1.726 -0.15,-0.56 -0.389,-1.042 -0.74,-1.464 -0.395,-0.484 -0.896,-0.859 -1.477,-1.115 -0.602,-0.264 -1.344,-0.396 -2.209,-0.396 -1.708,0 -2.961,0.497 -3.839,1.521 -0.375,0.436 -0.661,0.916 -0.853,1.434 -0.197,0.549 -0.342,1.062 -0.419,1.52 -0.088,0.46 -0.129,1.033 -0.129,1.712 0,0.984 0.15,1.866 0.458,2.615 0.311,0.77 0.727,1.489 1.236,2.14 0.517,0.66 1.12,1.273 1.792,1.821 0.711,0.575 1.434,1.149 2.183,1.725 0.865,0.642 1.736,1.325 2.582,2.032 0.865,0.729 1.662,1.564 2.373,2.483 1.627,2.136 2.455,4.671 2.455,7.534 0,2.743 -0.879,4.914 -2.6,6.45 -1.4,1.226 -3.166,1.848 -5.24,1.848 z m -6.079,-5.116 c 0.355,1.068 0.865,1.927 1.537,2.555 0.707,0.646 1.478,1.07 2.282,1.258 0.852,0.2 1.61,0.301 2.26,0.301 1.68,0 3.119,-0.446 4.291,-1.327 -0.562,0.414 -1.18,0.729 -1.844,0.937 -1.453,0.46 -2.899,0.521 -4.578,0.104 -0.784,-0.191 -1.52,-0.579 -2.186,-1.156 -0.672,-0.58 -1.229,-1.396 -1.66,-2.422 -0.034,-0.083 -0.067,-0.166 -0.102,-0.25 z m 12.921,-4.38 c 0.035,0.387 0.051,0.785 0.051,1.197 0,0.756 -0.062,1.454 -0.199,2.087 0.139,-0.64 0.205,-1.335 0.205,-2.087 0,-0.404 -0.016,-0.805 -0.057,-1.197 z m -6.842,-26.351 c -1.956,0 -3.486,0.627 -4.556,1.86 -0.478,0.506 -0.811,1.047 -1.015,1.617 -0.222,0.611 -0.38,1.185 -0.471,1.697 -0.096,0.502 -0.142,0.945 -0.142,1.323 v 0.745 c 0,1.957 0.63,3.76 1.866,5.359 0.571,0.702 1.221,1.35 1.924,1.918 0.298,0.236 0.594,0.478 0.905,0.717 -0.285,-0.223 -0.557,-0.443 -0.831,-0.666 -0.726,-0.592 -1.386,-1.258 -1.942,-1.975 -0.568,-0.721 -1.034,-1.525 -1.383,-2.386 -0.352,-0.878 -0.533,-1.891 -0.533,-3.014 0,-0.753 0.05,-1.374 0.146,-1.902 0.094,-0.52 0.246,-1.075 0.469,-1.694 0.232,-0.637 0.581,-1.221 1.036,-1.748 1.05,-1.224 2.57,-1.845 4.526,-1.845 0.984,0 1.846,0.158 2.561,0.47 0.719,0.315 1.338,0.782 1.832,1.383 0.434,0.533 0.748,1.156 0.934,1.854 0.168,0.658 0.291,1.292 0.35,1.884 0.053,0.467 0.07,0.996 0.062,1.579 h 0.008 c 0.004,-0.064 0.004,-0.138 0.008,-0.216 0.016,-0.406 -0.008,-0.92 -0.061,-1.521 -0.061,-0.588 -0.184,-1.219 -0.369,-1.875 -0.17,-0.621 -0.471,-1.203 -0.871,-1.725 -0.998,-1.234 -2.447,-1.839 -4.453,-1.839 z"
         id="path119"
         inkscape:connector-curvature="0"
         style="fill:#010202;stroke:#000000;stroke-miterlimit:10" /></g></g><path
     stroke-miterlimit="10"
     d="m 4.2989507,876.78951 c 0,2.55708 -1.2087873,4.63427 -2.696378,4.63427 -1.47784191,0 -2.6866303,-2.07719 -2.6866303,-4.63427 0,-2.56044 1.20878839,-4.63427 2.6866303,-4.63427 1.4875907,0 2.696378,2.07383 2.696378,4.63427 z"
     id="path121"
     inkscape:connector-curvature="0"
     style="fill:#010203;stroke:#000000;stroke-width:2.5578413;stroke-miterlimit:10" /><path
     stroke-miterlimit="10"
     d="m 834.74276,876.615 c 0,2.55708 -1.21073,4.63093 -2.70028,4.63093 -1.47784,0 -2.68858,-2.07385 -2.68858,-4.63093 0,-2.56043 1.21074,-4.63428 2.68858,-4.63428 1.48955,0 2.70028,2.07721 2.70028,4.63428 z"
     id="path123"
     inkscape:connector-curvature="0"
     style="fill:#010203;stroke:#000000;stroke-width:2.5578413;stroke-miterlimit:10" /><rect
     x="376.36221"
     y="977.89465"
     width="128.03413"
     height="7.5504184"
     id="rect125"
     style="fill:#010203" /></svg>