<?xml version="1.0" encoding="utf-8"?>
<!-- Generator: Adobe Illustrator 16.0.0, SVG Export Plug-In . SVG Version: 6.00 Build 0)  -->
<!DOCTYPE svg PUBLIC "-//W3C//DTD SVG 1.1//EN" "http://www.w3.org/Graphics/SVG/1.1/DTD/svg11.dtd">
<svg version="1.1" id="Layer_1" xmlns="http://www.w3.org/2000/svg" xmlns:xlink="http://www.w3.org/1999/xlink" x="0px" y="0px"
	 width="841.89px" height="1190.55px" viewBox="0 0 841.89 1190.55" enable-background="new 0 0 841.89 1190.55"
	 xml:space="preserve">
<g>
	<g>
		<path fill="#12100B" d="M432.374,465.75c0,0-0.25,0.207-0.808,0.48c-0.279,0.131-0.625,0.294-1.057,0.433
			c-0.219,0.068-0.445,0.134-0.725,0.188c-0.239,0.039-0.527,0.08-0.837,0.086c-1.249,0.083-2.713-0.567-4.042-1.379
			c-0.727-0.437-1.427-0.943-2.12-1.549c-0.718-0.601-1.363-1.278-2.049-1.946c-1.397-1.343-2.782-2.957-4.323-4.527
			c-0.374-0.387-0.785-0.835-1.145-1.188c-0.395-0.394-0.794-0.792-1.198-1.194c-0.474-0.473-0.672-0.63-1.212-1.042
			c-0.253-0.207-0.429-0.286-0.631-0.422c-0.2-0.124-0.44-0.234-0.66-0.349c-0.899-0.397-1.915-0.602-2.805-0.469l-0.462,0.066
			l-0.299,0.089c-0.179,0.028-0.427,0.152-0.647,0.228c-0.443,0.208-0.879,0.46-1.274,0.794c-0.792,0.643-1.478,1.533-2.061,2.556
			c-0.536,0.942-0.979,2.086-1.331,3.208c-0.693,2.279-0.966,4.734-1.002,7.176c-0.016,0.556-0.004,1.257-0.003,1.844
			c0.005,0.596,0.026,1.189,0.067,1.779c0.083,1.129,0.248,2.405,0.461,3.467c0.479,2.239,1.153,4.366,2.16,6.229
			c0.99,1.869,2.123,3.479,3.41,4.877c1.258,1.352,2.559,2.502,3.803,3.409c0.604,0.434,1.244,0.864,1.783,1.197
			c0.592,0.363,1.127,0.604,1.626,0.821c1.028,0.404,1.885,0.629,2.472,0.759c0.59,0.128,0.911,0.163,0.911,0.163
			s-0.323,0.017-0.931-0.015c-0.604-0.042-1.503-0.103-2.623-0.381c-0.564-0.158-1.197-0.354-1.808-0.626
			c-0.668-0.285-1.303-0.589-2.028-0.987c-1.406-0.766-2.921-1.797-4.412-3.156c-1.459-1.313-2.946-3.012-4.135-4.995
			c-1.217-1.964-2.184-4.261-2.78-6.723c-0.308-1.294-0.501-2.449-0.661-3.792c-0.07-0.647-0.121-1.3-0.153-1.96
			c-0.033-0.668-0.054-1.229-0.045-1.939c0.007-2.617,0.255-5.339,1.024-8.002c0.393-1.339,0.918-2.598,1.658-3.88
			c0.193-0.335,0.387-0.648,0.566-0.888l0.274-0.393c0.15-0.204,0.241-0.303,0.365-0.458c0.225-0.29,0.471-0.564,0.742-0.821
			c0.252-0.271,0.542-0.51,0.836-0.744c0.583-0.472,1.247-0.858,1.946-1.168c0.371-0.131,0.691-0.284,1.129-0.373
			c0.202-0.048,0.426-0.098,0.61-0.128l0.464-0.048c1.589-0.158,3.052,0.244,4.325,0.865c0.31,0.173,0.61,0.33,0.912,0.531
			c0.29,0.203,0.63,0.426,0.828,0.605c0.396,0.312,1.081,0.936,1.403,1.309c0.443,0.465,0.779,0.876,1.167,1.31
			c0.419,0.474,0.738,0.877,1.105,1.31c1.446,1.694,2.702,3.329,3.947,4.802c0.632,0.743,1.206,1.46,1.785,2.05
			c0.579,0.607,1.179,1.159,1.744,1.61c1.229,0.97,2.307,1.594,3.347,1.719c1.062,0.117,1.91-0.042,2.508-0.153
			C432.074,465.89,432.374,465.75,432.374,465.75z"/>
	</g>
</g>
<g>
	<g>
		<path fill="#12100B" d="M440.395,491.937c0,0,0.182-0.185,0.522-0.531c0.323-0.358,0.877-0.83,1.439-1.524
			c0.552-0.707,1.247-1.497,1.892-2.559c0.336-0.514,0.71-1.045,1.006-1.672c0.302-0.62,0.705-1.216,0.989-1.915
			c0.287-0.696,0.63-1.397,0.903-2.156c0.244-0.772,0.562-1.541,0.801-2.361c0.202-0.833,0.469-1.668,0.635-2.547
			c0.125-0.888,0.387-1.767,0.458-2.691c0.092-0.92,0.24-1.85,0.226-2.798c0.012-0.472,0.023-0.947,0.035-1.425
			c-0.024-0.474-0.049-0.951-0.073-1.429c-0.002-0.964-0.206-1.901-0.334-2.853c-0.05-0.481-0.229-0.925-0.334-1.39
			c-0.142-0.452-0.2-0.94-0.407-1.363l-0.507-1.317c-0.144-0.454-0.432-0.821-0.637-1.237c-0.393-0.854-1.023-1.515-1.561-2.243
			l-0.052-0.067l-0.025-0.034l-0.014-0.017c0.127,0.125,0.025,0.025,0.049,0.049l-0.137-0.131l-0.275-0.261l-0.547-0.521
			c-0.178-0.167-0.359-0.372-0.534-0.508l-0.516-0.388c-0.641-0.552-1.45-0.986-2.21-1.444c-1.599-0.781-3.256-1.34-4.895-1.675
			c-1.646-0.262-3.244-0.39-4.727-0.321c-1.474,0.097-2.842,0.27-4.012,0.595c-0.294,0.08-0.579,0.157-0.854,0.231
			c-0.268,0.097-0.524,0.191-0.771,0.281c-0.512,0.156-0.934,0.39-1.334,0.578c-0.412,0.175-0.719,0.416-1.019,0.591
			c-0.147,0.093-0.283,0.179-0.408,0.258c-0.11,0.096-0.211,0.183-0.301,0.261c-0.365,0.318-0.561,0.487-0.561,0.487
			s0.154-0.209,0.443-0.601c0.074-0.099,0.156-0.21,0.247-0.333c0.107-0.106,0.224-0.223,0.35-0.349
			c0.258-0.247,0.54-0.565,0.927-0.818c0.375-0.27,0.782-0.6,1.278-0.858c0.245-0.139,0.501-0.283,0.766-0.433
			c0.277-0.123,0.564-0.25,0.861-0.38c1.189-0.538,2.611-0.948,4.201-1.223c1.592-0.271,3.357-0.346,5.226-0.184
			c1.86,0.215,3.823,0.666,5.733,1.516c0.924,0.486,1.876,0.933,2.792,1.631l0.694,0.49c0.225,0.165,0.385,0.332,0.581,0.499
			l0.557,0.511l0.278,0.256l0.141,0.128l0.082,0.082l0.018,0.021l0.033,0.041l0.066,0.081c0.698,0.876,1.48,1.72,1.982,2.73
			c0.262,0.496,0.609,0.961,0.795,1.488l0.626,1.557c0.229,0.516,0.297,1.067,0.451,1.599c0.116,0.539,0.304,1.068,0.355,1.611
			c0.135,1.082,0.335,2.158,0.325,3.229c0.016,0.534,0.03,1.067,0.045,1.597c-0.039,0.526-0.078,1.049-0.116,1.569
			c-0.042,1.044-0.249,2.051-0.403,3.046c-0.141,0.998-0.44,1.945-0.674,2.881c-0.26,0.929-0.619,1.807-0.912,2.673
			c-0.337,0.853-0.724,1.659-1.082,2.439c-0.385,0.769-0.835,1.475-1.224,2.167c-0.858,1.342-1.703,2.534-2.599,3.468
			c-0.81,0.995-1.724,1.703-2.406,2.309c-0.333,0.32-0.683,0.521-0.978,0.715c-0.295,0.192-0.546,0.355-0.75,0.487
			C440.611,491.795,440.395,491.937,440.395,491.937z"/>
	</g>
</g>
<path stroke="#12100B" stroke-width="0.25" stroke-miterlimit="10" d="M443.642,492.181c0,0-1.558,1.09-2.239,1.398
	c-1.299,0.587-5.307,2.712-14.904,2.712c-9.587,0-13.242-1.75-14.451-2.384c-0.461-0.24-1.982-1.239-2.622-1.623l0.073,21.997
	c0,3.104,8.998,5.267,17.072,5.267s17.071-2.163,17.071-5.267v-19.778V492.181z M441.704,514.097c0,0.846-5.534,3.51-15.134,3.51
	c-9.599,0-15.133-2.664-15.133-3.512l-0.065-19.114c3.085,1.769,9.345,2.879,15.126,2.879c5.835,0,12.15-1.13,15.206-2.927V514.097z
	"/>
<g>
	<path fill="#12100B" d="M416.362,504.166c0,0,0.335,0.789,0.571,1.972c0.266,1.184,0.425,2.761,0.429,4.339
		c-0.001,1.578-0.159,3.155-0.426,4.339c-0.237,1.183-0.574,1.972-0.574,1.972s-0.337-0.789-0.574-1.972
		c-0.267-1.184-0.425-2.761-0.426-4.339c0.004-1.578,0.163-3.155,0.429-4.339C416.027,504.955,416.362,504.166,416.362,504.166z"/>
</g>
<g>
	<path fill="#12100B" d="M426.533,505.864c0,0,0.334,0.789,0.571,1.972c0.266,1.183,0.425,2.761,0.429,4.339
		c-0.002,1.578-0.158,3.156-0.426,4.339c-0.238,1.183-0.574,1.972-0.574,1.972s-0.336-0.789-0.574-1.972
		c-0.268-1.183-0.424-2.761-0.426-4.339c0.004-1.578,0.163-3.156,0.429-4.339C426.199,506.653,426.533,505.864,426.533,505.864z"/>
</g>
<g>
	<path fill="#12100B" d="M436.521,504.166c0,0,0.334,0.789,0.571,1.972c0.266,1.184,0.425,2.761,0.429,4.339
		c-0.002,1.578-0.158,3.155-0.426,4.339c-0.238,1.183-0.574,1.972-0.574,1.972s-0.336-0.789-0.574-1.972
		c-0.268-1.184-0.424-2.761-0.426-4.339c0.004-1.578,0.163-3.155,0.429-4.339C436.188,504.955,436.521,504.166,436.521,504.166z"/>
</g>
<g>
	<path fill="#12100B" d="M427.306,424.309c0,0,0.335,0.789,0.571,1.972c0.266,1.183,0.425,2.761,0.429,4.338
		c-0.001,1.578-0.159,3.155-0.426,4.338c-0.237,1.183-0.574,1.972-0.574,1.972s-0.337-0.789-0.574-1.972
		c-0.267-1.183-0.425-2.761-0.426-4.338c0.004-1.578,0.163-3.155,0.429-4.338C426.971,425.098,427.306,424.309,427.306,424.309z"/>
</g>
<g>
	<path fill="#12100B" d="M395.497,436.45c0,0,0.756,0.265,1.706,0.853c0.969,0.567,2.127,1.464,3.176,2.472
		c1.046,1.012,1.983,2.136,2.582,3.086c0.621,0.929,0.91,1.677,0.91,1.677s-0.757-0.264-1.707-0.851
		c-0.971-0.566-2.127-1.464-3.175-2.474c-1.044-1.014-1.98-2.139-2.581-3.088C395.788,437.196,395.497,436.45,395.497,436.45z"/>
</g>
<g>
	<path fill="#12100B" d="M458.235,435.913c0,0-0.21,0.785-0.73,1.793c-0.497,1.027-1.312,2.273-2.247,3.42
		c-0.939,1.145-1.999,2.19-2.909,2.879c-0.887,0.708-1.616,1.067-1.616,1.067s0.209-0.786,0.729-1.795
		c0.496-1.028,1.312-2.273,2.25-3.418c0.939-1.143,2.001-2.188,2.91-2.878C457.508,436.273,458.235,435.913,458.235,435.913z"/>
</g>
<g>
	<g>
		<path stroke="#000000" stroke-miterlimit="10" d="M214.477,572.521v-0.481v-34.499h0.473h0.472v34.065h12.046v0.434v0.481H214.477
			z"/>
		<path fill="#010202" stroke="#000000" stroke-miterlimit="10" d="M227.938,573.022H214.01v-35.983h1.879v34.064h12.049V573.022z
			 M214.942,572.02h0.011l-0.011-33.979V572.02z"/>
	</g>
	<g>
		<path stroke="#000000" stroke-miterlimit="10" d="M253.445,572.521h-0.992l-2.021-10.539h-7.818l-2.112,10.539h-0.987l6.605-34.98
			h0.765L253.445,572.521z M250.168,560.972l-3.648-20.786l-3.774,20.786H250.168z M246.342,537.541h0.045h0.09h0.043h0.047h0.092
			H246.342z"/>
		<path fill="#010202" stroke="#000000" stroke-miterlimit="10" d="M254.017,573.022h-1.944l-2.021-10.54h-7.064l-2.107,10.54h-1.94
			l6.797-35.983h1.533l0.07,0.403L254.017,573.022z M252.832,572.02h0.045l-4.521-24.076l2.371,13.528h-8.551l2.57-14.144
			l-4.668,24.691h0.045l2.107-10.539h8.583L252.832,572.02z M243.312,560.471h6.291l-3.09-17.615L243.312,560.471z"/>
	</g>
	<g>
		<path stroke="#000000" stroke-miterlimit="10" d="M301.939,540.041c1.107,1.765,1.644,3.739,1.617,5.92
			c0,1.025-0.109,1.979-0.335,2.863c-0.227,0.883-0.526,1.666-0.901,2.356c-0.374,0.69-0.804,1.259-1.281,1.71
			c-0.479,0.447-0.988,0.768-1.531,0.959c0.635,0.098,1.314,0.37,2.051,0.819c0.73,0.449,1.309,0.994,1.729,1.636
			c0.6,0.932,1.049,1.965,1.346,3.104c0.303,1.139,0.451,2.335,0.451,3.585c0,2.085-0.277,3.751-0.828,5.003
			c-0.561,1.25-1.247,2.213-2.07,2.888c-0.826,0.675-1.729,1.124-2.697,1.348c-0.974,0.225-1.91,0.337-2.811,0.337h-4.625h-0.541
			V537.49h5.663c1.288,0,2.278,0.227,2.968,0.674C300.832,538.615,301.43,539.238,301.939,540.041z M292.457,553.418h5.075
			c0.749,0,1.44-0.203,2.07-0.603c0.626-0.403,1.171-0.95,1.617-1.642c0.448-0.692,0.791-1.49,1.033-2.391
			c0.242-0.899,0.362-1.85,0.362-2.849c0-0.995-0.131-1.946-0.386-2.847c-0.254-0.899-0.606-1.689-1.054-2.363
			c-0.45-0.678-0.977-1.217-1.573-1.617c-0.601-0.404-1.263-0.605-1.983-0.605h-5.162V553.418z M296.678,571.559
			c1.471,0,2.688-0.234,3.664-0.698c0.975-0.466,1.746-1.091,2.318-1.877c0.568-0.786,0.962-1.7,1.188-2.743
			c0.227-1.042,0.32-2.124,0.291-3.247c-0.059-2.951-0.682-5.116-1.863-6.495c-1.186-1.38-3.045-2.069-5.598-2.069h-4.221v17.13
			H296.678z"/>
		<path fill="#010202" stroke="#000000" stroke-miterlimit="10" d="M296.678,573.069h-5.635V536.99h6.132
			c1.385,0,2.437,0.244,3.208,0.746c0.75,0.488,1.399,1.17,1.944,2.024c1.155,1.842,1.728,3.929,1.695,6.206
			c0,1.069-0.116,2.077-0.352,2.988c-0.233,0.919-0.553,1.754-0.95,2.478c-0.39,0.726-0.853,1.346-1.375,1.831
			c-0.174,0.168-0.357,0.319-0.546,0.454c0.316,0.135,0.649,0.308,0.988,0.517c0.791,0.482,1.423,1.084,1.883,1.781
			c0.626,0.981,1.103,2.076,1.413,3.26c0.311,1.174,0.469,2.426,0.469,3.718c0,2.146-0.297,3.903-0.875,5.217
			c-0.588,1.321-1.334,2.354-2.205,3.072c-0.881,0.718-1.854,1.201-2.887,1.439C298.588,572.952,297.613,573.069,296.678,573.069z
			 M291.979,572.067h4.699c0.31,0,0.621-0.015,0.941-0.042c-0.303,0.021-0.613,0.034-0.941,0.034h-4.691v-18.134h4.691
			c0.352,0,0.688,0.015,1.016,0.041l0.166-0.06c-0.107,0.008-0.217,0.013-0.327,0.013h-5.546v-15.921h5.578
			c-0.125-0.005-0.258-0.007-0.39-0.007h-5.196V572.067z M302.362,570.062c-0.513,0.499-1.123,0.92-1.827,1.259
			c-0.403,0.188-0.843,0.343-1.32,0.461c0.058-0.014,0.116-0.026,0.174-0.039c0.898-0.207,1.744-0.629,2.512-1.257
			C302.06,570.357,302.215,570.215,302.362,570.062z M292.922,571.058h3.756c1.395,0,2.561-0.221,3.477-0.655
			c0.897-0.431,1.617-1.01,2.135-1.728c0.529-0.729,0.896-1.583,1.104-2.548c0.217-0.986,0.31-2.034,0.278-3.121
			c-0.056-2.816-0.64-4.889-1.741-6.169c-1.088-1.265-2.854-1.908-5.252-1.908h-3.756V571.058z M304.433,560.721
			c0.103,0.701,0.161,1.453,0.177,2.262c0.004,0.109,0.004,0.222,0.004,0.333c0-0.108,0-0.216,0-0.322
			C304.613,562.215,304.555,561.457,304.433,560.721z M292.922,552.918h4.61c0.659,0,1.276-0.18,1.828-0.533
			c0.574-0.367,1.067-0.87,1.476-1.496c0.413-0.643,0.739-1.395,0.965-2.244c0.229-0.842,0.343-1.754,0.343-2.71
			c0-0.938-0.122-1.849-0.361-2.702c-0.239-0.848-0.575-1.593-0.989-2.218c-0.412-0.623-0.894-1.12-1.443-1.483
			c-0.525-0.357-1.09-0.529-1.73-0.529h-4.697V552.918z M298.459,538.086c0.494,0.104,0.959,0.305,1.389,0.595
			c0.652,0.435,1.224,1.025,1.707,1.753c0.475,0.712,0.85,1.557,1.121,2.51c0.271,0.949,0.403,1.953,0.403,2.991
			c0,1.05-0.129,2.055-0.378,2.989c-0.062,0.23-0.133,0.457-0.206,0.676c0.104-0.289,0.193-0.592,0.271-0.906
			c0.216-0.831,0.319-1.748,0.319-2.732c0.032-2.077-0.487-3.971-1.534-5.639c-0.468-0.734-1.023-1.317-1.652-1.73
			C299.527,538.354,299.051,538.184,298.459,538.086z"/>
	</g>
	<g>
		<path stroke="#000000" stroke-miterlimit="10" d="M331.372,564.965c0,0.098,0,0.355,0,0.771s-0.058,0.92-0.174,1.516
			c-0.122,0.594-0.31,1.227-0.562,1.899c-0.259,0.673-0.637,1.3-1.15,1.877c-0.6,0.644-1.445,1.131-2.537,1.466
			c-1.092,0.337-2.15,0.505-3.167,0.505c-1.024,0-2.07-0.168-3.146-0.505c-1.081-0.335-1.908-0.822-2.477-1.466
			c-0.506-0.577-0.891-1.219-1.145-1.924c-0.254-0.707-0.424-1.372-0.518-1.997c-0.088-0.627-0.133-1.164-0.133-1.611
			c0-0.449,0-0.724,0-0.818v-19.729c0-1.283,0.172-2.43,0.518-3.44c0.345-1.011,0.887-1.868,1.64-2.575
			c0.298-0.287,0.665-0.543,1.101-0.77c0.433-0.223,0.892-0.408,1.369-0.552c0.484-0.145,0.959-0.255,1.437-0.337
			c0.484-0.08,0.933-0.121,1.354-0.121c0.387,0,0.829,0.033,1.323,0.097c0.49,0.063,0.991,0.167,1.482,0.312
			c0.497,0.146,0.959,0.321,1.395,0.529c0.437,0.208,0.805,0.457,1.104,0.745c1.527,1.445,2.286,3.482,2.286,6.111V564.965z
			 M330.43,544.949c0-1.122-0.143-2.084-0.423-2.887c-0.284-0.801-0.649-1.475-1.102-2.021c-0.299-0.32-0.668-0.601-1.097-0.84
			c-0.436-0.24-0.889-0.441-1.354-0.604c-0.465-0.159-0.936-0.271-1.418-0.335c-0.478-0.064-0.896-0.098-1.255-0.098
			c-0.692,0-1.415,0.09-2.183,0.265c-0.762,0.179-1.46,0.515-2.09,1.012c-0.632,0.497-1.146,1.187-1.547,2.068
			c-0.406,0.883-0.606,2.03-0.606,3.44v19.775c-0.031,0.802,0,1.492,0.084,2.069c0.094,0.579,0.246,1.187,0.452,1.829
			c0.207,0.642,0.543,1.219,0.985,1.732c0.483,0.545,1.204,0.954,2.162,1.227c0.956,0.273,1.873,0.409,2.742,0.409
			c0.448,0,0.916-0.032,1.394-0.098c0.479-0.064,0.95-0.167,1.412-0.312c0.469-0.143,0.895-0.321,1.284-0.528
			c0.385-0.209,0.702-0.458,0.94-0.747c0.452-0.512,0.781-1.074,0.991-1.684c0.212-0.61,0.361-1.178,0.448-1.71
			c0.09-0.528,0.136-1.159,0.136-1.899L330.43,544.949z"/>
		<path fill="#010202" stroke="#000000" stroke-miterlimit="10" d="M323.782,573.502c-1.06,0-2.163-0.177-3.277-0.524
			c-1.159-0.362-2.063-0.903-2.68-1.603c-0.549-0.617-0.966-1.321-1.243-2.089c-0.266-0.739-0.449-1.444-0.543-2.101
			c-0.097-0.678-0.145-1.23-0.145-1.689v-20.547c0-1.34,0.184-2.557,0.549-3.613c0.371-1.085,0.968-2.02,1.766-2.777
			c0.336-0.317,0.74-0.602,1.211-0.846c0.465-0.239,0.959-0.436,1.453-0.584c0.484-0.146,0.984-0.264,1.488-0.348
			c0.965-0.16,1.697-0.168,2.799-0.029c0.523,0.068,1.043,0.179,1.553,0.328c0.514,0.15,1.008,0.336,1.463,0.555
			c0.482,0.232,0.893,0.514,1.221,0.829c1.624,1.534,2.447,3.717,2.447,6.485v20.787c0,0.453-0.062,1.002-0.189,1.62
			c-0.123,0.617-0.323,1.282-0.582,1.98c-0.281,0.739-0.701,1.423-1.246,2.038c-0.662,0.708-1.582,1.243-2.748,1.603
			C325.945,573.325,324.838,573.502,323.782,573.502z M321.441,572.202c1.146,0.286,2.221,0.368,3.342,0.241
			C323.685,572.554,322.6,572.478,321.441,572.202z M323.782,538.666c-0.656,0-1.337,0.082-2.079,0.252
			c-0.701,0.163-1.344,0.475-1.915,0.927c-0.565,0.446-1.04,1.079-1.408,1.884c-0.371,0.808-0.555,1.891-0.555,3.221v19.775
			c-0.032,0.768-0.004,1.43,0.077,1.988c0.087,0.543,0.232,1.133,0.433,1.746c0.184,0.564,0.485,1.089,0.888,1.556
			c0.417,0.471,1.066,0.837,1.934,1.084c1.389,0.395,2.635,0.474,3.959,0.298c0.459-0.062,0.91-0.16,1.343-0.297
			c0.434-0.133,0.837-0.301,1.205-0.495c0.333-0.179,0.601-0.39,0.8-0.631c0.414-0.471,0.714-0.979,0.902-1.522
			c0.199-0.58,0.341-1.125,0.426-1.627c0.084-0.49,0.129-1.098,0.129-1.811l0.045-20.066c0-1.051-0.133-1.963-0.396-2.709
			c-0.263-0.739-0.602-1.369-1.015-1.866c-0.241-0.255-0.571-0.509-0.962-0.728c-0.404-0.223-0.833-0.415-1.281-0.572
			c-0.443-0.148-0.886-0.257-1.327-0.314C324.524,538.699,324.124,538.666,323.782,538.666z M319.907,538.574
			c-0.025,0.013-0.056,0.029-0.083,0.041c-0.389,0.202-0.725,0.437-0.992,0.693c-0.684,0.647-1.194,1.444-1.507,2.371
			c-0.33,0.949-0.494,2.047-0.494,3.27v20.547c0,0.409,0.048,0.912,0.132,1.537c0.087,0.584,0.252,1.222,0.49,1.895
			c0.233,0.64,0.588,1.235,1.05,1.758c0.242,0.272,0.546,0.518,0.901,0.733c-0.336-0.208-0.627-0.452-0.861-0.719
			c-0.498-0.572-0.866-1.216-1.092-1.911c-0.217-0.668-0.372-1.311-0.469-1.91c-0.098-0.631-0.129-1.363-0.098-2.175v-19.755
			c0-1.485,0.221-2.717,0.659-3.661c0.433-0.951,1.001-1.707,1.688-2.251C319.445,538.864,319.674,538.711,319.907,538.574z
			 M329.422,539.926c0.417,0.56,0.76,1.21,1.024,1.959c0.3,0.86,0.455,1.891,0.455,3.064l-0.046,20.066
			c0,0.783-0.045,1.433-0.145,1.989c-0.09,0.554-0.249,1.159-0.469,1.793c-0.232,0.669-0.594,1.291-1.088,1.852
			c-0.09,0.111-0.193,0.219-0.307,0.317c0.113-0.094,0.217-0.189,0.307-0.292c0.459-0.514,0.814-1.095,1.046-1.711
			c0.242-0.644,0.427-1.257,0.539-1.82c0.113-0.55,0.169-1.021,0.169-1.407v-20.787
			C330.908,542.855,330.416,541.204,329.422,539.926z M323.782,537.664c0.37,0,0.801,0.031,1.313,0.1
			c0.497,0.065,1.005,0.188,1.502,0.355c0.493,0.174,0.976,0.389,1.423,0.637c0.433,0.241,0.808,0.521,1.12,0.832
			c-0.115-0.129-0.238-0.256-0.367-0.374c-0.262-0.253-0.592-0.476-0.981-0.666c-0.413-0.194-0.859-0.364-1.323-0.5
			c-0.469-0.138-0.939-0.237-1.422-0.301c-0.748-0.093-1.284-0.118-1.895-0.063C323.365,537.672,323.574,537.664,323.782,537.664z"
			/>
	</g>
	<g>
		<path stroke="#000000" stroke-miterlimit="10" d="M350.119,558.133l-0.854-2.406l-0.858,2.406l-5.118,14.389h-1.039l5.263-14.726
			l1.21-3.415l-5.931-16.65h0.991l5.438,15.734l5.524-15.734h0.988l-5.978,16.65l1.215,3.415l5.309,14.677h-1.04L350.119,558.133z"
			/>
		<path fill="#010202" stroke="#000000" stroke-miterlimit="10" d="M343.609,573.022h-2.035l6.648-18.642l-6.111-17.15h1.996
			l5.117,14.801l5.197-14.801h1.992l-6.154,17.15l1.15,3.237l5.551,15.354h-2.042l-0.118-0.322l-5.535-15.512L343.609,573.022z
			 M342.935,572.02h0.028l6.177-17.347l-0.013-0.026L342.935,572.02z M355.565,571.971h0.025l-2.687-7.434L355.565,571.971z"/>
	</g>
	<g>
		<path stroke="#000000" stroke-miterlimit="10" d="M395.555,537.541h6.743c0.813,0,1.591,0.151,2.341,0.455
			c0.745,0.305,1.406,0.746,1.975,1.324c1.44,1.443,2.156,3.449,2.156,6.014v19.391c0,2.632-0.716,4.638-2.156,6.015
			c-0.568,0.577-1.229,1.019-1.975,1.322c-0.75,0.307-1.527,0.46-2.341,0.46h-3.64h-3.104v-0.481V537.541z M407.828,545.334
			c0-1.155-0.158-2.166-0.475-3.031c-0.313-0.867-0.734-1.572-1.257-2.117c-0.525-0.545-1.116-0.954-1.772-1.225
			c-0.661-0.273-1.336-0.411-2.026-0.411h-3.64h-2.154v32.958h2.154h3.64c0.69,0,1.365-0.126,2.026-0.383
			c0.656-0.255,1.247-0.667,1.772-1.228c0.522-0.561,0.943-1.268,1.257-2.116c0.316-0.85,0.475-1.869,0.475-3.057V545.334z"/>
		<path fill="#010202" stroke="#000000" stroke-miterlimit="10" d="M402.298,573.022h-7.21v-35.983h7.21
			c0.862,0,1.704,0.164,2.505,0.489c0.814,0.331,1.53,0.81,2.131,1.43c1.527,1.528,2.307,3.674,2.307,6.376v19.391
			c0,2.771-0.782,4.921-2.316,6.389c-0.597,0.611-1.314,1.091-2.121,1.417C404.006,572.858,403.162,573.022,402.298,573.022z
			 M396.021,572.02h6.277c0.633,0,1.246-0.101,1.837-0.301c-0.598,0.192-1.217,0.292-1.837,0.292h-6.265v-33.962h6.265
			c0.741,0,1.481,0.148,2.194,0.443c0.718,0.295,1.363,0.744,1.932,1.332c0.574,0.6,1.033,1.371,1.369,2.296
			c0.332,0.921,0.5,2.003,0.5,3.214v19.391c0,1.245-0.168,2.336-0.5,3.24c-0.297,0.797-0.686,1.487-1.159,2.052
			c1.123-1.271,1.669-3.008,1.669-5.292v-19.391c0-2.412-0.678-4.312-2.008-5.648c-0.521-0.529-1.134-0.938-1.828-1.222
			c-0.688-0.28-1.421-0.423-2.169-0.423h-6.277V572.02z M396.971,571.009h5.327c0.633,0,1.262-0.122,1.865-0.355
			c0.592-0.229,1.131-0.603,1.603-1.109c0.478-0.511,0.864-1.167,1.156-1.947c0.292-0.786,0.436-1.753,0.436-2.872v-19.391
			c0-1.087-0.144-2.047-0.436-2.849c-0.292-0.792-0.679-1.444-1.15-1.942c-0.478-0.494-1.021-0.869-1.617-1.115
			c-0.607-0.248-1.228-0.376-1.856-0.376h-5.327V571.009z"/>
	</g>
	<g>
		<path stroke="#000000" stroke-miterlimit="10" d="M434.564,571.606v0.434v0.481h-12.676v-0.481v-33.972v-0.527h12.495v0.527v0.386
			h-11.553v22.196h9.038v0.482v0.434h-9.038v10.04H434.564z"/>
		<path fill="#010202" stroke="#000000" stroke-miterlimit="10" d="M435.033,573.022h-13.609v-35.983h13.432v1.915h-11.553v21.196
			h9.034v1.916h-9.034v9.037h11.73V573.022z M422.361,572.02h0.006l-0.006-33.979V572.02z"/>
	</g>
	<g>
		<path stroke="#000000" stroke-miterlimit="10" d="M449.036,571.27c-0.747-0.705-1.308-1.651-1.683-2.838
			c-0.377-1.187-0.562-2.457-0.562-3.802h0.946c0,1.54,0.199,2.79,0.606,3.751c0.401,0.965,0.907,1.708,1.521,2.239
			c0.617,0.529,1.285,0.884,2.002,1.058c0.721,0.178,1.395,0.265,2.025,0.265c0.777,0,1.549-0.121,2.314-0.36
			c0.762-0.242,1.452-0.626,2.066-1.156c0.617-0.528,1.107-1.227,1.484-2.094c0.371-0.863,0.56-1.924,0.56-3.176
			c0-1.441-0.191-2.701-0.578-3.774c-0.392-1.075-0.911-2.03-1.55-2.864c-0.649-0.832-1.376-1.579-2.183-2.237
			c-0.812-0.655-1.637-1.307-2.474-1.946c-0.807-0.61-1.578-1.211-2.314-1.808c-0.736-0.593-1.402-1.257-2.002-1.997
			c-1.313-1.697-1.973-3.59-1.973-5.678c0-0.095,0-0.343,0-0.745c0-0.399,0.045-0.874,0.148-1.419
			c0.096-0.544,0.262-1.139,0.494-1.779c0.227-0.641,0.594-1.234,1.107-1.78c1.166-1.347,2.803-2.021,4.898-2.021
			c2.127,0,3.731,0.674,4.808,2.021c0.451,0.578,0.771,1.209,0.968,1.901c0.19,0.689,0.319,1.347,0.385,1.971
			c0.057,0.627,0.076,1.156,0.064,1.589c-0.014,0.433-0.022,0.665-0.022,0.698h-0.943c0.032-0.771,0.017-1.445-0.042-2.021
			c-0.064-0.578-0.178-1.179-0.34-1.804c-0.168-0.627-0.441-1.179-0.832-1.661c-0.452-0.546-1.004-0.963-1.659-1.251
			c-0.662-0.288-1.456-0.433-2.386-0.433c-1.828,0-3.221,0.562-4.182,1.684c-0.417,0.482-0.733,1.01-0.943,1.588
			c-0.209,0.578-0.357,1.115-0.448,1.611c-0.091,0.498-0.133,1.102-0.133,1.806c0,1.058,0.165,1.997,0.494,2.813
			c0.333,0.818,0.769,1.572,1.308,2.263s1.162,1.323,1.873,1.899c0.707,0.578,1.438,1.155,2.188,1.733
			c0.868,0.642,1.724,1.315,2.567,2.021c0.842,0.706,1.611,1.509,2.299,2.406c1.565,2.054,2.348,4.459,2.348,7.215
			c0,2.603-0.808,4.622-2.425,6.065c-1.321,1.153-2.968,1.732-4.946,1.732c-0.688,0-1.477-0.106-2.36-0.313
			C450.646,572.433,449.816,571.975,449.036,571.27z"/>
		<path fill="#010202" stroke="#000000" stroke-miterlimit="10" d="M453.893,573.455c-0.715,0-1.537-0.109-2.461-0.326
			c-0.953-0.222-1.859-0.719-2.695-1.475c-0.814-0.768-1.428-1.795-1.824-3.062c-0.389-1.233-0.588-2.568-0.588-3.962v-0.503h1.879
			v0.503c0,1.463,0.19,2.655,0.568,3.545c0.367,0.884,0.836,1.575,1.389,2.055c0.561,0.479,1.168,0.801,1.811,0.957
			c1.527,0.375,2.797,0.327,4.104-0.087c0.704-0.221,1.344-0.578,1.904-1.062c0.553-0.479,1.012-1.122,1.356-1.916
			c0.339-0.793,0.514-1.791,0.514-2.965c0-1.373-0.185-2.584-0.548-3.596c-0.372-1.021-0.869-1.936-1.477-2.723
			c-0.617-0.799-1.32-1.522-2.098-2.158c-0.809-0.652-1.631-1.3-2.467-1.939c-0.809-0.608-1.583-1.215-2.326-1.812
			c-0.748-0.607-1.452-1.305-2.072-2.068c-1.389-1.794-2.088-3.811-2.088-6.008v-0.745c0-0.444,0.054-0.956,0.16-1.517
			c0.104-0.567,0.275-1.193,0.518-1.863c0.248-0.699,0.654-1.359,1.214-1.952c1.243-1.434,3.002-2.169,5.228-2.169
			c2.26,0,3.996,0.738,5.165,2.195c0.494,0.636,0.846,1.332,1.06,2.083c0.2,0.718,0.335,1.409,0.396,2.063
			c0.062,0.648,0.088,1.206,0.071,1.658c-0.017,0.412-0.021,0.641-0.021,0.684l-0.002,0.494l-1.898,0.005l0.016-0.521
			c0.033-0.744,0.017-1.398-0.039-1.947c-0.057-0.539-0.168-1.121-0.318-1.726c-0.155-0.56-0.395-1.042-0.739-1.464
			c-0.397-0.484-0.898-0.859-1.483-1.115c-0.598-0.264-1.343-0.396-2.207-0.396c-1.703,0-2.961,0.497-3.836,1.521
			c-0.379,0.436-0.662,0.916-0.856,1.434c-0.192,0.549-0.339,1.062-0.419,1.52c-0.084,0.46-0.129,1.033-0.129,1.712
			c0,0.984,0.154,1.866,0.458,2.615c0.31,0.77,0.729,1.489,1.239,2.14c0.518,0.66,1.117,1.273,1.793,1.821
			c0.709,0.575,1.434,1.149,2.182,1.725c0.865,0.642,1.737,1.325,2.583,2.032c0.866,0.729,1.663,1.564,2.373,2.483
			c1.624,2.136,2.45,4.671,2.45,7.534c0,2.743-0.877,4.914-2.595,6.45C457.734,572.833,455.968,573.455,453.893,573.455z
			 M447.815,568.339c0.351,1.068,0.865,1.927,1.534,2.555c0.71,0.646,1.481,1.07,2.283,1.258c0.854,0.2,1.613,0.301,2.26,0.301
			c1.679,0,3.121-0.446,4.291-1.327c-0.56,0.414-1.179,0.729-1.844,0.937c-1.457,0.46-2.896,0.521-4.579,0.104
			c-0.78-0.191-1.514-0.579-2.183-1.156c-0.674-0.58-1.23-1.396-1.666-2.422C447.881,568.506,447.852,568.423,447.815,568.339z
			 M460.74,563.959c0.032,0.387,0.047,0.785,0.047,1.197c0,0.756-0.066,1.454-0.199,2.087c0.136-0.64,0.207-1.335,0.207-2.087
			C460.795,564.752,460.775,564.351,460.74,563.959z M453.893,537.608c-1.954,0-3.484,0.627-4.553,1.86
			c-0.479,0.506-0.818,1.047-1.014,1.617c-0.227,0.611-0.382,1.185-0.473,1.697c-0.096,0.502-0.145,0.945-0.145,1.323v0.745
			c0,1.957,0.629,3.76,1.873,5.359c0.567,0.702,1.217,1.35,1.918,1.918c0.297,0.236,0.594,0.478,0.904,0.717
			c-0.281-0.223-0.557-0.443-0.828-0.666c-0.726-0.592-1.384-1.258-1.943-1.975c-0.568-0.721-1.036-1.525-1.385-2.386
			c-0.352-0.878-0.529-1.891-0.529-3.014c0-0.753,0.045-1.374,0.139-1.902c0.101-0.52,0.252-1.075,0.475-1.694
			c0.232-0.637,0.584-1.221,1.033-1.748c1.05-1.224,2.573-1.845,4.527-1.845c0.987,0,1.852,0.158,2.559,0.47
			c0.722,0.315,1.34,0.782,1.838,1.383c0.434,0.533,0.742,1.156,0.934,1.854c0.168,0.658,0.287,1.292,0.352,1.884
			c0.045,0.467,0.064,0.996,0.058,1.579h0.007c0.008-0.064,0.008-0.138,0.01-0.216c0.016-0.406-0.01-0.92-0.062-1.521
			c-0.062-0.588-0.187-1.219-0.368-1.875c-0.174-0.621-0.471-1.203-0.874-1.725C457.35,538.213,455.896,537.608,453.893,537.608z"/>
	</g>
	<g>
		<path stroke="#000000" stroke-miterlimit="10" d="M513.223,564.533c0,0.032,0,0.283,0,0.746c0,0.465-0.052,1.031-0.155,1.707
			c-0.106,0.674-0.287,1.38-0.542,2.118c-0.252,0.737-0.637,1.396-1.146,1.971c-1.166,1.316-2.789,1.975-4.856,1.975
			c-2.063,0-3.638-0.658-4.714-1.975c-0.545-0.607-0.938-1.266-1.194-1.971c-0.252-0.707-0.423-1.372-0.517-1.997
			c-0.091-0.627-0.126-1.164-0.113-1.611c0.017-0.449,0.022-0.724,0.022-0.818v-19.775c0-2.566,0.72-4.571,2.157-6.016
			c0.571-0.543,1.236-0.978,2.002-1.299c0.766-0.32,1.551-0.48,2.356-0.48c1.618,0,3.091,0.576,4.407,1.73
			c0.75,0.674,1.328,1.598,1.73,2.768c0.407,1.172,0.607,2.445,0.607,3.825h-0.988c0-1.252-0.171-2.343-0.517-3.272
			c-0.349-0.931-0.794-1.69-1.353-2.285c-0.557-0.592-1.172-1.035-1.863-1.323c-0.688-0.288-1.362-0.433-2.024-0.433
			c-0.684,0-1.368,0.137-2.044,0.41c-0.674,0.271-1.271,0.68-1.798,1.225c-0.522,0.547-0.942,1.252-1.259,2.118
			c-0.312,0.866-0.473,1.877-0.473,3.032v19.822v0.048c0,0.803,0.039,1.486,0.114,2.045c0.077,0.562,0.229,1.163,0.452,1.806
			c0.223,0.642,0.564,1.219,1.01,1.732c0.959,1.122,2.289,1.685,3.997,1.685c1.77,0,3.147-0.562,4.14-1.685
			c0.445-0.514,0.788-1.1,1.011-1.756c0.226-0.656,0.384-1.292,0.468-1.901c0.097-0.608,0.139-1.331,0.139-2.165H513.223z"/>
		<path fill="#010202" stroke="#000000" stroke-miterlimit="10" d="M506.522,573.551c-2.194,0-3.9-0.722-5.065-2.144
			c-0.564-0.636-1.002-1.354-1.279-2.121c-0.261-0.739-0.445-1.444-0.539-2.101c-0.096-0.647-0.135-1.223-0.122-1.708
			c0.013-0.439,0.022-0.707,0.022-0.8v-19.775c0-2.699,0.775-4.846,2.305-6.381c0.623-0.593,1.344-1.062,2.15-1.4
			c0.817-0.342,1.666-0.516,2.528-0.516c1.724,0,3.307,0.623,4.704,1.845c0.814,0.733,1.443,1.733,1.87,2.979
			c0.419,1.221,0.64,2.564,0.64,4.001v0.501h-1.928v-0.501c0-1.184-0.158-2.22-0.48-3.089c-0.324-0.865-0.743-1.578-1.244-2.113
			c-0.51-0.543-1.084-0.952-1.708-1.213c-1.281-0.539-2.519-0.506-3.732-0.021c-0.606,0.245-1.159,0.622-1.638,1.117
			c-0.474,0.496-0.861,1.147-1.146,1.94c-0.294,0.803-0.442,1.762-0.442,2.85v19.822c0,0.807,0.039,1.471,0.11,2.024
			c0.064,0.513,0.206,1.067,0.427,1.7c0.193,0.57,0.502,1.097,0.91,1.565c0.881,1.026,2.075,1.524,3.657,1.524
			c1.65,0,2.89-0.5,3.802-1.527c0.406-0.464,0.709-0.999,0.91-1.582c0.216-0.625,0.363-1.233,0.445-1.809
			c0.086-0.573,0.129-1.277,0.129-2.088v-0.502h1.879v1.248c0,0.496-0.052,1.1-0.162,1.791c-0.109,0.701-0.294,1.443-0.561,2.207
			c-0.275,0.795-0.691,1.515-1.246,2.144C510.463,572.833,508.723,573.551,506.522,573.551z M502.865,538.924
			c-0.137,0.105-0.266,0.22-0.391,0.338c-1.324,1.33-1.996,3.23-1.996,5.641v19.775c0,0.097-0.01,0.377-0.025,0.832
			c-0.016,0.424,0.025,0.937,0.106,1.519c0.087,0.589,0.251,1.227,0.493,1.899c0.23,0.64,0.598,1.249,1.092,1.805
			c1.008,1.227,2.438,1.816,4.378,1.816c1.931,0,3.446-0.612,4.515-1.816c0.467-0.53,0.82-1.135,1.049-1.802
			c0.245-0.703,0.416-1.387,0.52-2.028c0.098-0.635,0.148-1.182,0.148-1.623l-0.013-0.245c-0.013,0.66-0.058,1.235-0.136,1.744
			c-0.09,0.636-0.254,1.308-0.493,1.996c-0.243,0.708-0.61,1.357-1.104,1.922c-1.085,1.225-2.594,1.843-4.485,1.843
			c-1.831,0-3.294-0.618-4.343-1.845c-0.486-0.562-0.865-1.202-1.104-1.896c-0.242-0.698-0.4-1.327-0.478-1.911
			c-0.074-0.598-0.116-1.312-0.116-2.114v-19.87c0-1.213,0.168-2.295,0.504-3.215c0.338-0.924,0.793-1.695,1.371-2.294
			C502.516,539.226,502.689,539.068,502.865,538.924z M512.738,544.928h0.052c-0.046-1.127-0.236-2.184-0.569-3.149
			c-0.373-1.083-0.909-1.942-1.591-2.557c-1.221-1.068-2.603-1.613-4.107-1.613c-0.632,0-1.269,0.11-1.879,0.327
			c1.324-0.456,2.698-0.438,4.079,0.148c0.741,0.309,1.42,0.793,2.02,1.436c0.595,0.631,1.082,1.457,1.453,2.453
			C512.519,542.828,512.693,543.822,512.738,544.928z"/>
	</g>
	<g>
		<path stroke="#000000" stroke-miterlimit="10" d="M527.287,560.65h12.317v-23.637h0.448h0.498v31.454h-0.498h-0.448v-6.901
			h-12.317v6.901h-0.45h-0.493"/>
		<path fill="#010202" stroke="#000000" stroke-miterlimit="10" d="M541.014,572.978h-1.879v-10.911h-11.377v10.911h-1.879v-35.964
			h1.879v23.137h11.377v-23.137h1.879V572.978z M540.072,571.975h0.01l-0.01-33.957V571.975z M526.814,571.975h0.007l-0.007-33.957
			V571.975z"/>
	</g>
	<g>
		<path stroke="#000000" stroke-miterlimit="10" d="M566.838,571.606v0.434v0.481h-12.676v-0.481v-33.972v-0.527h12.495v0.527v0.386
			h-11.553v22.196h9.034v0.482v0.434h-9.034v10.04H566.838z"/>
		<path fill="#010202" stroke="#000000" stroke-miterlimit="10" d="M567.303,573.022h-13.606v-35.983h13.43v1.915h-11.549v21.196
			h9.033v1.916h-9.033v9.037h11.726V573.022z M554.631,542.052v29.968"/>
	</g>
	<g>
		<path stroke="#000000" stroke-miterlimit="10" d="M592.681,537.541v0.527v0.386h-11.865v22.149h9.305v0.505v0.507l-9.261-0.049
			l-0.044,10.955h-0.495h-0.447v-34.453v-0.527H592.681z"/>
		<path fill="#010202" stroke="#000000" stroke-miterlimit="10" d="M581.283,573.022h-1.882v-35.983h13.75v1.915h-11.868v21.149
			h9.305v2.014l-9.26-0.05L581.283,573.022z M580.341,572.02h0.006l0.046-14.924h-0.046l-0.006-19.055V572.02z"/>
	</g>
	<g>
		<path stroke="#000000" stroke-miterlimit="10" d="M606.884,571.27c-0.75-0.705-1.307-1.651-1.686-2.838
			c-0.374-1.187-0.559-2.457-0.559-3.802h0.943c0,1.54,0.2,2.79,0.606,3.751c0.404,0.965,0.907,1.708,1.524,2.239
			c0.613,0.529,1.285,0.884,2.001,1.058c0.721,0.178,1.393,0.265,2.024,0.265c0.777,0,1.551-0.121,2.312-0.36
			c0.764-0.242,1.453-0.626,2.068-1.156c0.615-0.528,1.107-1.227,1.482-2.094c0.371-0.863,0.562-1.924,0.562-3.176
			c0-1.441-0.195-2.701-0.584-3.774c-0.389-1.075-0.906-2.03-1.551-2.864c-0.643-0.832-1.371-1.579-2.176-2.237
			c-0.814-0.655-1.641-1.307-2.476-1.946c-0.809-0.61-1.579-1.211-2.315-1.808c-0.736-0.593-1.402-1.257-2.003-1.997
			c-1.313-1.697-1.973-3.59-1.973-5.678c0-0.095,0-0.343,0-0.745c0-0.399,0.05-0.874,0.15-1.419
			c0.099-0.544,0.264-1.139,0.493-1.779c0.226-0.641,0.594-1.234,1.107-1.78c1.168-1.347,2.806-2.021,4.9-2.021
			c2.125,0,3.729,0.674,4.807,2.021c0.451,0.578,0.773,1.209,0.965,1.901c0.195,0.689,0.324,1.347,0.385,1.971
			c0.059,0.627,0.078,1.156,0.068,1.589c-0.016,0.433-0.023,0.665-0.023,0.698h-0.943c0.027-0.771,0.014-1.445-0.045-2.021
			c-0.059-0.578-0.176-1.179-0.334-1.804c-0.168-0.627-0.443-1.179-0.836-1.661c-0.449-0.546-1.002-0.963-1.66-1.251
			c-0.662-0.288-1.455-0.433-2.383-0.433c-1.83,0-3.219,0.562-4.184,1.684c-0.414,0.482-0.733,1.01-0.943,1.588
			c-0.207,0.578-0.355,1.115-0.445,1.611c-0.091,0.498-0.133,1.102-0.133,1.806c0,1.058,0.161,1.997,0.491,2.813
			c0.333,0.818,0.769,1.572,1.308,2.263c0.542,0.69,1.166,1.323,1.872,1.899c0.711,0.578,1.437,1.155,2.188,1.733
			c0.869,0.642,1.727,1.315,2.57,2.021c0.84,0.706,1.607,1.509,2.299,2.406c1.566,2.054,2.346,4.459,2.346,7.215
			c0,2.603-0.809,4.622-2.428,6.065c-1.314,1.153-2.965,1.732-4.941,1.732c-0.691,0-1.478-0.106-2.363-0.313
			C608.491,572.433,607.661,571.975,606.884,571.27z"/>
		<path fill="#010202" stroke="#000000" stroke-miterlimit="10" d="M611.739,573.455c-0.713,0-1.539-0.109-2.46-0.326
			c-0.955-0.222-1.86-0.719-2.7-1.475c-0.812-0.768-1.423-1.795-1.824-3.062c-0.387-1.233-0.587-2.568-0.587-3.962v-0.503h1.88
			v0.503c0,1.463,0.192,2.655,0.567,3.545c0.368,0.884,0.84,1.575,1.392,2.055c0.56,0.479,1.166,0.801,1.81,0.957
			c1.526,0.375,2.794,0.327,4.103-0.087c0.705-0.221,1.342-0.578,1.908-1.062c0.551-0.479,1.01-1.122,1.354-1.916
			c0.34-0.793,0.512-1.791,0.512-2.965c0-1.373-0.184-2.584-0.549-3.596c-0.371-1.021-0.869-1.936-1.475-2.723
			c-0.613-0.799-1.316-1.522-2.1-2.158c-0.807-0.652-1.627-1.3-2.466-1.939c-0.808-0.608-1.582-1.215-2.321-1.812
			c-0.753-0.607-1.454-1.305-2.076-2.068c-1.385-1.794-2.086-3.811-2.086-6.008v-0.745c0-0.444,0.055-0.956,0.158-1.517
			c0.104-0.567,0.275-1.193,0.52-1.863c0.246-0.699,0.653-1.359,1.214-1.952c1.24-1.434,3.003-2.169,5.228-2.169
			c2.256,0,3.996,0.738,5.162,2.195c0.494,0.636,0.846,1.332,1.062,2.083c0.201,0.718,0.334,1.409,0.395,2.063
			c0.064,0.648,0.088,1.206,0.07,1.658c-0.008,0.412-0.02,0.641-0.02,0.684l-0.004,0.494l-1.895,0.005l0.02-0.521
			c0.029-0.744,0.012-1.398-0.041-1.947c-0.059-0.539-0.168-1.121-0.324-1.726c-0.15-0.56-0.389-1.042-0.74-1.464
			c-0.395-0.484-0.896-0.859-1.477-1.115c-0.602-0.264-1.344-0.396-2.209-0.396c-1.708,0-2.961,0.497-3.839,1.521
			c-0.375,0.436-0.661,0.916-0.853,1.434c-0.197,0.549-0.342,1.062-0.419,1.52c-0.088,0.46-0.129,1.033-0.129,1.712
			c0,0.984,0.15,1.866,0.458,2.615c0.311,0.77,0.727,1.489,1.236,2.14c0.517,0.66,1.12,1.273,1.792,1.821
			c0.711,0.575,1.434,1.149,2.183,1.725c0.865,0.642,1.736,1.325,2.582,2.032c0.865,0.729,1.662,1.564,2.373,2.483
			c1.627,2.136,2.455,4.671,2.455,7.534c0,2.743-0.879,4.914-2.6,6.45C615.579,572.833,613.813,573.455,611.739,573.455z
			 M605.66,568.339c0.355,1.068,0.865,1.927,1.537,2.555c0.707,0.646,1.478,1.07,2.282,1.258c0.852,0.2,1.61,0.301,2.26,0.301
			c1.68,0,3.119-0.446,4.291-1.327c-0.562,0.414-1.18,0.729-1.844,0.937c-1.453,0.46-2.899,0.521-4.578,0.104
			c-0.784-0.191-1.52-0.579-2.186-1.156c-0.672-0.58-1.229-1.396-1.66-2.422C605.728,568.506,605.695,568.423,605.66,568.339z
			 M618.581,563.959c0.035,0.387,0.051,0.785,0.051,1.197c0,0.756-0.062,1.454-0.199,2.087c0.139-0.64,0.205-1.335,0.205-2.087
			C618.638,564.752,618.622,564.351,618.581,563.959z M611.739,537.608c-1.956,0-3.486,0.627-4.556,1.86
			c-0.478,0.506-0.811,1.047-1.015,1.617c-0.222,0.611-0.38,1.185-0.471,1.697c-0.096,0.502-0.142,0.945-0.142,1.323v0.745
			c0,1.957,0.63,3.76,1.866,5.359c0.571,0.702,1.221,1.35,1.924,1.918c0.298,0.236,0.594,0.478,0.905,0.717
			c-0.285-0.223-0.557-0.443-0.831-0.666c-0.726-0.592-1.386-1.258-1.942-1.975c-0.568-0.721-1.034-1.525-1.383-2.386
			c-0.352-0.878-0.533-1.891-0.533-3.014c0-0.753,0.05-1.374,0.146-1.902c0.094-0.52,0.246-1.075,0.469-1.694
			c0.232-0.637,0.581-1.221,1.036-1.748c1.05-1.224,2.57-1.845,4.526-1.845c0.984,0,1.846,0.158,2.561,0.47
			c0.719,0.315,1.338,0.782,1.832,1.383c0.434,0.533,0.748,1.156,0.934,1.854c0.168,0.658,0.291,1.292,0.35,1.884
			c0.053,0.467,0.07,0.996,0.062,1.579h0.008c0.004-0.064,0.004-0.138,0.008-0.216c0.016-0.406-0.008-0.92-0.061-1.521
			c-0.061-0.588-0.184-1.219-0.369-1.875c-0.17-0.621-0.471-1.203-0.871-1.725C615.194,538.213,613.745,537.608,611.739,537.608z"/>
	</g>
</g>
<path fill="#010203" stroke="#000000" stroke-miterlimit="10" d="M202.716,559.246c0,0.762-0.62,1.381-1.383,1.381
	c-0.758,0-1.378-0.619-1.378-1.381c0-0.763,0.62-1.381,1.378-1.381C202.096,557.865,202.716,558.483,202.716,559.246z"/>
<path fill="#010203" stroke="#000000" stroke-miterlimit="10" d="M628.659,559.194c0,0.762-0.621,1.38-1.385,1.38
	c-0.758,0-1.379-0.618-1.379-1.38c0-0.763,0.621-1.381,1.379-1.381C628.038,557.813,628.659,558.432,628.659,559.194z"/>
<rect x="393.551" y="589.375" fill="#010203" width="65.67" height="2.25"/>
<g>
	<path fill="#12100B" d="M187.445,709.073c0,0-0.173,0.714-0.295,1.781c-0.129,1.066-0.22,2.486-0.214,3.91
		c0.004,1.423,0.1,2.845,0.238,3.909c0.123,1.065,0.306,1.777,0.306,1.777s0.176-0.712,0.296-1.775
		c0.13-1.07,0.222-2.49,0.212-3.913c-0.002-1.422-0.099-2.846-0.235-3.913C187.625,709.785,187.445,709.073,187.445,709.073z"/>
	<path fill="#12100B" d="M202.619,681.653c0,0-0.066,0.032-0.164,0.089C202.562,681.686,202.619,681.653,202.619,681.653z"/>
	<path fill="#12100B" d="M195.442,721.507c0,0,0.021-0.147,0.053-0.41l-0.109,0.002
		C195.415,721.355,195.442,721.507,195.442,721.507z"/>
	<path fill="#12100B" d="M195.603,709.804c0,0-0.171,0.713-0.295,1.78c-0.129,1.065-0.223,2.488-0.213,3.911
		c0,1.422,0.098,2.843,0.231,3.907c0.131,1.067,0.312,1.78,0.312,1.78s0.172-0.713,0.292-1.78c0.133-1.067,0.221-2.488,0.215-3.912
		c-0.003-1.423-0.105-2.845-0.238-3.906C195.78,710.517,195.603,709.804,195.603,709.804z"/>
	<path fill="#12100B" d="M194.717,663.673c-18.135,0-32.835,14.7-32.835,32.834c0,18.133,14.7,32.833,32.835,32.833
		c18.132,0,32.832-14.7,32.832-32.833C227.549,678.373,212.849,663.673,194.717,663.673z M207.421,703.315l0.045,16.403
		c0.009,2.333-6.47,4.244-12.596,4.264c-7.351,0.021-11.916-1.859-11.923-4.194l0.047-17.693l0.141-0.002
		c0.297,0.264,0.592,0.499,0.884,0.72c1.218,0.937,2.186,1.269,3.135,1.545c1.163,0.347,1.93,0.481,2.659,0.537
		c0.794,0.056,1.366-0.01,1.752-0.007c0.389,0,0.509-0.284,0.509-0.284s-2.226-0.183-3.625-0.754
		c-0.701-0.284-1.549-0.675-2.492-1.252c-0.939-0.589-1.985-1.315-3.062-2.314c-1.073-1.004-2.175-2.285-3.161-3.954
		c-0.975-1.684-1.823-3.773-2.316-6.219c-0.264-1.208-0.415-2.524-0.517-3.9c-0.092-1.292-0.122-2.689-0.026-4.012
		c0.171-2.673,0.854-5.173,1.937-6.968c1.069-1.817,2.525-2.859,3.999-3.131c1.48-0.287,2.991,0.139,4.336,1.118
		c0.341,0.229,0.656,0.513,0.991,0.812c0.338,0.31,0.674,0.617,1.004,0.924c0.655,0.614,1.292,1.225,1.912,1.844
		c1.238,1.239,2.424,2.425,3.56,3.419c1.128,1.009,2.233,1.752,3.249,2.128c1.012,0.37,1.922,0.455,2.649,0.296
		c0.729-0.11,1.155-0.481,1.53-0.679c0.007-0.002,0.008-0.006,0.015-0.008c-0.377,0.099-0.902,0.157-1.557,0.146
		c-0.71,0.02-1.566-0.229-2.497-0.757c-0.934-0.538-2.171-1.688-3.23-2.789l0.411-0.563c2.439-3.294,11.264-4.872,16.283,0.664
		C216.883,684.638,214.346,698.176,207.421,703.315z"/>
	<path fill="#12100B" d="M203.217,708.416c0,0-0.173,0.712-0.295,1.777c-0.131,1.067-0.221,2.491-0.215,3.91
		c0,1.423,0.1,2.846,0.233,3.91c0.131,1.066,0.31,1.776,0.31,1.776s0.175-0.71,0.296-1.775c0.132-1.068,0.22-2.493,0.215-3.912
		c-0.003-1.422-0.104-2.845-0.236-3.91C203.394,709.125,203.217,708.416,203.217,708.416z"/>
</g>
<g>
	<g>
		<path stroke="#000000" stroke-miterlimit="10" d="M257.121,714.529v-0.512V677.34h0.503h0.501v36.217h12.807v0.461v0.512H257.121z
			"/>
		<path fill="#010202" stroke="#000000" stroke-miterlimit="10" d="M271.433,715.062h-14.808v-38.257h1.998v36.216h12.81V715.062z
			 M257.616,713.996h0.012l-0.012-36.125V713.996z"/>
	</g>
	<g>
		<path stroke="#000000" stroke-miterlimit="10" d="M298.552,714.529h-1.056l-2.148-11.204h-8.312l-2.246,11.204h-1.049
			l7.022-37.189h0.812L298.552,714.529z M295.067,702.25l-3.879-22.099l-4.013,22.099H295.067z M290.999,677.34h0.048h0.096h0.046
			h0.05h0.098H290.999z"/>
		<path fill="#010202" stroke="#000000" stroke-miterlimit="10" d="M299.158,715.062h-2.066l-2.149-11.206h-7.511l-2.24,11.206
			h-2.063l7.227-38.257h1.63l0.075,0.429L299.158,715.062z M297.899,713.996h0.048l-4.807-25.598l2.521,14.383h-9.091l2.732-15.036
			l-4.963,26.251h0.048l2.24-11.205h9.126L297.899,713.996z M287.778,701.718h6.688l-3.285-18.729L287.778,701.718z"/>
	</g>
	<g>
		<path stroke="#000000" stroke-miterlimit="10" d="M350.108,679.997c1.178,1.877,1.747,3.976,1.72,6.294
			c0,1.091-0.116,2.104-0.356,3.045c-0.241,0.938-0.56,1.771-0.958,2.505c-0.397,0.734-0.854,1.338-1.362,1.817
			c-0.509,0.476-1.051,0.816-1.628,1.02c0.675,0.104,1.397,0.394,2.18,0.871c0.777,0.479,1.392,1.058,1.838,1.739
			c0.638,0.991,1.115,2.089,1.432,3.3c0.321,1.211,0.479,2.482,0.479,3.812c0,2.217-0.294,3.988-0.88,5.319
			c-0.596,1.328-1.326,2.353-2.201,3.069c-0.878,0.718-1.838,1.195-2.867,1.433c-1.035,0.239-2.031,0.358-2.988,0.358h-4.917h-0.575
			v-37.294h6.021c1.369,0,2.422,0.241,3.155,0.717C348.932,678.481,349.566,679.145,350.108,679.997z M340.027,694.22h5.396
			c0.796,0,1.531-0.216,2.201-0.641c0.665-0.429,1.245-1.011,1.72-1.746c0.477-0.735,0.841-1.584,1.098-2.541
			c0.258-0.956,0.386-1.967,0.386-3.028c0-1.059-0.14-2.069-0.41-3.027c-0.271-0.956-0.645-1.796-1.12-2.512
			c-0.479-0.721-1.038-1.294-1.673-1.72c-0.639-0.43-1.343-0.644-2.108-0.644h-5.488V694.22z M344.515,713.506
			c1.563,0,2.858-0.249,3.896-0.742c1.036-0.495,1.856-1.16,2.465-1.996c0.604-0.836,1.022-1.808,1.263-2.916
			c0.24-1.107,0.34-2.258,0.31-3.452c-0.062-3.138-0.726-5.439-1.981-6.905c-1.261-1.467-3.237-2.2-5.951-2.2h-4.487v18.212H344.515
			z"/>
		<path fill="#010202" stroke="#000000" stroke-miterlimit="10" d="M344.515,715.112h-5.991v-38.358h6.52
			c1.473,0,2.591,0.26,3.41,0.793c0.798,0.52,1.488,1.244,2.067,2.152c1.229,1.958,1.837,4.177,1.803,6.599
			c0,1.137-0.124,2.208-0.374,3.177c-0.248,0.977-0.588,1.864-1.01,2.634c-0.414,0.771-0.906,1.431-1.462,1.947
			c-0.185,0.179-0.38,0.339-0.581,0.482c0.337,0.144,0.691,0.327,1.051,0.549c0.842,0.514,1.514,1.153,2.002,1.895
			c0.666,1.043,1.172,2.207,1.502,3.465c0.331,1.248,0.499,2.579,0.499,3.953c0,2.281-0.315,4.149-0.931,5.546
			c-0.625,1.405-1.418,2.504-2.344,3.267c-0.937,0.763-1.971,1.277-3.069,1.53C346.545,714.987,345.51,715.112,344.515,715.112z
			 M339.519,714.047h4.996c0.329,0,0.66-0.016,1.001-0.045c-0.322,0.023-0.652,0.036-1.001,0.036h-4.987v-19.279h4.987
			c0.374,0,0.73,0.016,1.079,0.044l0.177-0.063c-0.114,0.009-0.23,0.014-0.348,0.014h-5.896v-16.927h5.93
			c-0.133-0.005-0.273-0.007-0.414-0.007h-5.524V714.047z M350.559,711.914c-0.545,0.53-1.194,0.979-1.943,1.338
			c-0.429,0.2-0.896,0.365-1.403,0.49c0.062-0.015,0.124-0.027,0.185-0.041c0.955-0.221,1.854-0.669,2.671-1.336
			C350.236,712.229,350.401,712.077,350.559,711.914z M340.521,712.974h3.993c1.482,0,2.722-0.235,3.696-0.697
			c0.954-0.458,1.719-1.073,2.27-1.837c0.562-0.774,0.953-1.683,1.173-2.708c0.23-1.049,0.329-2.163,0.296-3.318
			c-0.059-2.994-0.68-5.197-1.852-6.559c-1.156-1.345-3.033-2.029-5.583-2.029h-3.993V712.974z M352.76,701.983
			c0.108,0.745,0.171,1.545,0.188,2.404c0.004,0.116,0.004,0.236,0.004,0.354c0-0.115,0-0.229,0-0.343
			C352.951,703.572,352.889,702.767,352.76,701.983z M340.521,693.688h4.901c0.701,0,1.357-0.19,1.944-0.566
			c0.609-0.391,1.135-0.926,1.568-1.591c0.439-0.684,0.786-1.482,1.025-2.386c0.243-0.896,0.365-1.865,0.365-2.881
			c0-0.998-0.131-1.966-0.385-2.873c-0.254-0.901-0.611-1.693-1.052-2.358c-0.438-0.662-0.95-1.19-1.534-1.577
			c-0.559-0.38-1.159-0.562-1.84-0.562h-4.994V693.688z M346.408,677.919c0.525,0.111,1.02,0.324,1.477,0.632
			c0.693,0.463,1.301,1.091,1.814,1.864c0.505,0.757,0.903,1.655,1.192,2.668c0.288,1.009,0.429,2.076,0.429,3.181
			c0,1.115-0.137,2.184-0.402,3.178c-0.064,0.245-0.141,0.486-0.219,0.719c0.11-0.308,0.206-0.63,0.289-0.964
			c0.229-0.884,0.339-1.858,0.339-2.905c0.034-2.208-0.518-4.221-1.631-5.994c-0.497-0.781-1.088-1.401-1.757-1.84
			C347.544,678.203,347.037,678.022,346.408,677.919z"/>
	</g>
	<g>
		<path stroke="#000000" stroke-miterlimit="10" d="M381.4,706.495c0,0.104,0,0.378,0,0.82s-0.062,0.979-0.185,1.611
			c-0.13,0.632-0.329,1.305-0.598,2.02c-0.274,0.716-0.677,1.382-1.223,1.996c-0.638,0.684-1.536,1.202-2.697,1.558
			c-1.161,0.358-2.286,0.537-3.367,0.537c-1.089,0-2.201-0.179-3.345-0.537c-1.148-0.355-2.028-0.874-2.633-1.558
			c-0.537-0.614-0.946-1.296-1.217-2.046c-0.27-0.752-0.45-1.459-0.55-2.123c-0.094-0.666-0.142-1.237-0.142-1.713
			c0-0.478,0-0.77,0-0.87v-20.975c0-1.364,0.184-2.583,0.551-3.658c0.366-1.074,0.942-1.985,1.743-2.737
			c0.316-0.306,0.707-0.577,1.17-0.818c0.46-0.236,0.948-0.434,1.456-0.587c0.515-0.153,1.02-0.271,1.527-0.358
			c0.515-0.085,0.991-0.128,1.438-0.128c0.411,0,0.882,0.035,1.407,0.103c0.521,0.067,1.054,0.178,1.576,0.332
			c0.527,0.155,1.02,0.342,1.482,0.562c0.464,0.222,0.855,0.486,1.173,0.793c1.624,1.536,2.431,3.702,2.431,6.497V706.495z
			 M380.398,685.216c0-1.193-0.151-2.216-0.449-3.069c-0.303-0.852-0.691-1.567-1.172-2.149c-0.317-0.34-0.71-0.638-1.166-0.893
			c-0.463-0.255-0.944-0.47-1.438-0.643c-0.494-0.169-0.995-0.289-1.508-0.356c-0.508-0.068-0.953-0.104-1.334-0.104
			c-0.736,0-1.505,0.096-2.32,0.281c-0.81,0.19-1.552,0.547-2.222,1.076c-0.672,0.528-1.219,1.261-1.645,2.198
			c-0.433,0.938-0.646,2.159-0.646,3.658v21.024c-0.033,0.853,0,1.586,0.09,2.2c0.1,0.615,0.262,1.261,0.48,1.944
			c0.22,0.683,0.577,1.296,1.048,1.842c0.514,0.579,1.28,1.015,2.299,1.304c1.016,0.291,1.991,0.436,2.915,0.436
			c0.477,0,0.974-0.034,1.481-0.104c0.509-0.069,1.01-0.178,1.502-0.332c0.498-0.151,0.95-0.341,1.365-0.562
			c0.408-0.222,0.746-0.486,0.999-0.794c0.481-0.544,0.831-1.142,1.054-1.79c0.226-0.648,0.385-1.252,0.477-1.818
			c0.096-0.562,0.145-1.232,0.145-2.019L380.398,685.216z"/>
		<path fill="#010202" stroke="#000000" stroke-miterlimit="10" d="M373.331,715.572c-1.126,0-2.3-0.188-3.484-0.558
			c-1.232-0.386-2.194-0.961-2.849-1.704c-0.584-0.656-1.027-1.404-1.322-2.221c-0.282-0.786-0.478-1.535-0.577-2.233
			c-0.103-0.721-0.153-1.308-0.153-1.796v-21.845c0-1.425,0.195-2.718,0.583-3.842c0.395-1.153,1.029-2.147,1.878-2.952
			c0.356-0.338,0.787-0.64,1.287-0.899c0.494-0.255,1.02-0.463,1.545-0.621c0.515-0.155,1.047-0.28,1.582-0.369
			c1.025-0.171,1.805-0.179,2.976-0.031c0.557,0.072,1.108,0.189,1.651,0.349c0.546,0.16,1.071,0.357,1.555,0.59
			c0.513,0.247,0.949,0.546,1.298,0.881c1.727,1.632,2.603,3.952,2.603,6.896v22.1c0,0.482-0.066,1.065-0.202,1.723
			c-0.131,0.656-0.344,1.363-0.618,2.105c-0.3,0.786-0.746,1.513-1.325,2.167c-0.704,0.753-1.683,1.322-2.922,1.704
			C375.631,715.384,374.453,715.572,373.331,715.572z M370.842,714.19c1.219,0.304,2.361,0.391,3.554,0.256
			C373.228,714.563,372.074,714.482,370.842,714.19z M373.331,678.535c-0.698,0-1.421,0.088-2.21,0.269
			c-0.746,0.173-1.43,0.504-2.036,0.985c-0.602,0.475-1.106,1.146-1.497,2.003c-0.395,0.858-0.59,2.01-0.59,3.424v21.024
			c-0.035,0.816-0.004,1.52,0.082,2.113c0.092,0.578,0.247,1.205,0.46,1.856c0.194,0.601,0.516,1.158,0.943,1.654
			c0.443,0.501,1.134,0.89,2.056,1.152c1.477,0.42,2.801,0.504,4.209,0.316c0.488-0.065,0.968-0.17,1.428-0.315
			c0.461-0.141,0.89-0.319,1.281-0.526c0.354-0.189,0.639-0.414,0.851-0.671c0.44-0.5,0.759-1.041,0.959-1.618
			c0.212-0.617,0.362-1.196,0.453-1.729c0.089-0.521,0.137-1.167,0.137-1.925l0.048-21.334c0-1.117-0.142-2.087-0.422-2.88
			c-0.279-0.786-0.64-1.456-1.078-1.984c-0.257-0.271-0.607-0.541-1.023-0.773c-0.43-0.237-0.885-0.441-1.361-0.608
			c-0.472-0.158-0.942-0.273-1.411-0.335C374.12,678.571,373.694,678.535,373.331,678.535z M369.211,678.438
			c-0.026,0.014-0.059,0.031-0.088,0.044c-0.413,0.215-0.771,0.464-1.055,0.737c-0.727,0.688-1.27,1.535-1.603,2.521
			c-0.351,1.01-0.524,2.177-0.524,3.477v21.845c0,0.435,0.051,0.97,0.14,1.634c0.093,0.621,0.268,1.299,0.521,2.015
			c0.249,0.68,0.626,1.313,1.117,1.868c0.257,0.29,0.58,0.551,0.958,0.78c-0.357-0.222-0.667-0.48-0.916-0.765
			c-0.529-0.608-0.921-1.292-1.161-2.031c-0.23-0.71-0.395-1.394-0.498-2.031c-0.104-0.671-0.137-1.449-0.104-2.312v-21.003
			c0-1.579,0.234-2.889,0.701-3.893c0.459-1.011,1.063-1.814,1.795-2.394C368.721,678.746,368.963,678.583,369.211,678.438z
			 M379.327,679.875c0.443,0.595,0.808,1.286,1.089,2.083c0.318,0.914,0.484,2.01,0.484,3.258l-0.049,21.334
			c0,0.832-0.049,1.522-0.154,2.114c-0.096,0.589-0.265,1.232-0.498,1.906c-0.247,0.712-0.631,1.373-1.156,1.969
			c-0.096,0.118-0.206,0.232-0.326,0.338c0.12-0.1,0.23-0.202,0.326-0.311c0.487-0.546,0.865-1.164,1.111-1.819
			c0.258-0.685,0.454-1.336,0.573-1.936c0.12-0.584,0.18-1.086,0.18-1.496v-22.1C380.907,682.989,380.384,681.234,379.327,679.875z
			 M373.331,677.471c0.394,0,0.852,0.033,1.396,0.105c0.528,0.069,1.068,0.199,1.597,0.378c0.524,0.185,1.037,0.413,1.513,0.677
			c0.46,0.257,0.858,0.554,1.19,0.885c-0.122-0.137-0.253-0.271-0.39-0.397c-0.278-0.269-0.63-0.506-1.044-0.708
			c-0.439-0.207-0.913-0.388-1.406-0.531c-0.498-0.146-0.999-0.253-1.512-0.32c-0.795-0.099-1.365-0.126-2.015-0.067
			C372.888,677.479,373.109,677.471,373.331,677.471z"/>
	</g>
	<g>
		<path stroke="#000000" stroke-miterlimit="10" d="M401.332,699.232l-0.908-2.559l-0.912,2.559l-5.441,15.297h-1.105l5.596-15.655
			l1.286-3.631l-6.306-17.702h1.055l5.78,16.729l5.874-16.729h1.051l-6.355,17.702l1.291,3.631l5.645,15.604h-1.105L401.332,699.232
			z"/>
		<path fill="#010202" stroke="#000000" stroke-miterlimit="10" d="M394.41,715.062h-2.163l7.068-19.819l-6.497-18.233h2.121
			l5.441,15.735l5.525-15.735h2.117l-6.543,18.233l1.224,3.441l5.901,16.323h-2.171l-0.126-0.342l-5.885-16.492L394.41,715.062z
			 M393.693,713.996h0.029l6.567-18.442l-0.014-0.028L393.693,713.996z M407.122,713.944h0.026l-2.855-7.903L407.122,713.944z"/>
	</g>
	<g>
		<path stroke="#000000" stroke-miterlimit="10" d="M449.637,677.34h7.169c0.865,0,1.691,0.16,2.489,0.483
			c0.792,0.324,1.495,0.793,2.1,1.408c1.531,1.534,2.292,3.667,2.292,6.394v20.615c0,2.798-0.761,4.931-2.292,6.395
			c-0.604,0.613-1.308,1.083-2.1,1.405c-0.798,0.326-1.624,0.489-2.489,0.489h-3.869h-3.3v-0.512V677.34z M462.686,685.625
			c0-1.229-0.168-2.303-0.505-3.223c-0.333-0.922-0.78-1.672-1.336-2.251c-0.559-0.579-1.187-1.015-1.884-1.302
			c-0.703-0.291-1.421-0.438-2.155-0.438h-3.869h-2.29v35.04h2.29h3.869c0.734,0,1.452-0.134,2.155-0.407
			c0.697-0.271,1.325-0.709,1.884-1.305c0.556-0.597,1.003-1.348,1.336-2.25c0.337-0.903,0.505-1.987,0.505-3.25V685.625z"/>
		<path fill="#010202" stroke="#000000" stroke-miterlimit="10" d="M456.806,715.062h-7.665v-38.257h7.665
			c0.917,0,1.812,0.175,2.663,0.521c0.866,0.352,1.627,0.86,2.266,1.52c1.624,1.625,2.452,3.906,2.452,6.779v20.615
			c0,2.945-0.831,5.231-2.462,6.792c-0.635,0.65-1.398,1.16-2.256,1.507C458.622,714.888,457.725,715.062,456.806,715.062z
			 M450.132,713.996h6.674c0.673,0,1.325-0.107,1.953-0.32c-0.636,0.205-1.294,0.311-1.953,0.311h-6.66V677.88h6.66
			c0.788,0,1.575,0.157,2.333,0.471c0.764,0.313,1.449,0.791,2.054,1.416c0.61,0.638,1.099,1.458,1.456,2.441
			c0.353,0.979,0.531,2.129,0.531,3.417v20.615c0,1.323-0.179,2.483-0.531,3.445c-0.316,0.847-0.729,1.581-1.232,2.181
			c1.193-1.352,1.774-3.197,1.774-5.626v-20.615c0-2.564-0.721-4.585-2.135-6.006c-0.555-0.562-1.206-0.996-1.944-1.299
			c-0.73-0.298-1.51-0.449-2.306-0.449h-6.674V713.996z M451.143,712.921h5.663c0.673,0,1.342-0.13,1.983-0.378
			c0.629-0.243,1.202-0.641,1.704-1.179c0.507-0.543,0.919-1.241,1.229-2.07c0.31-0.836,0.463-1.864,0.463-3.054v-20.615
			c0-1.156-0.153-2.177-0.463-3.029c-0.311-0.842-0.723-1.535-1.224-2.064c-0.508-0.525-1.085-0.924-1.72-1.186
			c-0.646-0.264-1.305-0.4-1.974-0.4h-5.663V712.921z"/>
	</g>
	<g>
		<path stroke="#000000" stroke-miterlimit="10" d="M491.11,713.557v0.461v0.512h-13.476v-0.512V677.9v-0.561h13.284v0.561v0.41
			h-12.282v23.598h9.608v0.514v0.461h-9.608v10.674H491.11z"/>
		<path fill="#010202" stroke="#000000" stroke-miterlimit="10" d="M491.609,715.062h-14.469v-38.257h14.279v2.036h-12.282v22.535
			h9.604v2.037h-9.604v9.607h12.472V715.062z M478.137,713.996h0.006l-0.006-36.125V713.996z"/>
	</g>
	<g>
		<path stroke="#000000" stroke-miterlimit="10" d="M506.496,713.198c-0.794-0.749-1.39-1.756-1.789-3.017
			c-0.4-1.262-0.597-2.612-0.597-4.042h1.007c0,1.637,0.211,2.966,0.645,3.987c0.426,1.026,0.964,1.816,1.616,2.381
			c0.656,0.562,1.366,0.939,2.128,1.125c0.767,0.188,1.483,0.281,2.154,0.281c0.826,0,1.646-0.129,2.46-0.384
			c0.81-0.257,1.544-0.665,2.197-1.229c0.656-0.562,1.177-1.305,1.578-2.227c0.395-0.918,0.595-2.045,0.595-3.376
			c0-1.532-0.203-2.872-0.615-4.013c-0.416-1.144-0.968-2.159-1.647-3.046c-0.69-0.884-1.463-1.679-2.32-2.378
			c-0.862-0.697-1.74-1.39-2.63-2.069c-0.857-0.649-1.678-1.287-2.461-1.922c-0.782-0.63-1.49-1.336-2.128-2.123
			c-1.396-1.805-2.097-3.816-2.097-6.036c0-0.102,0-0.365,0-0.793c0-0.425,0.047-0.929,0.157-1.508
			c0.102-0.579,0.278-1.211,0.525-1.892c0.241-0.682,0.632-1.312,1.177-1.894c1.24-1.432,2.98-2.147,5.209-2.147
			c2.261,0,3.967,0.716,5.111,2.147c0.479,0.615,0.818,1.286,1.028,2.021c0.202,0.733,0.34,1.432,0.409,2.096
			c0.061,0.666,0.081,1.229,0.068,1.689c-0.015,0.46-0.023,0.707-0.023,0.742h-1.004c0.035-0.819,0.019-1.537-0.044-2.149
			c-0.068-0.614-0.188-1.253-0.361-1.918c-0.179-0.666-0.47-1.253-0.885-1.766c-0.48-0.58-1.067-1.023-1.764-1.33
			c-0.704-0.307-1.548-0.46-2.536-0.46c-1.944,0-3.425,0.597-4.446,1.79c-0.443,0.513-0.78,1.073-1.003,1.688
			c-0.223,0.614-0.38,1.186-0.477,1.713c-0.097,0.529-0.141,1.171-0.141,1.92c0,1.124,0.175,2.123,0.524,2.991
			c0.354,0.869,0.817,1.671,1.391,2.405s1.235,1.407,1.991,2.02c0.752,0.614,1.528,1.228,2.326,1.843
			c0.924,0.682,1.833,1.398,2.73,2.148c0.895,0.75,1.713,1.604,2.443,2.558c1.664,2.184,2.496,4.741,2.496,7.671
			c0,2.767-0.858,4.914-2.578,6.448c-1.404,1.227-3.154,1.842-5.258,1.842c-0.732,0-1.57-0.113-2.51-0.333
			C508.209,714.435,507.326,713.948,506.496,713.198z"/>
		<path fill="#010202" stroke="#000000" stroke-miterlimit="10" d="M511.66,715.522c-0.761,0-1.635-0.116-2.617-0.347
			c-1.013-0.236-1.977-0.765-2.865-1.568c-0.866-0.816-1.518-1.908-1.939-3.256c-0.413-1.312-0.625-2.73-0.625-4.212v-0.535h1.998
			v0.535c0,1.555,0.202,2.823,0.604,3.769c0.391,0.939,0.889,1.675,1.477,2.185c0.596,0.51,1.242,0.852,1.925,1.018
			c1.624,0.398,2.974,0.348,4.362-0.093c0.749-0.234,1.43-0.614,2.025-1.129c0.588-0.509,1.075-1.193,1.441-2.037
			c0.361-0.844,0.547-1.904,0.547-3.152c0-1.46-0.196-2.747-0.583-3.823c-0.396-1.085-0.924-2.058-1.569-2.895
			c-0.656-0.849-1.404-1.618-2.23-2.294c-0.859-0.694-1.734-1.383-2.623-2.062c-0.859-0.646-1.683-1.291-2.473-1.927
			c-0.795-0.646-1.544-1.388-2.203-2.199c-1.477-1.907-2.22-4.051-2.22-6.387v-0.793c0-0.472,0.058-1.017,0.17-1.612
			c0.11-0.603,0.293-1.269,0.551-1.98c0.264-0.744,0.695-1.445,1.29-2.076c1.322-1.523,3.191-2.306,5.559-2.306
			c2.402,0,4.248,0.785,5.49,2.334c0.525,0.676,0.899,1.416,1.127,2.215c0.213,0.763,0.356,1.498,0.422,2.193
			c0.065,0.689,0.094,1.282,0.075,1.764c-0.018,0.438-0.021,0.681-0.021,0.727l-0.002,0.525l-2.019,0.005l0.017-0.554
			c0.035-0.791,0.018-1.486-0.042-2.069c-0.06-0.573-0.178-1.192-0.338-1.835c-0.165-0.595-0.42-1.108-0.786-1.557
			c-0.423-0.515-0.955-0.913-1.577-1.186c-0.635-0.28-1.428-0.422-2.346-0.422c-1.812,0-3.148,0.529-4.079,1.618
			c-0.402,0.463-0.704,0.974-0.91,1.524c-0.204,0.583-0.36,1.128-0.445,1.615c-0.089,0.489-0.138,1.099-0.138,1.82
			c0,1.046,0.164,1.983,0.487,2.78c0.329,0.818,0.775,1.583,1.317,2.274c0.551,0.702,1.188,1.354,1.906,1.937
			c0.754,0.611,1.524,1.222,2.319,1.833c0.92,0.683,1.848,1.409,2.747,2.161c0.92,0.774,1.768,1.663,2.522,2.641
			c1.727,2.271,2.604,4.966,2.604,8.01c0,2.916-0.932,5.225-2.758,6.857C515.744,714.86,513.866,715.522,511.66,715.522z
			 M505.199,710.083c0.372,1.136,0.919,2.048,1.631,2.716c0.754,0.687,1.574,1.138,2.427,1.337c0.909,0.213,1.716,0.32,2.403,0.32
			c1.784,0,3.317-0.475,4.562-1.411c-0.595,0.44-1.253,0.775-1.96,0.995c-1.549,0.489-3.08,0.554-4.869,0.111
			c-0.829-0.203-1.608-0.615-2.32-1.229c-0.716-0.616-1.308-1.483-1.771-2.574C505.268,710.26,505.237,710.172,505.199,710.083z
			 M518.939,705.426c0.035,0.411,0.051,0.835,0.051,1.273c0,0.804-0.071,1.546-0.213,2.219c0.145-0.681,0.221-1.42,0.221-2.219
			C518.998,706.27,518.978,705.843,518.939,705.426z M511.66,677.411c-2.078,0-3.705,0.667-4.841,1.978
			c-0.509,0.538-0.87,1.113-1.077,1.72c-0.241,0.649-0.406,1.26-0.503,1.805c-0.102,0.533-0.153,1.005-0.153,1.406v0.793
			c0,2.08,0.668,3.997,1.991,5.697c0.603,0.747,1.293,1.435,2.039,2.039c0.315,0.251,0.631,0.508,0.961,0.763
			c-0.299-0.237-0.592-0.472-0.88-0.709c-0.771-0.629-1.472-1.337-2.066-2.099c-0.604-0.767-1.102-1.622-1.473-2.536
			c-0.373-0.934-0.562-2.011-0.562-3.204c0-0.801,0.048-1.461,0.147-2.022c0.106-0.553,0.269-1.144,0.505-1.802
			c0.247-0.677,0.621-1.298,1.099-1.858c1.116-1.301,2.735-1.961,4.813-1.961c1.049,0,1.968,0.168,2.72,0.499
			c0.767,0.335,1.425,0.832,1.954,1.47c0.461,0.567,0.789,1.229,0.992,1.972c0.179,0.7,0.306,1.374,0.374,2.003
			c0.048,0.496,0.068,1.06,0.062,1.679h0.007c0.009-0.068,0.009-0.146,0.011-0.229c0.017-0.432-0.011-0.978-0.065-1.617
			c-0.065-0.625-0.198-1.296-0.392-1.993c-0.185-0.661-0.5-1.279-0.93-1.834C515.335,678.054,513.79,677.411,511.66,677.411z"/>
	</g>
	<g>
		<path stroke="#000000" stroke-miterlimit="10" d="M574.737,706.037c0,0.034,0,0.301,0,0.793c0,0.494-0.056,1.096-0.165,1.814
			c-0.113,0.717-0.306,1.467-0.576,2.252c-0.268,0.784-0.678,1.483-1.219,2.096c-1.24,1.399-2.966,2.099-5.164,2.099
			c-2.193,0-3.867-0.699-5.011-2.099c-0.579-0.646-0.998-1.346-1.271-2.096c-0.268-0.752-0.449-1.459-0.549-2.123
			c-0.097-0.666-0.134-1.237-0.12-1.713c0.018-0.478,0.023-0.77,0.023-0.87v-21.024c0-2.729,0.766-4.86,2.294-6.396
			c0.607-0.577,1.314-1.04,2.128-1.381c0.814-0.341,1.649-0.511,2.505-0.511c1.721,0,3.287,0.612,4.686,1.84
			c0.798,0.716,1.412,1.698,1.84,2.942c0.434,1.245,0.646,2.6,0.646,4.066h-1.051c0-1.331-0.182-2.491-0.549-3.479
			c-0.371-0.989-0.845-1.797-1.438-2.429c-0.592-0.63-1.246-1.101-1.981-1.407c-0.73-0.307-1.448-0.46-2.152-0.46
			c-0.727,0-1.454,0.146-2.173,0.437c-0.716,0.288-1.352,0.722-1.911,1.302c-0.556,0.581-1.002,1.331-1.338,2.252
			c-0.332,0.921-0.503,1.995-0.503,3.224v21.074v0.051c0,0.854,0.042,1.58,0.122,2.174c0.082,0.599,0.242,1.236,0.48,1.92
			c0.236,0.683,0.6,1.296,1.073,1.842c1.02,1.193,2.434,1.791,4.249,1.791c1.882,0,3.347-0.598,4.401-1.791
			c0.474-0.546,0.838-1.169,1.075-1.866c0.239-0.698,0.408-1.374,0.497-2.021c0.103-0.647,0.147-1.415,0.147-2.302H574.737z"/>
		<path fill="#010202" stroke="#000000" stroke-miterlimit="10" d="M567.613,715.624c-2.332,0-4.146-0.768-5.385-2.279
			c-0.6-0.676-1.065-1.438-1.36-2.255c-0.277-0.786-0.474-1.535-0.573-2.233c-0.102-0.688-0.143-1.3-0.129-1.815
			c0.013-0.468,0.023-0.752,0.023-0.851v-21.024c0-2.87,0.824-5.152,2.45-6.784c0.662-0.63,1.429-1.13,2.286-1.488
			c0.869-0.364,1.771-0.549,2.688-0.549c1.833,0,3.516,0.663,5.002,1.962c0.865,0.779,1.534,1.843,1.988,3.167
			c0.445,1.298,0.68,2.727,0.68,4.254v0.532h-2.049v-0.532c0-1.259-0.169-2.36-0.512-3.284c-0.344-0.92-0.79-1.678-1.322-2.246
			c-0.542-0.578-1.152-1.013-1.816-1.29c-1.361-0.573-2.678-0.538-3.968-0.021c-0.645,0.261-1.232,0.661-1.741,1.188
			c-0.504,0.527-0.916,1.22-1.218,2.063c-0.312,0.853-0.471,1.872-0.471,3.029v21.074c0,0.857,0.042,1.563,0.118,2.152
			c0.068,0.545,0.219,1.135,0.453,1.808c0.205,0.606,0.533,1.166,0.968,1.664c0.937,1.091,2.206,1.621,3.888,1.621
			c1.755,0,3.072-0.532,4.043-1.624c0.432-0.493,0.753-1.062,0.967-1.682c0.229-0.665,0.387-1.312,0.474-1.923
			c0.092-0.61,0.138-1.358,0.138-2.22v-0.534h1.997v1.327c0,0.527-0.056,1.169-0.173,1.904c-0.115,0.745-0.312,1.534-0.596,2.346
			c-0.293,0.846-0.734,1.61-1.324,2.279C571.803,714.86,569.953,715.624,567.613,715.624z M563.726,678.81
			c-0.146,0.112-0.282,0.233-0.415,0.359c-1.408,1.414-2.123,3.435-2.123,5.997v21.024c0,0.103-0.01,0.4-0.026,0.885
			c-0.017,0.45,0.026,0.995,0.113,1.614c0.093,0.626,0.267,1.304,0.524,2.02c0.245,0.68,0.635,1.328,1.16,1.918
			c1.072,1.305,2.593,1.932,4.654,1.932c2.053,0,3.664-0.651,4.801-1.932c0.496-0.563,0.871-1.206,1.114-1.915
			c0.261-0.747,0.442-1.475,0.553-2.156c0.104-0.675,0.157-1.257,0.157-1.726l-0.013-0.261c-0.014,0.702-0.062,1.313-0.145,1.854
			c-0.096,0.676-0.271,1.39-0.524,2.122c-0.259,0.753-0.648,1.443-1.174,2.043c-1.154,1.302-2.758,1.959-4.77,1.959
			c-1.946,0-3.502-0.657-4.616-1.961c-0.518-0.598-0.92-1.278-1.174-2.017c-0.257-0.742-0.426-1.41-0.508-2.031
			c-0.079-0.636-0.123-1.395-0.123-2.248v-21.125c0-1.29,0.179-2.44,0.536-3.418c0.358-0.982,0.843-1.803,1.457-2.439
			C563.354,679.131,563.539,678.963,563.726,678.81z M574.223,685.192h0.055c-0.049-1.197-0.252-2.321-0.605-3.348
			c-0.396-1.151-0.967-2.065-1.691-2.719c-1.298-1.136-2.767-1.715-4.367-1.715c-0.671,0-1.348,0.117-1.997,0.348
			c1.408-0.484,2.868-0.465,4.337,0.158c0.788,0.328,1.51,0.843,2.146,1.526c0.633,0.67,1.15,1.549,1.545,2.607
			C573.988,682.961,574.175,684.018,574.223,685.192z"/>
	</g>
	<g>
		<path stroke="#000000" stroke-miterlimit="10" d="M589.689,701.908h13.096v-25.129h0.477h0.529v33.44h-0.529h-0.477v-7.337
			h-13.096v7.337h-0.479h-0.523"/>
		<path fill="#010202" stroke="#000000" stroke-miterlimit="10" d="M604.283,715.015h-1.997v-11.601H590.19v11.601h-1.997v-38.235
			h1.997v24.598h12.096v-24.598h1.997V715.015z M603.283,713.948h0.01l-0.01-36.103V713.948z M589.188,713.948h0.008l-0.008-36.103
			V713.948z"/>
	</g>
	<g>
		<path stroke="#000000" stroke-miterlimit="10" d="M631.739,713.557v0.461v0.512h-13.477v-0.512V677.9v-0.561h13.284v0.561v0.41
			h-12.282v23.598h9.604v0.514v0.461h-9.604v10.674H631.739z"/>
		<path fill="#010202" stroke="#000000" stroke-miterlimit="10" d="M632.233,715.062h-14.466v-38.257h14.277v2.036h-12.278v22.535
			h9.604v2.037h-9.604v9.607h12.467V715.062z M618.761,682.135v31.861"/>
	</g>
	<g>
		<path stroke="#000000" stroke-miterlimit="10" d="M659.214,677.34v0.561v0.41H646.6v23.548h9.893v0.537v0.539l-9.846-0.052
			l-0.047,11.646h-0.526h-0.476V677.9v-0.561H659.214z"/>
		<path fill="#010202" stroke="#000000" stroke-miterlimit="10" d="M647.097,715.062h-2.001v-38.257h14.619v2.036h-12.618v22.485
			h9.893v2.141l-9.845-0.053L647.097,715.062z M646.095,713.996h0.007l0.049-15.867h-0.049l-0.007-20.258V713.996z"/>
	</g>
	<g>
		<path stroke="#000000" stroke-miterlimit="10" d="M674.314,713.198c-0.798-0.749-1.39-1.756-1.792-3.017
			c-0.397-1.262-0.594-2.612-0.594-4.042h1.003c0,1.637,0.213,2.966,0.645,3.987c0.43,1.026,0.965,1.816,1.621,2.381
			c0.651,0.562,1.366,0.939,2.127,1.125c0.766,0.188,1.48,0.281,2.152,0.281c0.826,0,1.648-0.129,2.459-0.384
			c0.812-0.257,1.545-0.665,2.198-1.229c0.654-0.562,1.178-1.305,1.576-2.227c0.395-0.918,0.599-2.045,0.599-3.376
			c0-1.532-0.208-2.872-0.621-4.013c-0.414-1.144-0.964-2.159-1.648-3.046c-0.684-0.884-1.458-1.679-2.313-2.378
			c-0.866-0.697-1.745-1.39-2.632-2.069c-0.86-0.649-1.68-1.287-2.462-1.922c-0.783-0.63-1.491-1.336-2.13-2.123
			c-1.396-1.805-2.097-3.816-2.097-6.036c0-0.102,0-0.365,0-0.793c0-0.425,0.053-0.929,0.159-1.508
			c0.105-0.579,0.281-1.211,0.524-1.892c0.24-0.682,0.632-1.312,1.178-1.894c1.241-1.432,2.983-2.147,5.21-2.147
			c2.259,0,3.964,0.716,5.11,2.147c0.479,0.615,0.822,1.286,1.025,2.021c0.208,0.733,0.345,1.432,0.409,2.096
			c0.062,0.666,0.083,1.229,0.072,1.689c-0.016,0.46-0.024,0.707-0.024,0.742h-1.003c0.029-0.819,0.015-1.537-0.048-2.149
			c-0.062-0.614-0.187-1.253-0.354-1.918c-0.18-0.666-0.472-1.253-0.889-1.766c-0.479-0.58-1.066-1.023-1.766-1.33
			c-0.704-0.307-1.547-0.46-2.533-0.46c-1.945,0-3.422,0.597-4.448,1.79c-0.44,0.513-0.779,1.073-1.003,1.688
			c-0.22,0.614-0.378,1.186-0.473,1.713c-0.098,0.529-0.142,1.171-0.142,1.92c0,1.124,0.171,2.123,0.522,2.991
			c0.354,0.869,0.816,1.671,1.39,2.405c0.576,0.734,1.24,1.407,1.99,2.02c0.756,0.614,1.527,1.228,2.327,1.843
			c0.924,0.682,1.836,1.398,2.732,2.148c0.893,0.75,1.709,1.604,2.444,2.558c1.665,2.184,2.493,4.741,2.493,7.671
			c0,2.767-0.859,4.914-2.58,6.448c-1.398,1.227-3.152,1.842-5.254,1.842c-0.735,0-1.571-0.113-2.513-0.333
			C676.023,714.435,675.141,713.948,674.314,713.198z"/>
		<path fill="#010202" stroke="#000000" stroke-miterlimit="10" d="M679.477,715.522c-0.758,0-1.637-0.116-2.615-0.347
			c-1.016-0.236-1.979-0.765-2.871-1.568c-0.863-0.816-1.513-1.908-1.939-3.256c-0.411-1.312-0.624-2.73-0.624-4.212v-0.535h1.999
			v0.535c0,1.555,0.204,2.823,0.604,3.769c0.391,0.939,0.893,1.675,1.479,2.185c0.596,0.51,1.24,0.852,1.924,1.018
			c1.623,0.398,2.971,0.348,4.362-0.093c0.749-0.234,1.427-0.614,2.028-1.129c0.586-0.509,1.074-1.193,1.439-2.037
			c0.361-0.844,0.544-1.904,0.544-3.152c0-1.46-0.195-2.747-0.583-3.823c-0.395-1.085-0.925-2.058-1.568-2.895
			c-0.652-0.849-1.399-1.618-2.232-2.294c-0.857-0.694-1.729-1.383-2.621-2.062c-0.859-0.646-1.682-1.291-2.468-1.927
			c-0.801-0.646-1.546-1.388-2.208-2.199c-1.472-1.907-2.217-4.051-2.217-6.387v-0.793c0-0.472,0.058-1.017,0.168-1.612
			c0.109-0.603,0.293-1.269,0.552-1.98c0.262-0.744,0.694-1.445,1.291-2.076c1.318-1.523,3.192-2.306,5.558-2.306
			c2.398,0,4.248,0.785,5.488,2.334c0.525,0.676,0.898,1.416,1.129,2.215c0.215,0.763,0.355,1.498,0.42,2.193
			c0.068,0.689,0.094,1.282,0.074,1.764c-0.008,0.438-0.021,0.681-0.021,0.727l-0.004,0.525l-2.015,0.005l0.021-0.554
			c0.031-0.791,0.012-1.486-0.044-2.069c-0.062-0.573-0.179-1.192-0.345-1.835c-0.16-0.595-0.413-1.108-0.787-1.557
			c-0.419-0.515-0.953-0.913-1.569-1.186c-0.64-0.28-1.429-0.422-2.349-0.422c-1.816,0-3.148,0.529-4.082,1.618
			c-0.398,0.463-0.702,0.974-0.906,1.524c-0.209,0.583-0.363,1.128-0.445,1.615c-0.093,0.489-0.137,1.099-0.137,1.82
			c0,1.046,0.16,1.983,0.487,2.78c0.33,0.818,0.772,1.583,1.313,2.274c0.55,0.702,1.191,1.354,1.906,1.937
			c0.756,0.611,1.523,1.222,2.32,1.833c0.92,0.683,1.846,1.409,2.745,2.161c0.92,0.774,1.767,1.663,2.522,2.641
			c1.73,2.271,2.61,4.966,2.61,8.01c0,2.916-0.935,5.225-2.764,6.857C683.559,714.86,681.682,715.522,679.477,715.522z
			 M673.014,710.083c0.378,1.136,0.92,2.048,1.634,2.716c0.752,0.687,1.571,1.138,2.427,1.337c0.905,0.213,1.712,0.32,2.402,0.32
			c1.785,0,3.316-0.475,4.562-1.411c-0.599,0.44-1.255,0.775-1.961,0.995c-1.545,0.489-3.082,0.554-4.867,0.111
			c-0.834-0.203-1.615-0.615-2.323-1.229c-0.715-0.616-1.308-1.483-1.766-2.574C673.085,710.26,673.051,710.172,673.014,710.083z
			 M686.75,705.426c0.038,0.411,0.055,0.835,0.055,1.273c0,0.804-0.066,1.546-0.212,2.219c0.147-0.681,0.218-1.42,0.218-2.219
			C686.811,706.27,686.794,705.843,686.75,705.426z M679.477,677.411c-2.08,0-3.707,0.667-4.844,1.978
			c-0.508,0.538-0.861,1.113-1.078,1.72c-0.236,0.649-0.404,1.26-0.501,1.805c-0.102,0.533-0.15,1.005-0.15,1.406v0.793
			c0,2.08,0.67,3.997,1.984,5.697c0.607,0.747,1.298,1.435,2.045,2.039c0.317,0.251,0.632,0.508,0.963,0.763
			c-0.304-0.237-0.592-0.472-0.884-0.709c-0.771-0.629-1.474-1.337-2.065-2.099c-0.604-0.767-1.099-1.622-1.47-2.536
			c-0.374-0.934-0.566-2.011-0.566-3.204c0-0.801,0.053-1.461,0.154-2.022c0.1-0.553,0.262-1.144,0.498-1.802
			c0.247-0.677,0.618-1.298,1.102-1.858c1.116-1.301,2.732-1.961,4.812-1.961c1.047,0,1.962,0.168,2.723,0.499
			c0.764,0.335,1.422,0.832,1.947,1.47c0.461,0.567,0.795,1.229,0.992,1.972c0.179,0.7,0.31,1.374,0.372,2.003
			c0.056,0.496,0.075,1.06,0.066,1.679h0.009c0.004-0.068,0.004-0.146,0.008-0.229c0.017-0.432-0.008-0.978-0.064-1.617
			c-0.064-0.625-0.195-1.296-0.393-1.993c-0.181-0.661-0.5-1.279-0.926-1.834C683.149,678.054,681.609,677.411,679.477,677.411z"/>
	</g>
</g>
</svg>
