<?xml version="1.0" encoding="UTF-8" standalone="no"?>
<svg
   xmlns:dc="http://purl.org/dc/elements/1.1/"
   xmlns:cc="http://creativecommons.org/ns#"
   xmlns:rdf="http://www.w3.org/1999/02/22-rdf-syntax-ns#"
   xmlns:svg="http://www.w3.org/2000/svg"
   xmlns="http://www.w3.org/2000/svg"
   xmlns:sodipodi="http://sodipodi.sourceforge.net/DTD/sodipodi-0.dtd"
   xmlns:inkscape="http://www.inkscape.org/namespaces/inkscape"
   version="1.1"
   x="0px"
   y="0px"
   viewBox="0 0 100 100"
   enable-background="new 0 0 100 100"
   xml:space="preserve"
   id="svg2"
   inkscape:version="0.48.4 r9939"
   width="100%"
   height="100%"
   sodipodi:docname="make_money.svg"><metadata
     id="metadata12"><rdf:RDF><cc:Work
         rdf:about=""><dc:format>image/svg+xml</dc:format><dc:type
           rdf:resource="http://purl.org/dc/dcmitype/StillImage" /></cc:Work></rdf:RDF></metadata><defs
     id="defs10" /><sodipodi:namedview
     pagecolor="#ffffff"
     bordercolor="#666666"
     borderopacity="1"
     objecttolerance="10"
     gridtolerance="10"
     guidetolerance="10"
     inkscape:pageopacity="0"
     inkscape:pageshadow="2"
     inkscape:window-width="640"
     inkscape:window-height="480"
     id="namedview8"
     showgrid="false"
     inkscape:zoom="2.36"
     inkscape:cx="50"
     inkscape:cy="50"
     inkscape:window-x="75"
     inkscape:window-y="34"
     inkscape:window-maximized="0"
     inkscape:current-layer="svg2" /><g
     id="g4"
     style="fill:#ffffff"
     transform="matrix(0.73044598,-0.01324889,0.01289299,0.75060925,25.670663,25.153967)"><path
       d="M 1.779,45.964 H 14.114 C 13.89,47.309 13.89,48.656 13.89,50 c 0,1.343 0,2.69 0.224,4.04 H 5.368 L 1.779,62.111 H 15.46 c 5.607,20.637 24.783,36.335 46.875,36.335 12.224,0 23.663,-4.819 32.298,-12.672 V 74.112 c -7.404,9.867 -19.178,16.26 -32.298,16.26 -17.943,0 -33.306,-11.885 -38.464,-28.261 H 78.486 L 82.071,54.04 H 22.188 C 21.964,52.69 21.964,51.344 21.964,50 c 0,-1.12 0,-2.691 0.224,-4.036 h 63.475 l 3.586,-8.076 H 23.872 C 28.917,21.741 44.169,9.629 62.336,9.629 c 14.131,0 24.894,6.393 32.298,16.149 l 3.587,-7.963 C 89.249,7.834 76.467,1.554 62.336,1.554 40.132,1.554 20.955,17.479 15.461,37.889 H 5.368 l -3.589,8.075 z"
       id="path6"
       style="fill:#ffffff"
       inkscape:connector-curvature="0" /></g></svg>