<?xml version="1.0" encoding="UTF-8" standalone="no"?>
<svg
   xmlns:dc="http://purl.org/dc/elements/1.1/"
   xmlns:cc="http://creativecommons.org/ns#"
   xmlns:rdf="http://www.w3.org/1999/02/22-rdf-syntax-ns#"
   xmlns:svg="http://www.w3.org/2000/svg"
   xmlns="http://www.w3.org/2000/svg"
   xmlns:sodipodi="http://sodipodi.sourceforge.net/DTD/sodipodi-0.dtd"
   xmlns:inkscape="http://www.inkscape.org/namespaces/inkscape"
   version="1.1"
   x="0px"
   y="0px"
   viewBox="0 0 432 540"
   enable-background="new 0 0 432 432"
   xml:space="preserve"
   id="svg2"
   inkscape:version="0.48.4 r9939"
   width="100%"
   height="100%"
   sodipodi:docname="no_waste.svg"><metadata
     id="metadata44"><rdf:RDF><cc:Work
         rdf:about=""><dc:format>image/svg+xml</dc:format><dc:type
           rdf:resource="http://purl.org/dc/dcmitype/StillImage" /></cc:Work></rdf:RDF></metadata><defs
     id="defs42" /><sodipodi:namedview
     pagecolor="#ffffff"
     bordercolor="#666666"
     borderopacity="1"
     objecttolerance="10"
     gridtolerance="10"
     guidetolerance="10"
     inkscape:pageopacity="0"
     inkscape:pageshadow="2"
     inkscape:window-width="640"
     inkscape:window-height="480"
     id="namedview40"
     showgrid="false"
     inkscape:zoom="0.43703704"
     inkscape:cx="216"
     inkscape:cy="270"
     inkscape:window-x="75"
     inkscape:window-y="34"
     inkscape:window-maximized="0"
     inkscape:current-layer="svg2" /><g
     id="g4"
     style="fill:#ffffff"><path
       d="M299.595,103.295H131.638c-6.958,0-12.597,5.827-12.597,13.016c0,7.188,5.639,13.015,12.597,13.015h146.338l25.424-25.424   C302.198,103.509,300.921,103.295,299.595,103.295z"
       id="path6"
       style="fill:#ffffff" /><path
       d="M204.047,95.247h23.139c6.941,0,12.574-5.919,12.574-13.223c0-7.303-5.633-13.223-12.574-13.223h-23.139   c-6.946,0-12.575,5.92-12.575,13.223C191.472,89.328,197.102,95.247,204.047,95.247z"
       id="path8"
       style="fill:#ffffff" /><path
       d="M159.28,143.534h-24.144c0,0,0,74.603,0,128.632l24.144-24.145C159.28,200.241,159.28,143.534,159.28,143.534z"
       id="path10"
       style="fill:#ffffff" /><path
       d="M271.952,185.843c0,48.29,0,121.342,0,126.698c0,8.047-8.049,8.047-8.049,8.047h-96.575c0,0-8.049,0-8.049-8.047   c0-1.271,0-6.361,0-14.025l-24.124,24.123c0.423,22.523,7.964,29.676,23.594,29.676l113.202,0.465   c16.557-0.412,24.143-8.047,24.143-32.191V161.699L271.952,185.843z"
       id="path12"
       style="fill:#ffffff" /><polygon
       points="175.375,282.418 175.375,304.492 191.472,304.492 191.472,266.322  "
       id="polygon14"
       style="fill:#ffffff" /><polygon
       points="191.472,143.534 175.375,143.534 175.375,231.926 191.472,215.83  "
       id="polygon16"
       style="fill:#ffffff" /><polygon
       points="223.663,143.534 207.567,143.534 207.567,199.734 223.663,183.638  "
       id="polygon18"
       style="fill:#ffffff" /><polygon
       points="207.567,250.227 207.567,304.492 223.663,304.492 223.663,234.131  "
       id="polygon20"
       style="fill:#ffffff" /><polygon
       points="255.856,143.534 239.761,143.534 239.761,167.542 255.856,151.446  "
       id="polygon22"
       style="fill:#ffffff" /><polygon
       points="239.761,218.034 239.761,304.492 255.856,304.492 255.856,201.939  "
       id="polygon24"
       style="fill:#ffffff" /></g><path
     d="M216.102,26.892c44.851,0,87.302,15.574,121.2,44.143l17.949-17.952C316.53,19.772,267.714,1.6,216.102,1.6  c-55.087,0-106.988,20.709-146.828,58.436l17.898,17.897C122.227,44.978,167.773,26.892,216.102,26.892z"
     id="path26"
     style="fill:#ffffff" /><path
     d="M63.104,66.129C23.943,106.266,2.399,159.125,2.399,215.303c0,51.463,18.064,100.15,51.196,138.818l0.302,0.238  l17.938-17.857c-28.569-33.898-44.144-76.35-44.144-121.199c0-49.421,18.913-95.929,53.298-131.288L63.104,66.129z"
     id="path28"
     style="fill:#ffffff" /><path
     d="M429.827,215.303c0-50.57-17.461-98.454-49.514-136.788l-17.961,17.962c27.322,33.494,42.182,75.017,42.182,118.825  c0,48.338-18.086,93.891-51.043,128.949l17.896,17.896C409.116,322.307,429.827,270.398,429.827,215.303z"
     id="path30"
     style="fill:#ffffff" /><path
     d="M216.102,403.732c-43.807,0-85.329-14.857-118.824-42.182l-17.855,18.07c38.315,31.99,86.16,49.404,136.68,49.404  c56.187,0,109.054-21.545,149.192-60.707l-17.885-17.885C312.048,384.82,265.532,403.732,216.102,403.732z"
     id="path32"
     style="fill:#ffffff" /><rect
     x="2.939"
     y="205.831"
     transform="matrix(0.7071 -0.7071 0.7071 0.7071 -89.0708 216.6705)"
     width="428.14"
     height="20.044"
     id="rect34"
     style="fill:#ffffff" /></svg>