<?xml version="1.0" encoding="UTF-8" standalone="no"?>
<svg
   xmlns:dc="http://purl.org/dc/elements/1.1/"
   xmlns:cc="http://creativecommons.org/ns#"
   xmlns:rdf="http://www.w3.org/1999/02/22-rdf-syntax-ns#"
   xmlns:svg="http://www.w3.org/2000/svg"
   xmlns="http://www.w3.org/2000/svg"
   xmlns:sodipodi="http://sodipodi.sourceforge.net/DTD/sodipodi-0.dtd"
   xmlns:inkscape="http://www.inkscape.org/namespaces/inkscape"
   version="1.1"
   x="0px"
   y="0px"
   viewBox="0 0 158.51 194.14874999999998"
   enable-background="new 0 0 158.51 155.319"
   xml:space="preserve"
   id="svg2"
   inkscape:version="0.48.4 r9939"
   width="100%"
   height="100%"
   sodipodi:docname="pay_online.svg"><metadata
     id="metadata20"><rdf:RDF><cc:Work
         rdf:about=""><dc:format>image/svg+xml</dc:format><dc:type
           rdf:resource="http://purl.org/dc/dcmitype/StillImage" /></cc:Work></rdf:RDF></metadata><defs
     id="defs18" /><sodipodi:namedview
     pagecolor="#ffffff"
     bordercolor="#666666"
     borderopacity="1"
     objecttolerance="10"
     gridtolerance="10"
     guidetolerance="10"
     inkscape:pageopacity="0"
     inkscape:pageshadow="2"
     inkscape:window-width="640"
     inkscape:window-height="480"
     id="namedview16"
     showgrid="false"
     inkscape:zoom="1.2155628"
     inkscape:cx="79.254999"
     inkscape:cy="97.074374"
     inkscape:window-x="75"
     inkscape:window-y="34"
     inkscape:window-maximized="0"
     inkscape:current-layer="svg2" /><path
     fill="none"
     d="M133.401,33.851v-0.798c0-5.498-4.047-9.644-9.414-9.644c-0.39,0-0.788,0.021-1.184,0.065L61.476,30.28h62.425  C127.536,30.28,130.854,31.634,133.401,33.851z"
     id="path4" /><path
     d="m 143.73151,80.783297 h -0.98088 V 56.001415 43.308493 c 0,-8.8884 -6.6784,-15.850187 -15.20254,-15.850187 -0.60435,0 -1.2203,0.03464 -1.82992,0.10499 L 24.999994,39.032059 c -7.675103,0.873472 -13.687987,8.326653 -13.687987,16.969356 v 85.487525 c 0,8.65354 6.270233,15.69434 13.978031,15.69434 h 1.31522 99.402962 1.44811 c 8.43238,0 15.29325,-7.0408 15.29325,-15.69434 v -1.6744 -24.81978 h 0.98088 c 5.69225,0 10.32452,-4.75268 10.32452,-10.59422 V 91.379673 c 0.001,-5.842618 -4.63121,-10.596376 -10.32347,-10.596376 z M 126.29932,32.941579 c 0.41766,-0.04762 0.83743,-0.07034 1.24877,-0.07034 5.66061,0 9.92901,4.487495 9.92901,10.43835 v 0.86373 c -2.68634,-2.399613 -6.18586,-3.865139 -10.01971,-3.865139 H 61.617307 L 126.29932,32.941585 z M 137.4771,139.81454 c 0,6.59269 -5.14486,11.9569 -11.46783,11.9569 H 26.606312 c -5.524555,0 -10.019716,-4.61305 -10.019716,-10.2825 V 56.001415 c 0,-5.669441 4.495161,-10.28249 10.019716,-10.28249 H 127.45739 c 5.52454,0 10.01971,4.613049 10.01971,10.28249 v 24.781882 h -26.61658 c -5.69226,0 -10.32453,4.753758 -10.32453,10.595295 v 13.020878 c 0,5.84153 4.63227,10.59421 10.32453,10.59421 h 26.61658 v 24.82086 z m 11.3054,-35.414 c 0,2.85854 -2.26551,5.18238 -5.05099,5.18238 h -0.98088 -5.27353 -26.61658 c -2.78549,0 -5.05099,-2.32384 -5.05099,-5.18238 V 91.379673 c 0,-2.858532 2.2655,-5.183457 5.05099,-5.183457 h 26.61658 5.27353 0.98088 c 2.78548,0 5.05099,2.324925 5.05099,5.183457 v 13.020867 z"
     id="path8"
     style="fill:#008000"
     inkscape:connector-curvature="0" /><circle
     cx="116.434"
     cy="83.480003"
     r="6.1869998"
     id="circle10"
     style="fill:#008000"
     sodipodi:cx="116.434"
     sodipodi:cy="83.480003"
     sodipodi:rx="6.1869998"
     sodipodi:ry="6.1869998"
     transform="translate(4.1133207,14.807955)" /></svg>