<?xml version="1.0" encoding="UTF-8" standalone="no"?>
<svg
   xmlns:dc="http://purl.org/dc/elements/1.1/"
   xmlns:cc="http://creativecommons.org/ns#"
   xmlns:rdf="http://www.w3.org/1999/02/22-rdf-syntax-ns#"
   xmlns:svg="http://www.w3.org/2000/svg"
   xmlns="http://www.w3.org/2000/svg"
   xmlns:sodipodi="http://sodipodi.sourceforge.net/DTD/sodipodi-0.dtd"
   xmlns:inkscape="http://www.inkscape.org/namespaces/inkscape"
   version="1.1"
   x="0px"
   y="0px"
   viewBox="0 0 100 125"
   enable-background="new 0 0 100 100"
   xml:space="preserve"
   id="svg2"
   inkscape:version="0.48.4 r9939"
   width="100%"
   height="100%"
   sodipodi:docname="save_money.svg"><metadata
     id="metadata14"><rdf:RDF><cc:Work
         rdf:about=""><dc:format>image/svg+xml</dc:format><dc:type
           rdf:resource="http://purl.org/dc/dcmitype/StillImage" /></cc:Work></rdf:RDF></metadata><defs
     id="defs12" /><sodipodi:namedview
     pagecolor="#ffffff"
     bordercolor="#666666"
     borderopacity="1"
     objecttolerance="10"
     gridtolerance="10"
     guidetolerance="10"
     inkscape:pageopacity="0"
     inkscape:pageshadow="2"
     inkscape:window-width="640"
     inkscape:window-height="480"
     id="namedview10"
     showgrid="false"
     inkscape:zoom="1.888"
     inkscape:cx="50"
     inkscape:cy="62.5"
     inkscape:window-x="75"
     inkscape:window-y="34"
     inkscape:window-maximized="0"
     inkscape:current-layer="svg2" /><path
     d="M25.689,30.689c-0.715-0.437-1.391-0.96-2.034-1.526c0.509-0.031,0.995-0.236,1.362-0.521  c0.412-0.315,0.725-0.694,0.995-1.083c0.156-0.229,0.295-0.464,0.427-0.701c0.318-0.573,0.578-1.163,0.818-1.755  c0.34-0.836,0.621-1.686,0.896-2.531c0.282-0.841,0.546-1.689,0.889-2.487c0.174-0.399,0.372-0.774,0.716-0.957  c0.339-0.187,0.779-0.105,1.16,0.077c0.388,0.182,0.737,0.456,1.066,0.746c0.33,0.291,0.632,0.616,0.919,0.952  c0.576,0.667,1.081,1.396,1.545,2.143c0.002,0.003,0.005,0.007,0.007,0.01l0.002,0.004c0.242,0.389,0.405,0.823,0.477,1.272  c0.058,0.451,0.058,0.909-0.025,1.355c-0.074,0.447-0.205,0.883-0.375,1.3c-0.172,0.425-0.364,0.806-0.605,1.203  c-0.22,0.398-0.47,0.774-0.727,1.136c-0.25,0.367-0.53,0.704-0.823,1.013c-0.58,0.624-1.253,1.112-1.989,1.349  c-0.735,0.241-1.539,0.232-2.345,0.036C27.241,31.524,26.446,31.147,25.689,30.689z M95.128,42.305  c-1.377,4.873-3.445,6.068-4.937,6.212c-0.107,0.01-0.214,0.015-0.322,0.015c-1.334-0.001-2.662-0.804-3.688-2.198  c-0.903,0.525-1.861,0.808-2.845,0.844c0.02,0.387,0.037,0.775,0.036,1.166c-0.006,6.106-2.544,11.743-6.826,16.304  c-1.813,2.611-7.184,10.96-5.756,16.328l-4.471-2.742l-3.217,2.734l0.008-7.686c-4.488,1.639-9.487,2.558-14.762,2.552  c-5.337-0.006-10.391-0.955-14.915-2.641l-0.008,7.744l-3.211-2.741l-4.476,2.733c1.723-6.426-6.301-17.154-6.301-17.154  l0.013,0.003c-1.57-1.812-2.876-3.777-3.866-5.864c-3.252-2.635-7.924-4.889-7.924-4.889c-0.27-1.429,2.444-2.854,2.444-2.854  c-2.848,0.473-4.135-0.686-4.135-0.686c-2.028,0.229-0.625-10.654-0.625-10.654s5.53,1.571,13.143-4.846  c1.177-1.517,2.53-2.941,4.047-4.247c0.039,0.039,0.076,0.079,0.113,0.119c0.024,0.026,0.048,0.052,0.074,0.078  c0.689,0.675,1.43,1.307,2.239,1.87c0.224,0.154,0.455,0.301,0.692,0.441c0.622,0.369,1.291,0.683,2.022,0.885  c0.996,0.291,2.623,0.327,3.666-0.046c1.047-0.364,1.894-1.085,2.523-1.881c0.63-0.807,1.066-1.702,1.403-2.61  c0.176-0.441,0.317-0.939,0.405-1.414c0.088-0.482,0.144-0.968,0.145-1.455c-0.002-0.486-0.04-0.973-0.167-1.44  c-0.117-0.461-0.31-0.902-0.586-1.285c4.241-1.43,8.435-2.224,13.343-2.219C66.415,20.8,81.228,31.516,83.154,45.276  c0.772-0.007,1.467-0.237,2.082-0.597c-1.115-2.56-1.255-6.026,0.894-8.422c1.738-2.098,2.965-1.917,3.684-1.392  c1.776,1.295,1.09,5.81-0.282,7.959c-0.558,0.93-1.175,1.717-1.838,2.355c0.7,0.968,1.551,1.515,2.313,1.442  c1.255-0.121,2.453-1.883,3.288-4.834L95.128,42.305z M23.161,39.301c0.001-1.01-0.817-1.829-1.827-1.83  c-1.01-0.001-1.829,0.817-1.83,1.827c-0.001,1.01,0.817,1.829,1.827,1.83C22.34,41.129,23.16,40.311,23.161,39.301z M44.473,47.176  c1.031-2.113,3.118-3.425,5.575-3.423c1.943,0.002,3.685,0.718,4.97,1.977l2.574-2.369c-1.884-2.031-4.568-3.319-7.54-3.322  c-4.572-0.005-8.404,2.991-9.722,7.133l-2.486-0.003l-0.002,2.257l2.057,0.002c-0.029,0.257-0.029,0.543-0.029,0.8  c0,0.257-0.001,0.486,0.028,0.743l-2.057-0.002l-0.002,2.257l2.486,0.003c1.253,4.173,5.136,7.206,9.707,7.211  c2.971,0.003,5.659-1.28,7.547-3.307l-2.569-2.374c-1.287,1.284-3.031,1.968-4.974,1.966c-2.486-0.003-4.57-1.348-5.597-3.492  l4.515,0.005l0.602-2.257l-5.714-0.006c-0.028-0.229-0.028-0.486-0.028-0.743c0-0.286,0.001-0.543,0.029-0.8l6.743,0.007  l0.602-2.257L44.473,47.176z M59.398,29.388c-3.148-0.885-6.448-1.377-9.811-1.46c-3.356-0.081-6.681,0.244-9.87,0.973  c-0.344,0.079-0.559,0.421-0.481,0.765c0.079,0.344,0.423,0.559,0.765,0.481c3.085-0.705,6.301-1.021,9.554-0.941  c3.256,0.081,6.451,0.556,9.496,1.412c0.057,0.016,0.116,0.024,0.173,0.024c0.279,0,0.536-0.184,0.615-0.466  C59.936,29.836,59.738,29.484,59.398,29.388z M87.914,41.821c1.194-1.871,1.218-4.772,0.822-5.363  c-0.143,0.056-0.52,0.266-1.164,1.042c-1.465,1.635-1.471,3.982-0.8,5.887C87.24,42.866,87.621,42.31,87.914,41.821z"
     id="path4"
     style="fill:#ffffff" /></svg>