<?xml version="1.0" encoding="UTF-8" standalone="no"?>
<svg
   xmlns:dc="http://purl.org/dc/elements/1.1/"
   xmlns:cc="http://creativecommons.org/ns#"
   xmlns:rdf="http://www.w3.org/1999/02/22-rdf-syntax-ns#"
   xmlns:svg="http://www.w3.org/2000/svg"
   xmlns="http://www.w3.org/2000/svg"
   xmlns:sodipodi="http://sodipodi.sourceforge.net/DTD/sodipodi-0.dtd"
   xmlns:inkscape="http://www.inkscape.org/namespaces/inkscape"
   version="1.1"
   x="0px"
   y="0px"
   viewBox="267.733 347.013 65.989 125"
   enable-background="new 267.733 347.013 65.989 100"
   xml:space="preserve"
   id="svg2"
   inkscape:version="0.48.4 r9939"
   width="100%"
   height="100%"
   sodipodi:docname="take_box.svg"><metadata
     id="metadata20"><rdf:RDF><cc:Work
         rdf:about=""><dc:format>image/svg+xml</dc:format><dc:type
           rdf:resource="http://purl.org/dc/dcmitype/StillImage" /></cc:Work></rdf:RDF></metadata><defs
     id="defs18" /><sodipodi:namedview
     pagecolor="#ffffff"
     bordercolor="#666666"
     borderopacity="1"
     objecttolerance="10"
     gridtolerance="10"
     guidetolerance="10"
     inkscape:pageopacity="0"
     inkscape:pageshadow="2"
     inkscape:window-width="640"
     inkscape:window-height="480"
     id="namedview16"
     showgrid="false"
     inkscape:zoom="1.888"
     inkscape:cx="32.9945"
     inkscape:cy="62.5"
     inkscape:window-x="75"
     inkscape:window-y="34"
     inkscape:window-maximized="0"
     inkscape:current-layer="svg2" /><circle
     cx="276.92401"
     cy="364.46201"
     r="5.8909998"
     id="circle4"
     style="fill:#008000"
     sodipodi:cx="276.92401"
     sodipodi:cy="364.46201"
     sodipodi:rx="5.8909998"
     sodipodi:ry="5.8909998"
     transform="matrix(1,0,0,0.96468884,0,18.785909)" /><circle
     cx="324.06601"
     cy="358.367"
     r="6.3540001"
     id="circle6"
     style="fill:#008000"
     sodipodi:cx="324.06601"
     sodipodi:cy="358.367"
     sodipodi:rx="6.3540001"
     sodipodi:ry="6.3540001"
     transform="matrix(1,0,0,0.96468884,0,18.785909)" /><path
     d="m 325.221,372.48523 c -2.871,0 -5.199,2.24579 -5.199,5.01541 v 3.27705 l -1.928,6.12481 c -0.116,0.26914 -0.347,0.89812 -0.461,0.94829 l -10.658,6.5734 c -1.017,0.45146 -2.841,0.13698 -2.264,1.16244 0.577,1.02546 1.869,1.49141 2.886,1.03898 l 12.196,-5.10997 c 0.098,-0.0434 0.165,-0.0964 0.231,-0.14953 v 7.30849 c 0,0.0404 1.263,20.19866 1.263,20.19866 0,0.14566 0.029,0.28457 0.052,0.42542 0,0.0193 0.586,22.29589 0.586,22.29589 0,2.14451 1.308,3.59347 3.302,3.59347 1.994,0 3.358,-1.47405 3.358,-3.61855 l 0.536,-22.64704 c 0,0 1.301,-20.19769 1.301,-20.24785 v -21.17396 c -0.001,-2.76962 -2.328,-5.01541 -5.201,-5.01541 z"
     id="path8"
     style="fill:#008000"
     inkscape:connector-curvature="0" /><path
     d="m 303.735,391.69989 c -0.018,-0.0753 -0.05,-0.14276 -0.099,-0.20162 -0.007,-0.007 -0.006,-0.0193 -0.013,-0.0279 l -3.148,-3.40053 c 0.147,-0.0416 0.244,-0.1717 0.268,-0.44182 0.097,-1.07757 -0.655,-2.07505 -1.681,-2.2265 l -12.14,-2.06154 -6.606,-2.65096 c -0.716,-1.70172 -2.441,-2.90469 -4.462,-2.90469 -2.662,0 -4.82,2.08181 -4.82,4.6498 v 19.63239 c 0,0.0463 1.206,18.77188 1.206,18.77188 l 0.497,20.99645 c 0,1.98822 1.265,3.35519 3.113,3.35519 1.849,0 3.061,-1.34381 3.061,-3.33204 l 0.549,-20.62215 c 0,-0.0183 -0.005,-0.0309 -0.006,-0.0483 0.022,-0.13023 0.049,-0.2595 0.049,-0.39455 0,0 1.171,-18.68892 1.171,-18.72654 v -15.7775 l 5.407,0.84701 c 0.138,0.0404 0.508,0.0945 0.568,0.10318 l 11.558,0.16785 -0.444,0.97529 -3.633,2.97897 c -0.004,0.003 -0.004,0.008 -0.008,0.0125 -0.006,0.006 -0.015,0.007 -0.021,0.0134 -0.062,0.0598 -0.101,0.13409 -0.127,0.21321 -0.007,0.0203 -0.009,0.0386 -0.013,0.0598 -0.006,0.0309 -0.019,0.0598 -0.02,0.0917 l -0.07,9.84755 c 0,0.0222 0.01,0.0416 0.013,0.0637 0.004,0.0346 0.009,0.0685 0.021,0.10224 0.012,0.0337 0.029,0.0637 0.048,0.0946 0.011,0.0183 0.015,0.0404 0.029,0.058 0.006,0.007 0.016,0.0106 0.023,0.0173 0.038,0.0425 0.083,0.0753 0.133,0.10418 0.016,0.009 0.029,0.0231 0.046,0.0309 0.067,0.0299 0.14,0.0483 0.218,0.0492 l 8.577,0.0568 0,0 c 0,0 0,0 0.001,0 l 0.169,9.2e-4 c 0.002,0 0.003,0 0.004,0 0.141,0 0.276,-0.0531 0.377,-0.14855 0.1,-0.0964 0.158,-0.2267 0.159,-0.36465 l 0.07,-9.84658 c 0,-0.0183 -0.009,-0.0337 -0.01,-0.0511 -0.003,-0.0231 -0.008,-0.0434 -0.014,-0.0665 z m -5.042,-2.79181 0.357,-0.78332 2.97,3.16515 -6.098,-0.0405 c -0.001,-9.2e-4 2.738,-2.26991 2.771,-2.3413 z m 3.932,11.82227 -2.33,-1.77792 c -0.231,-0.1775 -0.569,-0.13988 -0.753,0.0849 -0.183,0.22381 -0.143,0.54891 0.088,0.72544 l 1.796,1.36986 -5.457,-0.0367 1.815,-1.34575 c 0.234,-0.17364 0.278,-0.49874 0.098,-0.72447 -0.182,-0.22672 -0.518,-0.26915 -0.751,-0.0946 l -2.18,1.61682 0.058,-8.27222 7.676,0.0511 -0.06,8.4034 z"
     id="path10"
     style="fill:#008000"
     inkscape:connector-curvature="0" /></svg>