<?xml version="1.0" encoding="UTF-8" standalone="no"?>
<svg
   xmlns:dc="http://purl.org/dc/elements/1.1/"
   xmlns:cc="http://creativecommons.org/ns#"
   xmlns:rdf="http://www.w3.org/1999/02/22-rdf-syntax-ns#"
   xmlns:svg="http://www.w3.org/2000/svg"
   xmlns="http://www.w3.org/2000/svg"
   xmlns:sodipodi="http://sodipodi.sourceforge.net/DTD/sodipodi-0.dtd"
   xmlns:inkscape="http://www.inkscape.org/namespaces/inkscape"
   version="1.1"
   viewBox="0 0 100.00001 125"
   xml:space="preserve"
   x="0px"
   y="0px"
   id="svg2"
   inkscape:version="0.48.4 r9939"
   width="100%"
   height="100%"
   sodipodi:docname="tree.svg"><metadata
     id="metadata14"><rdf:RDF><cc:Work
         rdf:about=""><dc:format>image/svg+xml</dc:format><dc:type
           rdf:resource="http://purl.org/dc/dcmitype/StillImage" /></cc:Work></rdf:RDF></metadata><defs
     id="defs12" /><sodipodi:namedview
     pagecolor="#ffffff"
     bordercolor="#666666"
     borderopacity="1"
     objecttolerance="10"
     gridtolerance="10"
     guidetolerance="10"
     inkscape:pageopacity="0"
     inkscape:pageshadow="2"
     inkscape:window-width="675"
     inkscape:window-height="480"
     id="namedview10"
     showgrid="false"
     inkscape:zoom="1.888"
     inkscape:cx="143.22034"
     inkscape:cy="62.5"
     inkscape:window-x="75"
     inkscape:window-y="34"
     inkscape:window-maximized="0"
     inkscape:current-layer="svg2" /><path
     d="m 56.408866,4.999995 c -5.664234,0 -10.26721,4.3612256 -10.26721,9.727887 0,5.36666 4.602976,9.697004 10.26721,9.697004 5.664261,0 10.234616,-4.330344 10.234616,-9.697004 0,-5.3666614 -4.570355,-9.727887 -10.234616,-9.727887 z m -0.130377,3.3970398 c 1.220798,0 2.238227,0.2560272 3.129054,0.8029367 0.89087,0.5469094 1.303773,1.2032515 1.303773,2.0382235 0,0.259025 -0.09538,0.506605 -0.293349,0.679408 -0.197954,0.201484 -0.452707,0.308822 -0.749669,0.308822 -0.32993,0 -0.552104,-0.07461 -0.717075,-0.247057 -0.164971,-0.143942 -0.323958,-0.36082 -0.488915,-0.648526 -0.198013,-0.402968 -0.387922,-0.6963 -0.651886,-0.926466 -0.263964,-0.201483 -0.676827,-0.308821 -1.303773,-0.308821 -0.725869,0 -1.26633,0.216699 -1.66231,0.648525 -0.395927,0.431827 -0.617694,1.086147 -0.749669,2.007342 l 3.09646,0 c 0.131962,0 0.195566,0.103115 0.195566,0.247058 0,0.172624 -0.06398,0.323512 -0.162972,0.524997 -0.131975,0.201483 -0.226924,0.339704 -0.325943,0.339704 l -2.900894,0 -0.0326,0.833818 c 0,0.259025 -0.001,0.409737 0.0326,0.524998 l 3.194243,0 c 0.131962,0 0.195566,0.07224 0.195566,0.216175 0,0.172802 -0.06398,0.354395 -0.162972,0.555879 -0.131975,0.201661 -0.226924,0.308822 -0.325943,0.308822 l -2.835706,0 c -0.0025,0.0506 0,0.103817 0,0.154411 0.112739,1.850229 1.027806,2.933807 2.281602,2.933807 0.461933,0 0.87524,-0.107517 1.271179,-0.308822 0.395925,-0.201662 0.777875,-0.639104 1.140801,-1.358816 0.230968,-0.460687 0.421727,-0.780679 0.586698,-0.895583 0.164973,-0.11526 0.356552,-0.185293 0.521509,-0.185293 0.395939,0 0.682077,0.07664 0.880046,0.277939 0.19797,0.201663 0.325943,0.488393 0.325943,0.833819 0,0.834795 -0.445081,1.563369 -1.368961,2.254399 -0.923867,0.690674 -2.03741,1.049995 -3.357215,1.049995 -1.253796,0 -2.335563,-0.396093 -3.259431,-1.173523 -0.923837,-0.777254 -1.464745,-1.970285 -1.629716,-3.582333 l -1.238584,0 c -0.099,0 -0.162972,-0.07426 -0.162972,-0.247058 0,-0.143942 0.0636,-0.294831 0.195566,-0.524997 0.132016,-0.201483 0.259948,-0.308821 0.325943,-0.308821 l 0.814858,0 0,-0.339704 c 0,-0.259025 -0.001,-0.58913 0.0326,-1.049995 l -1.20599,0 c -0.099,0 -0.162972,-0.07224 -0.162972,-0.216175 0,-0.143942 0.0636,-0.294832 0.195566,-0.524997 0.132016,-0.201484 0.259948,-0.339704 0.325943,-0.339704 l 0.945235,0 C 51.948642,9.8150347 53.539931,8.3970348 56.278489,8.3970348 z M 73.162345,22.880777 c -5.664234,0 -10.234615,4.330344 -10.234615,9.697005 0,5.36666 4.570381,9.727886 10.234615,9.727886 5.664262,0 10.26721,-4.361226 10.26721,-9.727886 0,-5.366661 -4.602948,-9.697005 -10.26721,-9.697005 z m -21.544844,2.439692 c -2.871717,4.438698 -6.732403,12.332339 -8.441928,17.757254 l -2.11863,-1.389698 c -0.210841,0.586636 -0.47043,1.152679 -0.782264,1.69852 0.154325,0.167814 0.912531,1.016911 1.368961,1.513226 1.140403,1.240078 -0.553658,7.146335 -0.68448,9.974944 -0.02084,0.459261 0.427431,0.896118 0.912641,0.895584 l 7.170749,0 c 0.491466,0 0.945218,-0.461859 0.912641,-0.926466 -0.203624,-2.851055 -0.486696,-5.015361 -0.391132,-6.917608 0.09523,-1.902247 0.512917,-3.554708 1.792688,-5.589675 1.78815,-2.8564 7.206404,-5.181676 10.234616,-6.269082 -0.200063,-0.581648 -0.366745,-1.180124 -0.456321,-1.791167 -0.03691,-0.190438 -0.07316,-0.365262 -0.09778,-0.555879 -1.014253,0.09852 -2.371736,0.193424 -4.106884,0.679408 -1.951716,0.546731 -4.074283,1.395283 -5.899571,2.470575 1.720129,-3.609603 3.607807,-8.067246 4.628393,-10.62347 -1.39022,-0.07624 -2.774483,-0.387216 -4.041696,-0.926466 z m 21.414467,0.926466 c 1.220798,0 2.238227,0.256026 3.129054,0.802936 0.89087,0.546909 1.336367,1.234134 1.336367,2.069106 0,0.259025 -0.09538,0.506607 -0.293348,0.679408 -0.197955,0.201484 -0.452708,0.27794 -0.74967,0.27794 -0.329929,0 -0.584698,-0.04373 -0.749669,-0.216175 -0.164971,-0.143943 -0.291364,-0.391702 -0.456321,-0.679408 -0.198012,-0.402968 -0.387922,-0.696301 -0.651886,-0.926466 -0.263963,-0.201484 -0.709421,-0.308821 -1.336367,-0.308821 -0.725869,0 -1.233736,0.247581 -1.629716,0.679408 -0.395925,0.431827 -0.650288,1.086146 -0.782263,2.007341 l 3.129054,0 c 0.131963,0 0.195566,0.07223 0.195566,0.216176 0,0.172624 -0.06398,0.354396 -0.162972,0.555879 -0.131975,0.201483 -0.226924,0.308822 -0.325943,0.308822 l -2.933488,0 -0.0326,0.833818 c 0,0.259025 -0.001,0.440618 0.0326,0.55588 l 3.226837,0 c 0.131963,0 0.195566,0.07224 0.195566,0.216175 0,0.172803 -0.06398,0.323513 -0.162972,0.524997 -0.131975,0.201661 -0.226924,0.339704 -0.325943,0.339704 l -2.8683,0 c -0.0025,0.0506 0,0.103817 0,0.154411 0.112738,1.850229 1.027806,2.902925 2.281603,2.902925 0.461932,0 0.907833,-0.07664 1.303772,-0.27794 0.395926,-0.201661 0.745282,-0.669986 1.108207,-1.389698 0.230968,-0.460686 0.421727,-0.780679 0.586698,-0.895583 0.164974,-0.11526 0.389147,-0.154411 0.554103,-0.154411 0.395939,0 0.682077,0.07664 0.880047,0.27794 0.197969,0.201662 0.325943,0.45751 0.325943,0.802936 0,0.834794 -0.445082,1.594251 -1.368961,2.285282 -0.923867,0.690673 -2.070005,1.019111 -3.389809,1.019111 -1.253797,0 -2.30297,-0.396091 -3.226838,-1.173522 -0.923837,-0.777253 -1.497339,-1.939404 -1.66231,-3.551451 l -1.20599,0 c -0.099,0 -0.162971,-0.07426 -0.162971,-0.247057 0,-0.143943 0.0636,-0.325715 0.195566,-0.55588 0.132016,-0.201484 0.227355,-0.308822 0.293348,-0.308822 l 0.814858,0 0,-0.308821 c 0,-0.259025 -0.0011,-0.620012 0.0326,-1.080877 l -1.173396,0 c -0.099,0 -0.162971,-0.04136 -0.162971,-0.185293 0,-0.143942 0.0636,-0.325714 0.195566,-0.555879 0.132016,-0.201484 0.227355,-0.308822 0.293348,-0.308822 l 0.945236,0 c 0.428923,-2.936387 2.020213,-4.385269 4.75877,-4.385269 z m -43.546008,2.13087 c -5.664235,0 -10.26721,4.330344 -10.26721,9.697005 0,5.36666 4.602975,9.727886 10.26721,9.727886 5.664261,0 10.234616,-4.361226 10.234616,-9.727886 0,-5.366661 -4.570355,-9.697005 -10.234616,-9.697005 z m -0.162972,3.366158 c 1.220798,0 2.270823,0.256027 3.161649,0.802936 0.890871,0.54691 1.303773,1.203251 1.303773,2.038224 0,0.259025 -0.09538,0.537489 -0.293349,0.71029 -0.197954,0.201485 -0.452707,0.27794 -0.749669,0.27794 -0.32993,0 -0.584698,-0.04373 -0.74967,-0.216175 -0.164971,-0.143943 -0.291365,-0.391701 -0.45632,-0.679408 -0.198013,-0.402967 -0.387924,-0.6963 -0.651886,-0.926466 -0.263964,-0.201483 -0.709422,-0.308821 -1.336367,-0.308821 -0.725869,0 -1.233735,0.247581 -1.629716,0.679408 -0.395926,0.431826 -0.617694,1.086146 -0.74967,2.007341 l 3.096461,0 c 0.131961,0 0.195565,0.07223 0.195565,0.216176 0,0.172624 -0.06398,0.354395 -0.162971,0.555879 -0.131975,0.201483 -0.226925,0.308822 -0.325943,0.308822 l -2.900895,0 -0.06519,0.833818 c 0,0.259025 0.03159,0.440618 0.06519,0.55588 l 3.194244,0 c 0.131961,0 0.195565,0.07224 0.195565,0.216175 0,0.172802 -0.06398,0.323514 -0.162971,0.524997 -0.131975,0.201662 -0.226925,0.339704 -0.325943,0.339704 l -2.835706,0 c -0.0025,0.0506 0,0.07293 0,0.123529 0.112739,1.850229 0.995212,2.933807 2.249008,2.933807 0.461933,0 0.907834,-0.07664 1.303773,-0.27794 0.395925,-0.201662 0.74528,-0.669986 1.108206,-1.389698 0.230967,-0.460687 0.45432,-0.780679 0.619293,-0.895583 0.164973,-0.115261 0.356552,-0.154411 0.521509,-0.154411 0.395939,0 0.682076,0.07664 0.880046,0.27794 0.197969,0.201662 0.325943,0.45751 0.325943,0.802936 0,0.834794 -0.445082,1.594252 -1.368961,2.285282 -0.923866,0.690673 -2.070004,1.019111 -3.389809,1.019111 -1.253796,0 -2.302969,-0.396091 -3.226837,-1.173522 -0.923837,-0.777253 -1.464744,-1.939403 -1.629716,-3.551451 l -1.238584,0 c -0.099,0 -0.162972,-0.07426 -0.162972,-0.247057 0,-0.143942 0.0636,-0.325714 0.195566,-0.55588 0.132017,-0.201483 0.227355,-0.308822 0.293349,-0.308822 l 0.847452,0 0,-0.308821 c 0,-0.259025 -0.001,-0.620012 0.03259,-1.080877 l -1.205989,0 c -0.099,0 -0.162972,-0.04136 -0.162972,-0.185293 0,-0.143941 0.0636,-0.325713 0.195566,-0.555879 0.132017,-0.201483 0.227355,-0.308822 0.293349,-0.308822 l 0.977829,0 c 0.428924,-2.936388 1.987619,-4.385269 4.726176,-4.385269 z m 0.74967,25.446916 c -1.76771,0 -3.194243,1.3516 -3.194243,3.026454 l 0,5.620556 c 0,1.674854 1.426533,3.026454 3.194243,3.026454 l 31.909836,0 c 1.76771,0 3.194243,-1.3516 3.194243,-3.026454 l 0,-5.620556 c 0,-1.674854 -1.426533,-3.026454 -3.194243,-3.026454 l -31.909836,0 z m 0.293349,13.124926 0,20.598414 c 0,1.674755 1.426532,3.026454 3.194243,3.026454 l 24.934652,0 c 1.767709,0 3.194243,-1.351699 3.194243,-3.026454 l 0,-20.598414 c -10.438563,0.08889 -20.8818,-0.01764 -31.323138,0 z"
     style="fill:#008000;fill-opacity:1;stroke:none"
     id="path4"
     inkscape:connector-curvature="0" /></svg>